<mxfile host="app.diagrams.net" modified="2021-04-26T14:14:47.999Z" agent="5.0 (Windows NT 10.0; Win64; x64) AppleWebKit/537.36 (KHTML, like Gecko) Chrome/90.0.4430.85 Safari/537.36" etag="GKUiJ9F9jXQlAXhogW0O" version="14.6.6" type="github">
  <diagram id="GLDYAv9JMxbYPCM3FxL4" name="Page-1">
    <mxGraphModel dx="1422" dy="762" grid="0" gridSize="10" guides="1" tooltips="1" connect="1" arrows="1" fold="1" page="1" pageScale="1" pageWidth="850" pageHeight="1100" math="0" shadow="0">
      <root>
        <mxCell id="0" />
        <mxCell id="1" parent="0" />
        <mxCell id="f2BgzFDbXWF-40dfzCkJ-2" value="" style="html=1;verticalLabelPosition=bottom;align=center;labelBackgroundColor=#ffffff;verticalAlign=top;strokeWidth=2;strokeColor=#0080F0;shadow=0;dashed=0;shape=mxgraph.ios7.icons.cloud;" vertex="1" parent="1">
          <mxGeometry x="274" y="42" width="421" height="207" as="geometry" />
        </mxCell>
        <mxCell id="f2BgzFDbXWF-40dfzCkJ-3" value="" style="shape=image;verticalLabelPosition=bottom;labelBackgroundColor=#ffffff;verticalAlign=top;aspect=fixed;imageAspect=0;image=data:image/png,iVBORw0KGgoAAAANSUhEUgAAAHcAAAA9CAYAAACX+vaAAAANRElEQVR4Ae1aB3Ac1RleGVNNxpSACWFIQo/BQ3EILeDQPEPLDGXC0EICkzCTIcxgSdcsnyTbcpcLtixjG4GNcGwnBmwGbGGbalu6u72qO3Wr99679GX+t7d3e6e9051OlsVl38ybfbv79pX/e+8v31sOSopaCXBROzNlYlDAjeJFoICrgBvFEojiqSk7VwE3iiUQxVNTdq4CbhRLIIqnpuxcBdwolkAUT03ZuQq4USyBKJ6asnMVcKNYAlE8NWXnKuCGL4Ga9gFYqnvC/1D5YtIkcEZ2rqOmG0/vyIO5smvSBqo0FL4EJh3cowWtmLPUjtc+KWKjaegaRGPXUPgjU76IWAKTCu4H2fWYtdiCmDgjnHWCSl55rAqvZhZGPFClgfAlMGngJmdVgYszgdMX46XdApgjo6NYsMUJTmNDdvnZV9HDI6MYHB4JX0o/0S8iBrejbxhv7C0Bp7GDU1twrtoIY4UApK2mG7PUBnCL87Aw3YmhkdGzJiZHbQ8e3OLCvWmF+Le56ayNYyo7jgjc4sZePJzmAqfLBRebA07rwLMZ+Z7xLz9aDU5tAxdrABdnxB5zo+fdVBc0X5QzrcIlnsZDm3PP6kKbqrlPGNyTpR24ZY2dAcrFZjMAZ8QbcaywjY29b3AEv9/gEMBddAqc2op5q61o7x2eqrl5+unoG8LNK8yYEW/ChRoDzlebYHBrF0+lKCxMCNz/WJtwmd7CbClHwFHW2vFIWi5EzftDSQfOVdGONQjvaQFo7Fh9vHrKxfh5bgs4rQ2/W2/Hyx8XgXZv/KGyKR/HVHcYNrhrjlfjHJWJ2VcPsKSS403Yb232jH/R52WCuhbBp6vKjCv1PCpa+z31pqLwSmYhuORy0Ni/K+lg4/rNch7kL/zUEzmJgVJY4MYfLBPUbDwPbtFJYUcSaGor5qfa0D0gCKtrYBg3rjCDU1m8dUSQdU68ubc40Hgm/XlZSx8uSzCyBVnY0IuBoVHckGJmTt4Bu3cxSjtu7BpkGiYpqxpLv67y5OSsSlZe5n625HAlKloH2Ke2mh7os2qxy9ggbcqnnF3eiYSsOuy1+Dp0ZMLWflOD5V9XobVnEJ39w0g6UoWndhaCNkn3gK+Hn1/fgyWHK/D4tjymjZ7akY9Vx6tR2+67aUIG92hhO2JIxTJg3aqYACN1q7Ig/USdZyJfOFvZLmVOlgiqeI0jQRvxfUmHp/6ZLGz5sY45Ug+n5Xq6effzUnBJpYxF8zyUFMjLZ2Fdchm4JYW+WSeEdlxiCa5O4kE0K6Wt1M/SSsxf75C05FtMOVoFbkUDHt7q8nnR2jOEc2JPMRP2VV4r/piWCy6pnI1xliYHtR2Dnvq7DfW4ItHC3nEqHjPpO60DNJ5b19hhre721A0J3IHhUTy02SGEOyJI4lVtwXXLebT1elmoVzKLwJEQxDr+V40dCzY7znjMSSrrD+/RxIuRfrLeM2laWOT8nac2Ir++1/NcLNBc9lmbscvUhI95b95rbQLt1hiVGedpeBx1O4/03c7sBqYNHtriFJsZc133bQ2z97TTpIn6u3SxAT/T5OD+Tbm4Qm/Cph9qccjVhu3ZDSDwKR3Oa8VMjRmcNhdvf1oKe003A/7b4nY8SHxCUinmp1o95iYkcDMMDYKNJdvqD5Q2FyuOVnnGWtXWj9k6wQaPqSt+S+2ozNhlPLOhEV/VjRlqMy7R5YDUs5hIDd693gZOX4KkI5Xi45CuT2zPYztZf7jCp37o4JZADtwr9UYm49laA3gZTr67fxjz1liZFkr4stynb7qhBXLjShu4hHzsMglyHRdcWjXXpViYXR0DlsqMOXojiD8WU/rJOsGLJnUtgil3VVvx21VWNHd7vxXbmKwrU7/JZXhx11j6k6nIJYW4bZXF4yuM12+cW52Tiu8b8rWDkwJuQgH+9Wmp7DAOksefkM8AHgngRKV8XQkuuQyvZgq8/rjgqg6R1xtAxeqckK4iYqAe2+q2SXKASp+5Q6Pkw+HtHNmZyzyklXx1shkztHZkFQixt7RabccAZusMILv1Vd7Y99K6VD7kbGG+xaV6C/IbxqrySMG9PMHANtBnjhb/rtn92wdKmUp/4cMCuOp6mG0l+ypmOolbllXJFsB9mwS7HxRcouwu1BhZmDNmF6p45oWWt3g9NHtND2bGnZKvLwVWLLM2eJQ0eVWm7Mwm8DCTb2S26WJNNvNEM4wN+MDgzWRqrl9uZsL4657g3juZml+lCCovEMsWKbhkc2MWncKpsk7Z2T65I5/Nh3v3pMAGEusnzYuy3dx+EW5eZQXx+kHBfT7D3aAIhvSqdTCjLh1JS88QHk93CYOQ1g1W1jnxF/fxoLStSMvP7MwTvEi1FVxCAbglRX65kBEvFMZdpTeiss27SP37fo7kkFyOf+wT1J3/e7oXwV2QFtihSv2OHCp5m0vgnhN3KiBz9tg2onmduD7FgoXv5+GRrS7fnO4C1Xn0/QL887+lwcH9wtWCGRT6iAyTFKB4E36mM/q43eKEa9oHMW+dQxCs9JtA5TgDYuJNOFbYLjYR8dVV14uLNbSyc/DchwX4+/4S/G1vsU9+c18J3thbjEtINWtzQb6CXNpAgOiLcUeqHbR4AyUR3Ac2e0Mu/7orj1WPC25OufzOfTajgHnD2i99HTn/PqT3sju3b2gU92ywy4c+BJLWgZd2F0jb8Snn1vZgTpJZ3gmTA1lrx30bHaCQazKS4CwVYO5qKwbHafOt/SXgkspATpK/n3KytBPn62y4UGcBlYOlPeYmJpcbUvgx7Yjfsb4ST+PpnfKhEO3cQOAu/rKCjZP+cAk1yYK79USd+zRHxuONMzDOmGi8YOmr/DZcoDWPJT3kwCXnSm3F9mxvLBqs7WDvKMwhtoxLOg1dCKv8m+J2NsaZKqNPCEJRwm1rreAW52Pjd7XBumTvTpR2ICY2m8Wh4pGn9KP6zkFcu8zMwqiJgEtcPR2pXqSz4ERpcC035F7QY8BtYIMIEPqwXWvHwm1OjIawyTZ9XwsujpdX7f4gExmyjEd9p8D4SAUTTvlYUQdmqEyMbiQHb7xEi+HOdVa2GOIPeePHt/afZuTHgs25aOkeYiqZ1LKYKYSjssjttvcOYe5Ki4cNq2rzzqOytR9PvJ8nOEBax4R2LvXz5DYnuMRS3LTajuNF7T7HlkT9HnS24vU9xajrFMLLMeAKhH+A0IeRDzwo5go1vXPgtGB/5QgQKcDu0IjUTySJ/t3iltfigfcC04D+7RNXTPHhFUtMjN0hcoXsMDkwF6lz8IskEy5PMPpmvRlXJZpQ0ux1xD4kskcl7M5rknn8eVchXvioELMTeMa1k+DJBDwqQz+eryIa1xTQW6YxFzf1Yd5au0A9xhtx/yYHXv2kmPVxyyorcxivSeLR7j4Q8QHXXNWNCzQmwaWWCl4sa+24d6PdZ8X4C8r/vn9oBH/6ID9wrCy2TVcVj9k6I/Lc/1/5tzXePe2eJ3fkYe6GIg9LM9439J7ixns2OnDLajujFN/5rAxzU124Y50Nt62xsdCCwgtpvmmVHbeusaJMEgpSWxk59bg91YmYuBw3mWPAwm35KGrsxQFHC25eXwRqX5rooIBoy/kb7CB/JViqaO0DxbxXJ1sEk0c/Q8Sb8HO9CS9nFvv4Bj7gPrWdwhiHPLPE7KLN51gv2CCk74hQuDPVfbAvBVOurHPixY98HQ5pW8HKpLpIPfUMBPZqA30/MDTCviXmiVR17+AIY6HYPT0LkOXMU+/AMJx1vey/sdPN3hieSJ6uvkEM+ntuAOuT+qD4NJTU0jMIOomikyb6GZFOk/yTB9xPHS3gYo2CXZATusaG29da2CD8Gwnl3lXXjWuWBbHlYp8UGql4WVYplH6UOl4JMHBJLdxFHiZtcVHIPlfBm5WerHibCL10JL8Ns3Qmpn7l+3EfJWrszOPt9TvHDL0npSZJgIG7lH5LJQaH/mDU2MbmhAL8eimP5u7w1Z2/mHdk14HCDllyRFxQ5Hyprdj84/ghiH/7yr1XAhyd8j+zIw93bcrH/PV2mezAXe8VIE1yGO/9fGIl9tsLLSIRTLmr2oJrl/Eggl9JE5MAR7adWJzRIIY82LtA3VKbdZ0DjCvNNDdCf6QKz39UiNvXWTEnkRfIbzlQPc+ymXMXe1D+CCxQv8pzrwQ8DpX3UXgl8u2ae4ZgruoCOWUrj1fj9T1F7M+AXyabcJ6KVKxFCIXIE6cdG2d071piwAJlOl3icbHWwLzC8Eal1CYJhAwu7cTq9gEG4j5rE5ZmVeK1T4px93o75iSaBLB0LnB64ddRItvZaQw9Y6C6uWpm18MoJ5XisXTXpPHO/0+whwwuEQSW6m7QP8C7TY3sFCXtRD37N4n+88kwNDLigN59zE9iNjcjk29CV/9P/zfUqV5YIYM71QNT+otcAgq4kctw2raggDttoYl8YAq4kctw2raggDttoYl8YAq4kctw2raggDttoYl8YAq4kctw2raggDttoYl8YAq4kctw2raggDttoYl8YAq4kctw2rbwP/UfLCX4s/G0AAAAAElFTkSuQmCC;" vertex="1" parent="1">
          <mxGeometry x="427" y="206" width="119" height="61" as="geometry" />
        </mxCell>
        <mxCell id="f2BgzFDbXWF-40dfzCkJ-4" value="&lt;b&gt;&lt;font style=&quot;font-size: 16px&quot;&gt;CCKM&lt;br&gt;CTM(&lt;/font&gt;&lt;font&gt;&lt;font size=&quot;1&quot;&gt;Physical/Virtual)&lt;/font&gt;&lt;br&gt;&lt;/font&gt;&lt;/b&gt;" style="rounded=1;whiteSpace=wrap;html=1;fillColor=#b1ddf0;strokeColor=#10739e;" vertex="1" parent="1">
          <mxGeometry x="393.5" y="437" width="182" height="93" as="geometry" />
        </mxCell>
        <mxCell id="f2BgzFDbXWF-40dfzCkJ-6" value="" style="endArrow=classic;startArrow=classic;html=1;entryX=0.496;entryY=1.025;entryDx=0;entryDy=0;entryPerimeter=0;strokeColor=#007FFF;" edge="1" parent="1" source="f2BgzFDbXWF-40dfzCkJ-4" target="f2BgzFDbXWF-40dfzCkJ-2">
          <mxGeometry width="50" height="50" relative="1" as="geometry">
            <mxPoint x="420" y="310" as="sourcePoint" />
            <mxPoint x="470" y="260" as="targetPoint" />
          </mxGeometry>
        </mxCell>
        <mxCell id="f2BgzFDbXWF-40dfzCkJ-12" style="edgeStyle=orthogonalEdgeStyle;rounded=0;orthogonalLoop=1;jettySize=auto;html=1;exitX=1;exitY=0.5;exitDx=0;exitDy=0;entryX=0;entryY=0.5;entryDx=0;entryDy=0;strokeColor=#007FFF;" edge="1" parent="1" source="f2BgzFDbXWF-40dfzCkJ-7" target="f2BgzFDbXWF-40dfzCkJ-4">
          <mxGeometry relative="1" as="geometry" />
        </mxCell>
        <mxCell id="f2BgzFDbXWF-40dfzCkJ-7" value="&lt;b&gt;&lt;font color=&quot;#004c99&quot;&gt;&lt;br&gt;-AND/OR--&lt;/font&gt;&lt;/b&gt;" style="rounded=1;whiteSpace=wrap;html=1;" vertex="1" parent="1">
          <mxGeometry x="173" y="366" width="120" height="240" as="geometry" />
        </mxCell>
        <mxCell id="f2BgzFDbXWF-40dfzCkJ-8" value="" style="pointerEvents=1;shadow=0;dashed=0;html=1;strokeColor=none;labelPosition=center;verticalLabelPosition=bottom;verticalAlign=top;align=center;fillColor=#515151;shape=mxgraph.mscae.system_center.admin_console" vertex="1" parent="1">
          <mxGeometry x="206" y="427" width="50" height="36" as="geometry" />
        </mxCell>
        <mxCell id="f2BgzFDbXWF-40dfzCkJ-9" value="&lt;b&gt;&lt;font color=&quot;#004c99&quot;&gt;Web GUI&lt;/font&gt;&lt;/b&gt;" style="text;html=1;strokeColor=none;fillColor=none;align=center;verticalAlign=middle;whiteSpace=wrap;rounded=0;" vertex="1" parent="1">
          <mxGeometry x="201" y="384" width="55" height="20" as="geometry" />
        </mxCell>
        <mxCell id="f2BgzFDbXWF-40dfzCkJ-10" value="" style="html=1;dashed=0;whitespace=wrap;fillColor=#2875E2;strokeColor=#ffffff;points=[[0.005,0.63,0],[0.1,0.2,0],[0.9,0.2,0],[0.5,0,0],[0.995,0.63,0],[0.72,0.99,0],[0.5,1,0],[0.28,0.99,0]];shape=mxgraph.kubernetes.icon;prIcon=api" vertex="1" parent="1">
          <mxGeometry x="196" y="530" width="70" height="60" as="geometry" />
        </mxCell>
        <mxCell id="f2BgzFDbXWF-40dfzCkJ-11" value="&lt;b&gt;&lt;font color=&quot;#004c99&quot;&gt;REST API&lt;/font&gt;&lt;/b&gt;" style="text;html=1;strokeColor=none;fillColor=none;align=center;verticalAlign=middle;whiteSpace=wrap;rounded=0;" vertex="1" parent="1">
          <mxGeometry x="196" y="508" width="75" height="20" as="geometry" />
        </mxCell>
        <mxCell id="f2BgzFDbXWF-40dfzCkJ-13" value="&lt;font color=&quot;#004c99&quot;&gt;443&lt;/font&gt;" style="text;html=1;strokeColor=none;fillColor=none;align=center;verticalAlign=middle;whiteSpace=wrap;rounded=0;" vertex="1" parent="1">
          <mxGeometry x="470" y="270" width="40" height="20" as="geometry" />
        </mxCell>
        <mxCell id="f2BgzFDbXWF-40dfzCkJ-14" value="&lt;font color=&quot;#004c99&quot;&gt;443&lt;/font&gt;" style="text;html=1;strokeColor=none;fillColor=none;align=center;verticalAlign=middle;whiteSpace=wrap;rounded=0;" vertex="1" parent="1">
          <mxGeometry x="340" y="430" width="40" height="20" as="geometry" />
        </mxCell>
        <mxCell id="f2BgzFDbXWF-40dfzCkJ-15" value="" style="pointerEvents=1;shadow=0;dashed=0;html=1;strokeColor=none;labelPosition=center;verticalLabelPosition=bottom;verticalAlign=top;align=center;shape=mxgraph.mscae.system_center.admin_console;fillColor=#0066CC;" vertex="1" parent="1">
          <mxGeometry x="295" y="173" width="50" height="36" as="geometry" />
        </mxCell>
        <mxCell id="f2BgzFDbXWF-40dfzCkJ-16" value="&lt;b&gt;&lt;font color=&quot;#0066cc&quot;&gt;VM with Disk Encryption&lt;/font&gt;&lt;/b&gt;" style="text;html=1;strokeColor=none;fillColor=none;align=center;verticalAlign=middle;whiteSpace=wrap;rounded=0;" vertex="1" parent="1">
          <mxGeometry x="306" y="134" width="96" height="33" as="geometry" />
        </mxCell>
        <mxCell id="f2BgzFDbXWF-40dfzCkJ-18" value="" style="shape=cylinder3;whiteSpace=wrap;html=1;boundedLbl=1;backgroundOutline=1;size=15;fillColor=#007FFF;" vertex="1" parent="1">
          <mxGeometry x="406" y="131" width="39" height="55" as="geometry" />
        </mxCell>
        <mxCell id="f2BgzFDbXWF-40dfzCkJ-20" value="&lt;b&gt;&lt;font color=&quot;#0066cc&quot;&gt;Database with Encryption&lt;/font&gt;&lt;/b&gt;" style="text;html=1;strokeColor=none;fillColor=none;align=center;verticalAlign=middle;whiteSpace=wrap;rounded=0;" vertex="1" parent="1">
          <mxGeometry x="414" y="89" width="96" height="33" as="geometry" />
        </mxCell>
        <mxCell id="f2BgzFDbXWF-40dfzCkJ-21" value="" style="aspect=fixed;pointerEvents=1;shadow=0;dashed=0;html=1;strokeColor=none;labelPosition=center;verticalLabelPosition=bottom;verticalAlign=top;align=center;fillColor=#00188D;shape=mxgraph.mscae.enterprise.key_permissions" vertex="1" parent="1">
          <mxGeometry x="407" y="393" width="26" height="50" as="geometry" />
        </mxCell>
        <mxCell id="f2BgzFDbXWF-40dfzCkJ-22" value="" style="shape=image;verticalLabelPosition=bottom;labelBackgroundColor=#ffffff;verticalAlign=top;aspect=fixed;imageAspect=0;image=data:image/png,iVBORw0KGgoAAAANSUhEUgAAAO0AAADiCAYAAACiG0BaAAAgAElEQVR4AeydB3ydV3n/r7a3PGInTgK0rNKWsuIh3at7r4btJGQyShhhBSihhUBLy2gpFJoWaIGmUGZpy/iXBkLYSUgIGTjxiGXLe8qWbG3pau/5/X9+57xHenV9ZS07jpT36nN03j3Oe77v85znPOd5QwS/oASCEphTJRCaU1cbXGxQAkEJEEAbVIKgBOZYCQTQzrEHFlxuUAIBtEEdCEpgjpVAAO0ce2DB5QYlEEAb1IGgBOZYCQTQzrEHFlxuUAIBtEEdCEpgjpVAAO0ce2DB5QYlEEAb1IGgBOZYCQTQzrEHFlxuUAIBtM/COjACzCY9C4vsGXXLAbTPqMfx9FyMgB2eYdK+we/ilkAA7cUt/4ty9gDai1Ls5+2kAbTnrSjnzoECaOfOs0p1pQG0qUplni8LoJ3bDziAdm4/vxldfQDtjIrtGbNTAO0z5lE8fRcSQPv0lfWFOFMA7YUo1dkeU1Qlp+RjJq8fnR+CoT4Y6oWRfmCQEYbN4ZIP4Z/X7rIoD50jOYuztg1+F68EAmgvXtmnPnMqekRLEikjQ9DXPcLIoD3MyIBwA3o6oLMOOqugvwFG2s1ibTbgbWvo1LSY7h+2pI5YaAfcYl+uZUo6QwCuLeaL+T+A9mKWfqpzTwitVoxYATwIIz1D0DsAA/3Q0QxdTVBfTv9jP+XgP99B+Rc+RMfPvw7l26GnDjoaoKsN+vvsC0CQd/XQ39puSRyxUIplJ20N6B6wDlwtS/EOSXUnwbILVAIBtBeoYGd1WMunpyILEaEyyBDDDJvpPqAb+hqg5Tjsu5+hb3yM/bfmsevq3+Pw1c+ldONy9kYu5+TNV9H4gdfB1z4Be34OTWXQcwoG6mG4A4Z1LHcG+1Iw1Dp6R+xlaFaCWfBaZTtJ9M/qhoOdp1MCAbTTKa2nbVuR4pErPXikD4Y7YbgFBmqhpxyO/4b2//1HDn74Bnbc+HwObr6E04VLaIwtoCmcRdOGTFrWLaDxqsUceVkOeyOr2HHdcznwvihVn78N7vsKVO2AlmPQVw8DzTDUAkOdMDBs6fSBq1fHACMmBdA+bRUh5YkCaFMWy9O7cGBA8sv+BqS+6jcwwFD/MMPdfdDaAB2V0LQLHv0KjZ+8jop3/BGlW3I5ULKYk8ULqY5n0RBNp7kgRCIcojmsPJ3GSCZ10YVUxRdTUbSUE8XLKctfwu7oCo689gVU31EI3/sobP02JJ6CoWoLrhTxoUHo62Owr4/hkREjgPuGvbazvUpGzMvFmwmyp6UEAmiflmKe2kkMAJKs/Z3Q22ZTUyWU/pq6b3ycHe/ewK6b1nC8KJ2aaIi6WIj6aIgmgRoJ0RIJ0aqUH6IlHKKxwK6vj2vbNBpiaTTHs2iLLSIRyaEmnMapeBa74znsvGEte2/P4/QX3wtbfwyV+6C/CfoS0FILw9YaPdhlDVtTu6NgqwtRAgG0F6JUp3nMvr6+MYk10A1N5XDsMbj7s1R/+NUce+NLKCtexp78dGq2LKZegOaHaA17SdP5abSFM2jPT6cjL0R7ngVZUNcWhqgp8pJgD4doiqbTVJRDXdECTobTqSpZwsGNIQ7Hl7Cv+DIOv/ZlNPzN6+G/Pw177ofaAzDYBEPt0N/D8LAU5uB3MUoggHbape6sRKq0ShMbZGTWUftPyTPxeGdTm3XQ9qUOdEKn1zXTXAFbf0rNZ97DoTe+it3xXE7EF1ATTachIomaTmssk/ZwiPaNFkzB2ZaXRmteBm35WbTnZ9KxMc1AKxW5QdI2bsEVvJqu0T5FWbSWLDTTiWg27bEcWgT6+hC1r9B+Szi4fgF7Sy5n+01/xO4/20LDXR+GB78LDcegpQq6GqG/DQY6YKh7VBpbs5a/fGwZDQ8FoE+7uqXYIYA2RaFMvEiVTxVPFhrXCaI2nq2Uo/hqwnShDDNgWoLqRhlmeMjrV9EJBtqt5KrfB0/8L8N3/QXH3/xy9hVfwqHIUsrDizgTzqE+kk2iIJOWgiyTWguyaA1n0BZON5JV0rU1nElrWMttasvPNOtaIhk0R9JJFCSlcLpp7ybCGSTCmSTyM2nOz6AlP50Wk2fSlJ9NfWQB1QWLqYjlcrxwJUeKLmF/yVoqbnkVHR95A3z3Tth6N7Qega4K6KmG7lqga9QezbDKyRrWRoaG6O3umbh4gzVTKoEA2ikVkzZywApSVUTXATI0bo0B1whgSVit87ZXm3Cg17ZXe2rg1JP0//Qujn/0tWy7ei0HCnI4vT5EYmOIRF6Ipvx0miNjsDpolWv5bJIMVDNNjfnp1Odlcjq8kCNFq9h5zXMp+7M4lf96O/zue1C9A4brYKgRhppt15R5ydlXmtrtgfFqypUu5YYBtCmLJdVCP7SDWBk6aJwEndwVxsa2OjIMw/1WBVYuw5Ik6+kD8NB3qfvI9Ry75YVsjy5if3wx5fGFVEezaYpl0hzNMGpwIpZBc9ymRCwdf2qKpjGbJAPVTJPUbbWJq/JDnAqHOBpONy+cA8Ur2FtyCafe/HL6P30rfPcf4OAD0HMS+gRxp9FSzPssVfEGy6ZcAgG0Uy4qu6Frm6qdKkD9SfAasTvQZvs+5Ykkd8L9j9L2n3dS+q4tbN/8PAPpmY0hqvJC1EVC1IfTaIik0xzPpqUwm0Q8k0RhBonCdJOa4mn4U2MsxGxSvdq5kyTBmSolYiFaijJMao6n0xQNUb0+RGfJIpqljhcv5mRsEbtjS9l+3fM48lc30PS9f2Jg5y+g6wz0N8PIWBfXNIs/2ByCr+ZNuxZYLY9BT5C6/Yd6h2xzt0MW1io4eh/88NNUffhqym54Lgc2r+Zg0QpOxJZSW5BDk9qSkSyaClzKpFFSNpZpoG2KpdMkKC5AaoymMZWULM0TBWle+9hee3PEqeoZNBek0xJNpzGexpmSEJWb0qmM53A8upQnNi7hyZtezMO3bYSnfgiDba7YgnwGJRBI2hkU2uguHsC0tUJnMzRUwLaf03TX7ZS99Y/YFsuh9voV1AnAaIjGwkwSRdkkoqrkGcbA1FSQSWNBJg3RTOqjygVuBlKPL1Qy3T3q8hmXzla5LaQC1SYZtaxxy7apW7y2daLAqvR6Ecg6XVUcoq44REc0RFckm6p1mZwsXsm2a1fDA1+EvqbRIgwmpl8CAbTTLTM1ykwagu42aDwFpQ/C1/+e6ncUUX79CyiLZHAinkZdYZZpo8rhoa0gRFtxiNbNIRJFIRrjIRpiNgnq2ngmNfFM6iRpozJAnStZS7LfODV++lz7CjhZlZOTDF9p41JLJA1/Mo4bnhNHS0HIeF/pZSSnDd1DTTyDmsI00y8s9b09P42O/AXUbFjA0fBSnowvh5/+C/QG0E632vm3n3/QOnuRkYJqgaqzxSbbW6oVaok6x1pNi0L3cwfwTCbGqDQIg32gPtW+ZmithOM7GPjJ16n59HvYcc0LORRbTXXeYpryMmyfaixEWzRE88YQDVeFaNgQQu3BpsIQjUUhGgpDNMRtv2md+lHjAjeDemOMyqS1IFXKoK3AptaCDFwaA9yDWdC75DvO6L7hdFqTUySd1iRIUwFrwC0IYaCVN5Y0CHlmxdLM9Qvexqhd3x5OM33HLbFllIeXUFq4An78+QBaV9VmmM8/aMWa7BzGKiRYexmgmwF6vXEyglR9hepL7AZ6GTHdN4J1hJ4ea+W0XTrq2em1ThByJqjZB9vupvmTt1Dx1leys2gVu6NLOVa4lAr59xZkURNJpzYWMkneSKMGH3kieW6FglWS9ixjkqzCpm2YQUvUSwUZRupaQNOtxI6GaBUYsRDNehHEldJojKtNmUFjPNMkp2bLIt1aoH3TaY+kI5gMUOEQbV4aJ0V90lRwjrpHOjdJrffAdbl8npUEeptgDXtgS8OIZ1MZzqIsvgzu+Sz0BJJ2hrya3eYftGLPB+0IvQzRwyD9hmM7QkXQCk6B2+vfwStLddHUjaXdD9DyrU/x1Ls3seP6F3C8cDFVkbRxqaYgDZtC1EbTTaqLplEnWAWvl2SRlXRSSviSv9ILMCUZdgy8Rlpa8ATrKLDxEAnBL6ktbyeT0qgvzDCpwQCstrHtMmqOpdESlcprfZSVm+Qkp3yYlbzrGnedbl2K3MDqIDbQZhip3eRZuVsLM6gIp7MnvsSDtnE2dfZZv++8gla8mp9pc3par9RbjUSxgtSblLTVaBoTusELy6IwLQPWNa/3FFQ/Aj/7NC2ffDX7b1zLwc2rOBBfTcWmy6iLLzQSsTGShlKDnPO9aZtrdI1LaTTJBTFifYHl2D8KqFfRnZRzuSSikoVXsDpV2UlgwZxmpKyglaR14I7B66SuJK8gTqemKJ3aIg0cCBkVVmqsX9pruQxJSkZlL7Tuj5qeKJntTdvcDkholHFLxjW9uDyf58aSTE5EM9hZtBTu/VygHrt6OsN83kHrsTkK6ai7kmuiGiVYM/0w3AODHdBWYweEJyrh8Z9w9DNvp+ydr6T0mqUcK06jcZP6TNXeXER9bLHplmmJp9MclVXVAunAtLlATbcpnE5TOM0Ml9OQOT+0Dt7xkipkpazUYlmZTZLTRZYxUMlIlZCxKiYrs7qEpBan2TayJ20FZl2h7T5qkmU3ZiVvdXEG1cXpBkA/rJpOBWyNoPPArTXtbrW9xyfBrPZsfSzdJFm/Gws0TFBGqRDVar+XZHE8msnO4mVwb9CmnSGro7vNK2h1Vw5aYek8lazTodwKtVS/YehvBdqhvQIOP8bgf/8je9+1iZ3XvYjDV1/OqU0rOV28hKp4jrHs1hlDkSq8HB2sWtpc6KmnsqD6nBFsH6gMMhkpkpaP9ZM2RK2EkgXWJX+7tF7AxTKpjWZQZ+DLNKpvdUEIpfrCTOqLsqmNWctzdSyDU9E0jqwLUZefZvyS2+UOqS6lwkwDs87fXOCSlfxOLXaGJQOxMTBZoP3XnDytdrh5OXjdWC3hbBKRTOpjVkKrm+tkJIvSwtzAEOXVwNlk8w5aFYbAdQqwWqxyNrTtV4HaAsMNcKaUrp99lX0fexOP3/zH7NpyBYfiuVQXLiERX2D6UOsjWdQWZFEbyzLWXUkVGZGkkvqTqeg+18CxSpzpqYpSF21frPpjJYUaYukmOQklq6tNGdTHs3wpm5PrQ1RsDHFG7ehYFicjmVRfvYIz167mcMlynsxfyM7i1ey76QWcuOUP4KNRjhdnUxPJoL0gh678bDoUzSKWZQxUGkDQYvpclds2rqT9OHCd6qzcuE0m9+t682YwQoaBVKDK4aI1nENLOMuo4AK3pTCHU+FsdqvL555/CQxRsyF2PntESaYKWGt+kpW4GWpK4bf/Tdvfv4HKt7ycpwpXsq9wGSdLllJdspCGokzTxtOgcjeAXMakWs+gJDVSRppWrztHXTpKzoI6moczaTEVN4fmcA7NkWyTEpFsmgqUsoxDxXiQJZmUsmiI59AQs6mxcCGNhVLLF1ITyaIivIDDkeXsia9l32texrG/eDW1X/pLOu79Chx9DNp2w44vceDmZZzZspDm2AK68nPozsuhtUCOHVnIGWIsjY0AkgeUX4qOSn55OqXUGqQKy7Eik0SBjpuF7rElvMDcr/aX6txcqDG7OZTGV8A9/wo9iVlW22f37nNa0kqiCk7lo3qxxmwO9EC/Bmu3Qk89VD5F791f4Ogd13Lgxucb39g6jXSJZ9F9zRIDqEBt0uBwY1QKmb7WhhRWX0GrrhaXBPAorKbLQ1EjMpCK6FJrOBuXJIFawtajSJLJekSpDZhNfVRq7gJqCpdyumg5p4pXcaxkDTvDuey75nlUvOUqqm/fDF/8K/jx12Dvb6D+MLRXWeOOnPL7z0DpN9h50zJObMqhKZ5DR3gBnfkLaCnIQWNndU6nzvpzGY/OgtaAPDm0zh3TQatcwKo5kdBA+4gP2t4A2tm8duYetK7R6rVZO53zuQzB7tdRY0OH3vtNmj58K5WvX8+pLc/haCSH8rC6ZNJG+0/VFjUjXjwLb6PAjcgaPDYSRqBKBXaSo75Q3Sq2m0X9rTIIGQNR1JNkki6mD1VdLHJk0AD1TKOidoYz6cyzg9Q14DyRJwt0Jk3xRTQULqaiYAkHwsvZU3wlh25ZT/XH3kLjf/w9PPxDqD4EzZWehbvFvpj6OkwkCeMMPaSwqg2w539tWJq4VcUFkMLL6KVQH5Xamhpa69Z4tjuj9UH2qcdGukrC+pN9AcmfOpGfZXyr1dWlPuvm4gWcKljA7qKVcO+/BtZjV09nmM9NaAdHGBwYoN902QxBZ4sN0l1XBdsfpvFfP8T+N+ezY+Ol1BQ+l7qrFpF4VRqN8k7K96I5+PpNHbTju2vGumnU3hO0MgoZd8OiTGqKMqktSjdGIePkH82mOSpJluU5O3hOD/KKimTQFs2hO76YnuJcajakUx1RRV5EeckqduQtYWfxZZTfup6Ov70FvvVJ+Nk34dBj0FwOLWegp8UN/PMetYb/aZCCcqtyqHfLbLf7h5TeuJYTUrcL0ow110pxtc+9gQnjgHPwyaAkB4+JwPXW+QxP48G1/tQaVN8UzjD90xbaHE4V5LC7aEUA7QxB9e8256AdHgHF2TYxijRGteUkHHwYvvfPnL79GvZs/n0OFa7mRGw5lQXLqI4sojYvi/o8Kzmdldfv7DA1aNOMQ39tLJuaQqmwOdQVZtMQV3eM+lEzjLdRm5zr1YVi3BTTzfrGmCJQ5FC9MYsTeQsoLchl25bncOTdhdT/83vp++FdsPN+qDkMrdXQ2QRdLdCn6BZdMChnjw4zPWICrA14Y3UHzw1tPN1oFI3RLE/1zqQ2Zi3aybDZ+WRoxxxB9NIaTQZsbXt2Mm3l/Ayawuk+aLM5VZDN7qLlcG/ge+wHcCbTcw5aacd9LqhYfyv9Tz3Ag695JftKruBUbCWN8WW0FS6iIZxGbSSNRMkCaiMh4wChmEnjohR6XTWpobVOEa5fVSNdGqJZ1EVzqI8vNEkGo8aYVYnl/ytwJXUrSxZybMtSDm9ZwYGr1/BU8RoO3vQHnHlnlJoP3QQ/+Czs/AnUltkuJ0U87G2HAS98qu9J9msMoPnJHi5YNSbQg1aRG88laePppivK9pu6bqHzAK1xt3RSd3xuQtuEBa31BrOSVtBmsbsoN+in9T3bmU7OQWgVMFsVuQ/6WhnZdj9br3spx6OrOR1ZTmN0Cc1SSdXpXxSiTiNqZOUNh+hbF6JvvXXhG3UuMBJEFU9Sw6mJsoZK1RvzYhK06rpoL1nKmVeFqFE/6MY06vLSaS1eQtvm5Zx4VYgD4Wy2X38Fj77pj9n1waup+OIH4JEfwMEnQOFQW2uhow5kjNG40qEuE+V/ZMR+QUAxMcb/jSDtYiwpXIu8vJQmhnb3DWspl/O+VHtjrc42I4jU12vG7Y7eq7tn5eeStEkqs1Ojk/IA2pmiOPX95iC0GrOjzpxu6GmGJ35F6TUvpCqyhJrwQqSKmtE0cr3zQasIhv2Cdt1k0MqgYrtFjHeTIhrmh6jfGKJ2Y4jq/EwatqykojiXgwWLeSpvIXs2X8bB1/wBDe/fxNBd74cHvgGHH4a2EzZyRXsDdHdA34Bpf7o+ZM+J0jlTmtxCq9hS+tqdBjzIKWS02TpmLTfm8vEummZRbyvsuYc9N17OqXiGVWk9aG2X0kygHS9NR9u9ScBqeQDt1OGb6ZZzDlq5TQybUTqd0J2AJ37KgS2XIauvRtHYtmQm9fJkcu3OmI28b0KPypVQFmMXsuUsSTsGrbYzTgeyJIcVFkY+tIvYuWUNu9/2Sio+8Trq/v0D8PB34NhW6KiA1ipolRRV19MwNLdCrz49aTqmxj0nwSiA5fphdQcXvVFLbBK4DmGLsR1gOIqxz6966tAmt0WdtJ1I0gbQjntwF3lmDkIr2aMvv3VDVwK23suhLauMb+8YtPIoWmBSQzzbfC5DKrIzpIxzlPdBa1Vi6ygg440GpZ8qXsjBLas5fesrGP6718FX7oCdP4BjD0JiLwxWQ289jHhhQ89mc+JH7I1jELxCdMB8XksYjyULrT67ZdNZsncCaMt8klZOD40F6jeV84YkrQ/OcUYlH5zGC8qVmW95Cunql7yBpJ34cZ+vNXMQWumK3ndmupoNtAeuXm2cIWolaeMaiuaNgInJkuuSG3eanGu9nP/lnG9DlnYWL6VpUy7l166i/5/fBKW/hBOlNkpFT6N1w+tTP6kCdXfajzgP6/uTUleTdFkROctf8iHt4bQ0xRuirw32/Ji9N11BRWEmGo5nYlFF9PLKpCEltCmgNND62rGTwOrADaCd5cOewu5zD1rVU6NTDtv+2a33sv/qNeZTGbWRDBpjWcZbyY05dQPF3bhTDWEzDhHekDaNknHQmmgPas+GsyjPy2T/tWvg/rtAzhqjX2T2WHGWIcfO+ciTHpgOKeZdrmnpGeNbuWPDDkfV4933sNeTtGZsrBweHLSe11Ny0DYH3WzzANqkh3gBZucetCqEc0Arp/gW30DxZGjV5h0P7tnQNuVlUl+ynL1Xr4KffBYGNdDA9xOw5wPS5GP4TqHJ5NV2Xv8tvqNI+zeUIWpSaJ3a6/IUknaKkjUZ8gDapId4AWbnJrSqs/IxlgOCkbSXUi9DVET9pD5ofSFZnKQ1hipP2lqJeza0cvCvLVrGU0XLrKRtqz5b0k5M1US0Tb486QE7FscvniW0Xgwn1763+VSgdcarc28bQDv+aV2IuXkA7U84cPVlxnmiTgPPYxo76oVkSYZWQ+t8PsOpoc02I3Nqi3LHoO1usE4MyUYfR9X5ypOesDvs+MUXA1oBm8LCnEIaB9COf1oXYm5uQqt6K+d4hTDd+lP2b77UQqsoEcnQytFCQ+rUxTNlaBcwIbQXSjXWPSX9nhnQ+oGdHNwA2qSHeAFm5ya0KojBQehpH4W2SbGapB4XKBC4T9IG0Brr8aghatrqcQDtBeBuVoecu9AODUJvh4F236ZLEbSNKaFV94/arS6Wko2nJKk7sXp8ESRtisc4G0k7rp9Wnx9x1uMA2hQlPbcWzXFoO2Hrz9i36TLjK2zaXQqf4g1GtyFU7CctNLjbjofVEDubXFRCdX8YtU5SWt+nCU8C7UV9xkJ5Euux58Z4UiFU5TwyzrlCA9qd1djl5zIuBZL2oj7uFCefw9AOQH8XbP05ZcWXmjGr8miSxHXxfBW8zH2HZgxahUCZR9AmG8d8vscnCwNoU9T5Ob9obkOrsDJP/MJAaz6NoYgM+SHMEDwTXziANpC0c57Rs25gXkC7p2jN6AerxkGr8bSetH3WSdqbLqdcklZW83FD8wL1+CwK5tiCuQvtyCD0dcETv6Ss6FJaC/TxqQyfpNUX4FykQRtlcDTGkxclUPOCeU63aZPV4z47NG/3TZdzolChWjWe2AaOs7GRbfC2qbsxBm3aZxrTcw5aed7an4KYdZrxtGWFlxloTeSIUfV4FtBGFlAzkXOF+mkv6i/JEDUBtKUetGq/K+KGiREVzzRftjt7lM+5DFFa5wdX0xNvH/TTXvjKMSehtdgMW2ifvI+9xWtpVZBsWX/DvjbtDNXjRGQB1UW57JQb4wN3Qc+YR9SIILmov4sBrQP33MAK5gDaC1855g20zfkZNOenjYfWRM237dqxNu25u3zsMLYFVBfnskPfnnHQmlCHCvXyLIE2GJp34emb4RnmBbT7Si4nkZdOIm9Myqqv1vbT2q8CyIrq/z6NURtNe099lZ6EUFwo44iwgKriXLY7aBVL2IN2eF5CKwmaJEWDQfAzROrC7zZvoG3amEbTRg9a7xOSKaH1PuV4LmgbCxZwRtCWLINf32UDgI/YkawK/XJxZe35Vo8Fawqf4nHQ2hfbOOPVBO3aQD0OoD2rBISMhWasTbt/0xU4aM/6SLL3gWR1fRhJOxm0pntkAadLctnmh9bESFTwF3f+sy7taVpwsaB13lMewAG0T9PzPvs080LSBtD6Rsx7XT6TW4+dSjxVSRtAezY+F2fJ/IdWxijzucYpStqIgqDNd/XYqcPJua9de5Z6HEB7cRA9+6zzE9qI/ZJdyjat53c8pTatDFG+Nq1CT8wPQ1QyrG4+gPZsRJ55SwJovRCqbpSPrMejkjaAdjTs7FTD0wSGqAsPeQBtCmibIvO9y8dJ1uQ8kLQXHrnZn2H+QmtG+ehrAoFzxdlujMmwuvkA2tkjdeGPMA+hnd14WqnHo26Mzrli3rkxOkiT8wDaC4/c7M8QQJtCPQ6gdV8W8FuM/dPBgIHZozfzI8xvaIMBAyZKR6AezxyQZ+Ke8xRaqcjB0DyNp009NC9ZLXbz51KPnfT18sAj6qLxPCehVVgzE9xM42mfvI/xHlEW2JZI+mjcKHVDjI3yUYwomxqiEwyCn/fjaR2kyflE0E6sDiePrQ26fC48y3Mb2r5O2HYf+zZfQePGNBrzQkbCSsrOBtrRNu28Hk8rQF1y8AbQXnjkZn+GOQmtvr9lJK0P2oa8NBo0NK9gdpLWDc17do2ndfD6JOo4N0bf8gnUYidxA0k7eygnO8Kcg1YD5MZBu/0+9m6+gvq8NOrzbb/sbCStg/bZNZ42BZQGWl87dhJYA2gnQ+38rZ+T0Oqr6UbS9nfC9vso23IFdflp1J0naEfdGP1D8+bNeNrpBnZLAfQ5AA4k7fmDc6IjzUloB/zQ7riPPT5oNVC7eRZt2sS8H0873RCqAbQTwXOxlgfQemqgkRAKNxNAO0G0xRTt3hQSN5C0Fx7lOQltoB77vuUz7RCqM5G0AjaFhTmA9sITmuIM8wba82mIGm3TzsuhedOF1g/s5OAGkjYFZed5UQBtsno878fTBtCeZ4ae9sPNSWiDLp+nUz0OJO3TTuUkJ5xz0CoW4jhoPY+owLnCC+42aWC3QNJOwsQzfvWchHbU9ziVR5Tp7pm5G+P8H08bQPuMp3KSCwygTdGmHfU9npeD4ANoJ2HiGb963kAbDBgI1ONnPG3n6SmeoSMAACAASURBVALnNrTB0DyYUT+tz6fY+Rin6HO1/sSBIeo8sXbeDjMnoT33Z0HcKJ9gEPzEg+AF4nTcE/3gnnvfoJ/2vLE54YHmKbQaVxsyPshnR2PUAHj7uUv7lXTFPhr7al6zP7DbvB5POx1ota1gPTewehEE0E7I2nlbMQ+htcAaaIPv004QbmZy+MZ9IU8q9BQlcwDteWNzwgPNX2iD79MydfU4hRQ1bV0XgTGAdkKCLsKK+Qlt8H1aJv9qngNRwKbwKR4HrW1CjJO+E0jeQNJeeIrnP7TB92k5O4SqXz2eKrRO6noAB9BeeDonOEMAbXKw8oIsGgrsR6WfdJEr+hpMpAyFuhmcNx+VdipxAO0EbDxjF89/aKf7fdpnBbROHU7OfRL4LPU4kLTPFIrnJ7Sz+T5tAK21FAfQPlMYPes65hW0CRP32Ovyman1OIA2gPYsTJ5ZCwJon5Vt2mS12M0H6vEzC8/UVzMvoN1XcjlNG9MYJ2ln+n3aKUhaDQ2UK6VLqYs2aem0Nk7ad9ysDjSbQfAZNEYdpMl5AO24on6GzswLaPcWryWRl+5BK99jz43R+6C0XBnHf8tnYjdGRWOczHrsQ8aAO+mzdcC6fNIdzrVBAO25SufZsG5eQFtWeBnN+Rnm+z326wIBtOd2rkiWsG4+kLRzAfp5Aa0kbUpoZ/B9WidpK4uXMVE/7bTVYydhXT6rmhFI2lkV3zzYeU5Ca8t9GLzxtGVSj8N+SWuH5zVH0u2ok7PUY+9Tl7GzP3XpoD1ZuJiyGy6Fh78CPucKB+y0nr2D1eXT2jl544sFbdIY3MAjKvnBPG3zcw5aa/5R+XjQbruP1NDO7Pu0gjYRX8TxggVs35QLP/vs7KHV5Z4XYN2BfK3qaQ+Cn4khyvkpT54HvscXnt15Ae2ekrU0nSVpZw5tY3Qh5bFF7LluDfzmy+cH2vP2LM+HpFXb1Z8ma9NODqsbuhdAe94e9IQHmhfQ7i5ZS2NEFU/qcBrNxrFCFU3LMk1SN0djVEHNpObpk5j2W7bNpvJmUB/LpDqexamiJRwoWsOuV7+QXe8qgOMPQ3+LEZWSbwrfKmwu3u98QesH0QHsWzbOI8q3fAK1OID26asR8wba+oIMauPp1MZDuIgU9dEs6qILqI8uoLEgh6aCLJr0Ocz1ITryQvRFMugMZ9JYkM3xSAZlxdmU/ukLqbjzz+n75f9BbTnoc5qD/eaJCNjpQHveNOJx9eFCQJsCSgOtrx07CawBtOMe0gWdmfvQbr+P0k1rqY1mUF2YTnVhiHoDbhp1sWwftNk0F2TQHA7Rmq/4UVnUFCzgWGwJu0ouoeGvN8P/fAiO/Qo6q6G7C7p7oWcABoeMdNUnNpUkccf9JqDTLVZ+/n6zhdZpGz4gBegUoZxsu0A9Pn9PeqIjzQtod3nQVhlo02gwVuEMM45UY0mboulGZW7x/JHrCxZxsCCXsjf9Mcc/cwvs+B50HoLBGmg/A4NtMNwziqcwGWCEXqBvdKmvSB2dvkWadHi51S5P2myas+6onjFq2oao6cY9nh7QAbTTfJwz2HxeQFu65XKqImlYaDOoj2YblVfA1sYyOVOUSXlJNoe3LKTs6lVUv6cIvv0pOPYb6D8Jw/X0d9dbzEaGYKgbBjoY6uuhq6cHfVpTCrKAVT4dSeuhNep4KORm9wugnV35zf295wW0T21ey+lwiPJwiMqCNCrWZVJfsITTeWmcKs5h/42r2HXbn3D0S+9meNvdUHcUWuuhtw16O2BwYJw7L8P9MNI32k2ThIl96lqYnJLqQ/J+AljLZvdLOuqMJG2Sahyox7N7JE/z3vMC2m1Fq6mOZXAmnsaRSBpl+UvYEV7BwRt/n6aPXAM/+QxUPgjUQE/tWBGr/kuMKjkrkxGjarn2jzGp7fysuPnkfOzIZsq/i5O4Wja7X/JRR8a/PPQBrrJ7KL35ck4UySoemiTczPTU36BNO7undz72nhfQOkkraI+/egU7b30F9V/9MBx8CNpOQHcVDDbCSBMMt8HQiJWsydAZomR06mWYXhNaRjwbjv2spNrP7Dv+kfh3mQm0qU+TfNSxE5spD9pdN1/O8aIM6uIhjBU9lk1NPJPauNr6Ph/j82SAcjAHbdrxdeBCzM1xaDtg54P85voXs2/LJfTfkQ8/+hg0Pg5dR6C3FnqarbvjiFqjXQz0t9Hf28+whOm4n0StIkANGGCH6GOQYSOEFRvKiDOTSbINeylJyqXQmL093RHGndHNJG/j5i3oI+j8LulTn/Y1Mk41MIfSGvpaoOxH7Lp5LceK0i20sUxjSa+OZ1ITTzeGukkjK/q6fFzAd5c7QFPlAbTuqV64fA5DOwQDnVC5n/1f+gj8/Mtw6BdQ/Tg07ICG3dBRCcMdYIAVaLIBq7In/xwIDlrJV4OAlzszlOzHvV57V+3goXESW81LJ1FdrmWjnI0uHDu8O7ND0K+tW1CH8f8JX6vL+7e012r+9zdD2Q/ZdfNlHCtO86DNoC6WRXVhBjWF1u9aTiYujXlH+VRlA22IhHFE0ZcDxqdUwGpZAG1y3Tr/83MQWq/Ci4ahPmipgTMHaH3sXvZ87R/49cffwd4v/CUnvvZ3tP38mww/8VM4tRtqDkPraeiph74m6EvAYCuMdBgJbOCWatnXDoOuY8fCYHtnBay6gZQEroxVg57EtdfkB3CUTy1MlbyFkpxuWweuFHSBOiZfx6bHAytwtZe7TklaC23pzZdxvCjN9FnXx6zHl6RsTTwZWqnKE7sxOmibjafZGLgBtOcfxqkece5B68hQTdf0QD90NlkAm07Q89QDHLrr4/zmXVfzwy3P55GbX8K2m1/M4bdeRcNfXkvXP9wK//HX8L1/hgf+C3b8DE6XQt0haK2A7gYY7IKhXvtS8BRknWyYIU9hFrCSvtKxbVBVJ/+EkIPQserm7TqHokC0kt0exxq/bKeSPa4F0u3tch3FSVm9NIbGfzlP0O75IbtvuozyQvVZh0ykioZoJnVxqcuuH9tJ2gDaqcLyTNlu7kLrBIypy6rEts1KbwN0V0NtGfzyK3T867vZ/YaXsO/G57Bnyyp2x3MpK1jO3tgayjY/j13Xv4Sdt2yg7PZrOfUPt1H37x+l6+6vwCP3wKGtcPhJaDsN/Y0w0AT9ktR1NmnZYAsMCfI+GB6E4WEYdnqy1/71FFzbRnbKruSpH1pdv0uCVjBKpdcx/EnLtM4lnc/3puhtgT0/Ys9NazlZmE5jLGR9rwuykMSti6lNKweLsXShJG19NERtLERLcTanCrLYXZQL934eepueKfV/Tl7H3ITWE2GmLo+aZYSAQOiH4W4YbIf+hLUcV26j/+dfZN9Hr2X/2/+EwyWXsPflIY4VLOFAZDEHCldQGlvGjthSyjav5tDVazl07ZXsv/657L7x9zn13ijVf3M9Hf/yTnq/cQc89jXY9X048iuofALaTkJXA/R3WcB6BqF3BPqGYdAzVsnENTxA76DUbP10E05y2yVib2h4mGEHvhPVZ+U+iP3Aalp9z7t/zJ4br+BkPNMOkCiQs0kO9bEs6mKZNJjBE3aI3vh4UT6rclKbdrrqcSKchqCti4VoLc6mIoDWPuTz8H9OQeuvu6aC+xRFp1yqNercDSV/jeo50AJ9VdCxH3bfDV/+ILXvLqLs2uezK34Jx7as4dSWlVRvWUbj5sW0FGbTrIodz6CuOIszmxZQXpLDoSJJi2z23Lia0tf/Hrvf+ifsfneE8k/cyunPf4jmb3+e7h/9FzzyayjdAZXHoa0eOuXIIajrbddTRxXIA0vXNdLtqdm6O9/P3aBf304G1M1rG5d62mH3vZTdeCUn41lGojZFcmiKaOBENvXRmUE7E0OUoFUKoPU91/MwOWegVZVWK1CyaYghI1UlWZWs0Was0hu4zT/t5E2onao26EA79HVBUy1sfYDGf/9bdrxhPXu2XMGhSA71xYuoCYeoj9gKV1sQojoWoqYoRN3mELWbQ1QW5aDIFqdKllGxeSWHo0s4FFvKofhyDhauYU/sSo5c/ydUvSNG4i+vp/9z74BvvB9+/El4+N/g0E+h8lFo3Q8DVdBVA13SCjqht89KZwek3jxuWrmDMznXdlrW3Q6l97L3his5Fc+ywxUjOSQiGumUjdq2Uo3lj22SNzTRqshnS1o7jHHMACV4JzJCjbMeR6ykPQvanwTq8Wy5nZPQDqK/AZOGjCu/V7PFp7+Cu2mvlEyd9nppzHadHZ71eTfc80Wq/up69r3mRZQVr+Bw4SJOxDKoiIaoUtvMS/IwaiwI0Siw80PUbQzRUZhFW0EaLXl22F/TukwaNuRQnZ9DeTiTA/LSiqezZ3MWO1+9lMdvWsu2t72MAx++mhOfeSt1X/8Ybf/3b/Dbe2DP43DyENSdgfYm6GiyhrbuJlAy/c4d0NsNfT3Q3wcDgzAwYu1T3c2w64fsv/5yKmKCNYtEeCGJ8CIaIwsNuBbQMfhMN03yB6M99VjQmj7dSWB1IOtYCkjQ6Ie2yKrHpcW5EEA7W2aZM9DqTi2TY9JWEldy1/a9ilBPqnrZqAHHW+4WG+Grf0MD1ko83GVV1Y5qaDhI3/99liMfKOGJq1exPS/E0XCIM5K8hZk0FWbSbIw7IWPkaRwdv6sB+Jm0hrNo35hF28YsmsKZ1EXTqYqnUVEU4mRxiPKSEMdLMjlasoDDJYs5uGkZ+zetYO/mVezZvJo9m6+g4nXrqHtbCR0feh19n3o7fOOv4Z474clvw9FfQXUZNJZDm9RsWbs77bjf7jZoPAY7/ot9V6+ktnglTeGlJMK5NIVzaQwvozGy2AsMYKGdUO319+MK4ClCqz5fBSQQtA1RuVCGaCvKprIgiwDaWfNqDjCnoLXg2j5MZ4PVXGrxOvHykZEhXLJKtz3aoPpd+9ugqwKqnoRff5Weu27n4Ftezt5rr2RXZBlHY0tpvmYJzSWywoY4s1EVU66BMvYsoDmSQ1teGm15ViLLEFMdt0mWVM2bylwQoiFVyk+nYV0ONa9cQPkrMjn0qgz25Wezr2QpB29czYE3PJ9D745x/MN/Ss1n30fT1/4O7vsv2PYzKN8BNTtg65epvH41lfkL6SxeY8AVvI0RpUUzg9ZIXt9AgwkhttA2+KBt96DdFUja80Ltsx7aoeFBBKuS0DXdLurK6auHngQkqqH+JEO//B5HP/429rzxVewvWU5lfAGJoly6SlbRkr+Y5vASGiJLjJU2EVHfaIiqohCVxSEqikNUFVqINQi/KeJPaTRFxlJjfhpNeYqwkUNTdBFNhUs4HcniVCSD8oJ0jkczOB5bwNHYYo4ULuNQ8Up2x1dRtuVKDt70Yk69/g9IvP55VBctpCG2gLo8OU6obeuSwu+MtV2nImmd55TLz60up9MQyaChYEzSClpZjw20Pw3atLMld85BKxXYL2tnK2mHR4boG+g13TFSn42KPdRhXSQ1azgegrYEtFSaQQgj3/wb6v/yWspe/QIOllxJeeFlnI5dQlVsBbXRRabNa6RwkQXWQStYHbRSHxsjkkpnJxfXKqEB/HI/3BiiJs8axxKxNNoKbWpWe1PHjGagbRVyR0a0yvUhEkVZZmCA9rXt0uTcSs2pQ+v6dT1pew5J64dW7X8naZ8qyYUA2tkyO7fatPZuZw9tsjotKWvbx65V7Fq/HsRmYLwMPmo7tkBXFbQchd2/oOl/PsWuPyvit4WXUhbO5VT+YuryMkkUZNBYmEVdcSY1hSFqpBbLgBVRnkZ9QTp1BRlJKd20getj6SgpAodJ2s9L5hg6lpLa0/EQTWpje0nOFK6rRbm2Tw2tXa4Ad35wR9uuvjatdcRw/bqyOp+rjeuTtN41Ky5XVSyHvdesDqCdNbIE0PrbtNZHaaxXxUpeiVrZnZX7fvKCGkxA+wk7OOGhb9F8520ceMMrKY2t5ljhKk4ULKM8P4czEfn+KqJGiPoCpXNAq3WjwFo124Dqh1YwpoI2HkKGMVm4TfIMQeeENmlAwNnQSsI6YG1uu4omAncMWr1omiRp41nUFC5i9+YV8MM7A48oXzWayeSzUj1OlrRj6rZVti2sZxenw1drhjSjUT7ywGqrhb5G6KmBk9vgvq9S+6m3sPv6P+RI0RVUhpdQH8k2oAlcIzWNeiwVeSy5tq3rgjHdJwXptn2oNqKxzMpKnYG+nmBDxYZIeFLWSN5Ca+wahXYySfs0QOskbdnVl8BPPhdAe3bVmtaSOQitbdUKL5eSIZzOvDuGlG6/UpxcilonRJ2vw+h6Daj3fsPDvTYonODtPAV7H2LgSx/m8BuuYnfxGvZtzuXYpkVUyZXQAJhGUziNRDiEjFdqnypvjaTTaoKvZ5KIZHqGnQyTqw3cHNEnUNJodV+8V9tW/ceeuuzUY0loqx57Ku24vtcxtdmpyOPG2OrlkiI5qa3RP1Yq+wccyNtKUS5zOBPL4VRhNseLF7JjfQZPFF3Cb9/wUvjd/4P+VldkQT6DEpiT0Nr7dIhNP7eAjv8/1bJzZzPbuxnn0C8VWk7+AnlgAPo6oKcOmg7Avl9Q9ZU72PmOdewtXEL5xhBnNsiIlEmDHDSKs2i/ZgHNRem0hUN05KfTElZfbxYNESXBK6msIOs2tURDuCSjlBlG5+UWLqmwTrWVmuv1LQtwfxqF0438scC6drIkuUvN8RDtxTIuZdAStwawKsWR3rSchvACEiUrOZKXw6FNqzlyyx9R9dGb6PjvT8D2e6CjHIbluiln0+A30xKYw9DO9Jatsclot547xqRHGoVzzH9jVCynWGf8NjzJbD2h26GnErrK4dRj8KM76f7bG00MqwMll1Bespyj4QxOqG+zONtI0HZJ37DahwpSl0VdgXKpyD4JKZiiYxA7mK1zf7qR0vKIst09XlePJ5VHgfQgH9s36Xg6vpcMuGonh0PU5qdRmZ/NsfAi9mxcwv7iyzl47Ys4+ZZ8ev/xNvi/z8PBB6GqFFpP2uYD8hDXL8k+4C0NsqmVQADtVMopBZgTQutxbY1aNnSN8XkebIKBBmirgOFm6DoDJ35H992fZ++fb+GpG17I7shy6jevNNbeZmNllvtkGtUKxK7PlsQyqYlqeJ0MW9a6rL5T+zmUDNPWlVeWArE3R7JpDufQEl7gJU1n0xyxlm2BrY9vS8XWC6IzP0SXL2m+Iz9kpL62kwot6d1YkGm8qqplbNv0PEpf/cdUfORWWr/1T7D3MWg+A22NNsTPgNwsu2FYktU5R/sLcyqFH2yTXALPWminVXX8G082bdrG6kCSb3Q/gybWlGIndzM8okELnmqoykyXDYmTOAyP/h+dn/0AJ24NU7Z5FYc3LeR4sdqFWZwxsNovItQWaLROjgnWJud/9eM2R7Otj7G++CdfYx+0FlwBm2NA1rqGsP3GkdrGbeF0OvPT6M4L0bvRJk2350tSZ1MTW8TJolwOb1rFvi1r2L3lShLv3Qz/eDv87Buw97eQOAmt1dDZDP2K6jFWzdo7uhkcGmZwaIjBgQGGBwcZGbJjhUfUrAh+0y6BZyW00y6lyUAdXa8JNwpJfb8DZhySxXfIxHjsk6e0GQ6rNrUGzfdCfwd0t0BbEyTOMPLQ9zj26bex65Y/ZG9JLsc3apTNIjria0xKRBYaUNviObTHc2gtkASVdLVSVNblsYHtrk1r89pIiDPhEKflrCErdDSb7tgiWl6ZRudV2TS/TMBm0Vq8jGPxZey7/vfY9uarOPXZ98CD/wmlv4L6w9BeBQOCtNn7IoNeSArFozuUhmFHX1lzoacQj5bTtJ9AsIOvBAJofYVxzkl/hZtw2kIrh0hVW/0JzeERVeOxCFNGUTSDcgy2BmLTzNOK/n4YaIW2cjPEjh98msQdmzm05bk8+bLFHFq/nJqCJSSiObQVLqIllkNzgUbzWGkrbyrrbuj15cZsTKh6L6+LhqgWuErRLCqjC6ktuYRjeUs5vHE5h6KXcvT6F9D8wWvgu5+EJ35go4BInafdp+YO2sEWBtJ+hukzUSzHPp6iKBzW1j5qP3Dlds6CDlZOVgIBtJOV0FTWu8roBamQAqykxaMwDtnRSZK6GlY4bCJsqOLrMyTWaiUDllEdNeZ3WN0i7dBbB63lsOvnJL7xMY6+r5jS/IUcXxeiYmOa94Gxhej7RPUFC+1AdwEaD5lIjCbusc/hQlbjlqj8gjM5VbiY/Zsu4dFNazn4vhLavvJXcP+34MQ26/U12Gwkv4mXpVA6/YMM9w4w1D9kjOS2802td72SdMde+AHFz3KhdzwV2JTFVMoy2GbSEgignbSIpriBB64yyRhjJ9WMgNSMCTsjlVEqs75eoIptv8hn1g3bzcx+klAabscI3R0tVn3uqoPBajizFX79ZUb+6c3sf+2L2Fm0isMlaygvWkVlfDnVscXG+0oeU7XxTM4U5nCqaDEnipdydNNyDm1axZ7CVZx84yvo/Ps3MvLNj8Gun0DDPmg8ZAdK6ILlODLoDT5WT5Y0eS+pV0sRccZ+mlE71W3kdXs5EeteYGM7BFOzKIEA2nMUnsfhObZIvUr7mZ8mXMVVbqSOf6EX68mr1G5TO2zQRnm08lpAKAJkj/1CwnAjdJ+E8kfhl1/mzN/ewrZrn09Z0RrOlFxCY34mTXmZnIks4XB8Nb+LXsbWG17KofffTOOXPwFb74MT+6BdoXAS0NkKPfKr7rX9y3rRuItR7mkCo7l/3UTTXuGNu1tvmSueIJ9ZCQTQqtwmqExusfJp/fw7pppOOpg28dd9O6zfulT6l2s3tZL7jeiW9bkVuiug+TDs/CnD3/p7Dr09xvEbX8Kxa1/I6bfHaf/0n8H//hvs0idSztiwNop24cB01+fm/Sd0035oXc+Nf5mbdtt7x9Ssf9XoOyvp/oPZ6ZVAAK3Ky1XcpLJzMLnVE+VJu40db4o7uPO4On9uaGWT7mVI3UXoK/WtNvrkUA8MdkNNOTz1MDz5Kzheatf3KGSpFG9Fh9R+Qin55y7WVx5ukSPP5X4a/cvcDWi/JO1Bq7zFyScO5qdZAgG0rnalqFFa5OqhP9dyfzqrzP0rU00n7aBN/MdPhnb8IbyuIgOh2sYDaCC/fgq/aq5sQMMIBbHyXoYH9UExdUFZXHU8/STLbbgem7tuGp1h9A7dxbmdlZuLVWznpCRR6tKoZ7jz7rZH9E4dZLMogWcvtL56OVpHkwrS1Vc/UG63pE3Hz7qNJsrHb21O7z+Hf1qHcD9N+9fZMcACVkmSVBZcz3KrYUgOKo0HHv24mCzXMobZPuTxcS3VWeWiW7oeVu8Kxt2L4PT8rP257+rca8AFaNeLSNfuvx93X0E+vRJ4dkI7rgKOCZXkotNmfkimXOkmOr5bnnSiVOdx59U699O08BOezkItxGxgOy11XS5JXx0wfUnelwkM4LYn2YJr4RWs9iXgd4qwUtJdtssteu4Kx+dWelv0bceWOrf0mhgffs/dU5BPvwQCaF1NVJ7006LxVXKKksJ/zFTTUziPO6//sjQtaAWsJ1NdS9U7orYQsOr79bpdtIPSuAMalw+DkVByaFrZaiWi29zt7uS5O5SOkPxnXx/uYycymI0Y1wv5SI29ZOyl+IslqTiC2UlK4NkJrQrFX2s0neKXvImbT7Hp+EVuw1T5+C3NXKrN/MvcLlommPySVjBp+ejPbCRgfeA6ApWftfHYAk2Z3X2MO2j9uTuM296/j7Zzyrp7ufhfMFrnwPcfZ/T6g4lJS+DZC+2kRTPNDfw1OHl6moeaaHN3WD+DruKbfdwGzhg02t4cXTF+s2SGvXlt7T+H5if7+ffxg6sXjJJfUvuhddfvv8LJpie7lvm+PoD2fDzhZ2Qt82PkR1BK7JgKrK2Sf8m3Y9b7Fybv4M37z+jAdZJV8/40/orGvyTOtS7V9U5wOfN2cQDt+Xi0/gqdavp8nMMdY8q1Vhumrv6TQetONZqnuqfkZd7G/rP6IfVPp76qia52/HId/9n+C6A9HzUguQInz5+Pc+gY7rhTOp42ToWHkB07lKYn/SXvMNG8dyCt1pn9oPqnU13VVJdN6XonvaG5vUEA7Uyf30QVN9XymZ7Dv5//uP7lE05rB4fCtHcef1T/7uea9vZyZ/aD6p92VzWTXMd+tv8CaGdSA0YrrvMAShJdo+u95TM5R/I+/mMmr0s5rx0cFpqe5c9//lTTvsO7M/tB9U+7q5pJfh7uxHelc3MygHYmz81UWlc15bQgeM8B7kzOMet9fNdnLm7WB5zyAdyZ/aD6p2cCq9tHx36m/lwVuNDXNyNo3cXZzvgx/1Vbc89Reb0d3f5n35xbo/wcP63WU/RvLnBcD6C33K2221lXAGs79Y7tdY1oO3sX1nfHHdpVFH+ubc2J1Z0y2pGh6bHrGT2vXTq6SlvZ/X0rLuhkqiu5oCc0lmn5VGlgYXI3j3PjcOVwrqvTOm3nT6bszL/Z3oM1xVm/Lb+jpT24/o+dxs2NLbFnd8vHrsUtmW0+Wq/HqpTnyGJffdOGVhekgtQDsUFG+umn1wQwM9C4DVxpu1es7wnKq06zhrPRO3Q7agftrPkUPy3WgHJ1/vk3Nf61CiqmrnxFQhmmXycyM9bZQG57/WYnu1i+uYOdncYnqJd+emimj3Zzbd4WdnefQ4Ou2y6052G42wxq16MXx/LZd32T7g50N7pU11/plrtDTZRru6luO9ExZrN8uufX9gK2z4xDUkg7672lMtP9W18p4ez7mZN4LpZmEL3ngqmxCKMRtkzpjhE87gC+Y01pUjvrFa0YIt3000k/XQyaCF56pdu6qWdmNShdub0Dc6nmHPYYyfXUv1R7uT2191STOa9XYcTH2DF0zb0onM+0oTX34l2Q9XhRHAYbRMXchP/KXW0dO7O5Ci3WTZgLdCUxKim1sdYoaWXST4tU+3VydxCzmVvhRVvoHYKeHujrhq4O6FIEiEZQCJWBbujpvafOFAAAIABJREFUhV59VNpaU/voo4cm+mgxhzWnNufRV9Y1/lShQDtgpMMOb+tp8y5CLveqpkPWP1/vB6983F0od0Wg3Pz8t6Zp/7xvkwlWeTuk2Mnbd1rZBCdxi6dyFretpKl9mcuFcezdaktZD0yF6nvG7k1nXC89Ly7z6NWXbEPzqHbpuKaMJqgWU79fXaleLaq1PfTRbZ58P32e77XVEHQac50jul4lXbsrCeXaYvzF2DKwTqG6XiW/xqEjTJbMGXRYFZF5cdlJ+4k4jdaaEbTugscu21y6vWJ7X/4mnlvuu0d7BN2c/Rvt6ncePKMFcnahuLIcvXuPAhWG4VgH7xdo/dDXBa31cLgUDj8Bxx+GU49Dc7n9crq2NfVHV6Bwp50M0s6wAO3tshEdWuugfDeUPwGnHoHTW6HhOPS2MtLbSndvq5EtQlfXYEbHqQKOWIniqqcpGFcWE+VJNU+buRLw72IL2VegSftNe9YdPGnHic7vNk/O3bW6x6d5r+55NVC1UEskMWzkRlONpRFpsQrQ7KAJDTcYU7FN2XoY2PtPutgpz+qqLVI6puqMTRrkqNeDwOgxEs0NdRi9MGlzplnkK3tXCOb8mrF37UfWoTt5rpvXOWz9QS8M76Whq1MNE7zTl7QGLB1MBx69xrFXyMCQjSio6AhmXGefHdc52AsaqK2QoYqNhBtpYt8hBlz31k0uGO+BjJaPO6/3kDXr3t/moesdX76H9v/8EmXveh1bN72c7ZtezO+ueR733/BCfvrWQhL3/QD6h0zMMisiFd9I16qIg22w/xGq/v1T7HrXjTx6zUvZes0LeOy65/Crm1/Er/7iZnp2PmTjOGnguT7/0d1qpbnCt3QnoE/B2ezIFitlVF7eq9PdSHKeVPHcbboqolzLxgp+bEnSrtObddeRtFeq87szul2Sc3MIbWTg8x1w9GBaofhXGrzfbstQMaB7e6G732pA/RrcL81mTF21Nca1lnWwmf60r67BHtsoeLpevW3NlxBbYaDFBg+QVjXSDUPStFTnvQo3+iq112DjN4+gMEEWOtUlba8QQdNJis3lJbNfn9fcs+Om7YDKkRlCq4vu7aavRwfVi3MY2hVNfhBaE9Bca6P4tSja/BnoOAPdp6G70gYOMzekgSgD9I5IMdFb1WsQanTKKLTjH47mTPmqrDSjMpRQNZ+wU3kNQ1cTPPp9nrplHbsiz6Ei+jxOrltJbXQ1JyKL2Vu0gsevfz41X/24VXndB7QGdU+KONgBP/4ij9/0Iso2PYfdr1jEsVcuoCaaS3k0h4PXXsK98dVw37fsl+L7euB0OYc+fDtlbyxh++sKaP3andB0Glo7vOvVw1S10715154qT6qH/vt1961l9ucO4Oankbtdk/OkQ2i1O6/L3S5Jm47O6gU1Kh/NS3h0lX3h6NkLCkWZVPSN3kZoroTGU1B3Ehoq7FcI1Zzp00vU7q/zdw/o7LYIx446g6lBNYu8A3f2Qpe+fNgOjbVQdxrqzkCTgq/XQ28CejugvcXCa7C0L2M9Vav+jtA7JHuJB7XRHKQ9eAM39F0nhcadUlKwP5uG+3rp6Gg3eoEd5qg4njORtHrj9LVZadLdDG31cGI/3b+6mxNf+CQnP/Mhdrzj1ex6+xZ2vnMLT962hUdvK+HQJ26l+zufgoe+AyfKoK0BhtqhL8HwcKcXndBTk8zrzz4g90jGVyBv3Si03gNoOU3i+5/nwS2XcWTTco69MpvavBWcWL+Uw3nL2RteTtnm5/BwyXM588W/NJ9cHFBAM/1UUM2NVH7hb7k/vITyLcuoKcrlzMZF1OQvoyKcy/78xZRuuoxfb34e/Pwb0NsGLQkOfuA2nir4AyqjV1BZ9Fweyn8+3f/zVWjpMIe2A81lAjOvJns+3YI/2aWj/8ff73h4vLsf3XbaE/7z+qeTDpTqGiY7t6qz2l1K5gZFm2q3dlSzo7sWDj1C94+/zOF//gsO/t07efztm9h+axGlb47z1FuK2PGe6yn/3F8x8MDdcHw/dLRZgTDZyZOuP+WsonxIG+qTZpSA7Y9S+bUvcvIzH+Xg7W+m9I2vZsdrX83OW1/D9ve/gR0feRs1X/4MPHY/tNRaTdEYyOz7ROOEbZIyPQTdbYzs3maOy5MPwxMP2fS7B2EqaeuDsO0herb/lr4TR6DD1iFb1YVs/wwkrVRcSc5DjzD47X/k+Huu4cnolezKv4TdkZXsL7yEQ5vWmKTQnkeL13AgnMuBvGXsX7+Y0g25HLz+pZz561vg4f+BXn2cqcaqpZJ6eshJD0ez7k1vV+sWFO/Ik7Z6OjrGtv/l0de+gANXL+JUcSbVm1dSGs5l601/yPGPvYnaf/kwZX/zLn7x+i2c+c9/g85GBqWK6ae3/4/u4snCSzkcSaNuUzanNy9n+4ZF7H/Ny2j46K00fe7DPPXBt3P3jUV0/fj7BlhOHOCpG9ZxOnoZDbFLOJ23kr2vWsv+t74OWjpNhVVrpMfYKG1LTnU41U/36ZK7X23rTymKJ9Whzr3MnSQ5T9pLq911uFzLzv2T2imjjj6K4vUQSEImauGX36biQ9ezreRSdkWXmrS/eBX7C1dyIL6Kgyat4KmNmeyK6iPUa9l2wx/T8IW/gSM7LWRDUjd1NfZn3u+uwrj7cSuT8iENV9SnS/qq4d4vc/KO1/C72PPYteESDm5cxdHoao4XXM6Jjb/H0fVXsj+Sy15FtIxcxhOxF7HzQ7dZCTyowOxjZePs4eaqasr51bWvYFfBFWzbuGY07ci/lKmk7fmreWTdEn6afxmHP/txaKyTKundiUx7Exiixu5dl+E1itUm7W0x355p+86d7HxrPr/dsIzy+CoawktoyVtIY/5iE/3+VHwJ5YVLqIgvoTK8iOqNC6lbl0Ni3SIa1y+itiCXveFlPFR4KU/evgX23m8/M9HdbUH0GQr7h6x08q7EFJbZSA/OQTvQBl3HKH1PPqWxbGqvXszhcBpPxFfR/YU/h6pt0HIMOhT4uxH2lcH+vdaKrDZLdyNU7mT7db9P3aZcmosXcLp4MY8Xrob/+oT9UHTdMWipg+YEHD4MR45Yy/SJMnZd/wpq4ms5k5dLVcFaaraso+yNr4fmDkYGZE1V54JsldboYR5uUoVyZa51/uQHVtNaNzk4SQdPnnUnS86Ttkte7eaTNkua1RXKfjxkrMfmgjs7eerOv+HnBWs4tmkVVbFcaqPLqIznmk+PHIgvZW9sKWWxXA7El3Aipg+OZdAUWUB1fCWPrF/Go2/YAI/8EAbV3uzx3gausDx7gSssXWhyOUmTak9A1WH23fE6tsauYP/GXGoiK2gK59IYXs6Z+KVUxJ/LkVddzsmNl1NbuJLm4hXUvGIRB666lO23bIGmM/a5e9qgGgO2dewVw4m9HL7hpbQXLKcxfyG1eTnUh5fQEFlKQ8ESGiNKS2kKL0udIktoLVzKkaI1VH3yfdDeBH16UemmVIN6CI2+2r0noqyr3951r6TQkCSRdP4z8Pj/Y9cbXsbWyDL2R5dwvHAhFdEFtG1aTV3eCiquWs3hdavZFV7JtoLl7IwsZ3f+cna+fAEH1+VypmAtjcWXUx1dRGU4i7qiVZStW8ZDG9bQcdffgdTtDoUGtdpQW/8IXR6beh5idEgX79pKWmAsFI2MPPKfPLohh4aCRbQXraE071Lqv/RxaD0DPY2gqP0ybgz0et09fV6EB3X/VNH8nU9RGltMonAh9fHlbIuupf5bd9r9e/XNmi4vJrDXTtEbf7jLvGzK77iVsoIXciz/ckpfdTk/+5M/pPc/vwNtXYz0qzNJ8RP1NQHvJvzW9RTS1Q9tqmn7dLxK8ozLLLR6WpoyD62ljl/cdg3br7uU4yVL2fuK5RwKP59dm17MwbeGOfC+Era/O8LDb3olD9/4Qn6bv5Bj0Vw6IqvpCK+kIr6Y3cXL2Hr9i+DX/wP9LWN3bUBVG3DY1WkrZzyeTWXv7oWOVvjNPZS+IU550Yupy7uUqnVLaYiv4cC6XErzn8P+G+IcfNNNlL35OnbeHGFnyQvZuWENu196CXtjf8RT734N1ByDni7bXh0RrsN0dosRc7dQto3S2PNpjaygIi+DuqtXcGBDNgc25HAoL4MjGzM4vmEhJ9Yt4eSGpSnSYmoiS3niqsVUfup90FBp28KmR6LbGMZSQutKxHR9jLQZ1XPwR1/k4ehKThYuJVGynPZrLuH05hWURhazLXopO7f8EY1//ib45ufgV9+E+78O930dfvl1+P7nGfrchyh/z43svO5l7ChczZHYMpojS2nesJjjr1jM1g1r2XH7n0JtBfQM0dcmGq1ksrA6aL1a7gCQ6tBWTuW/v589G7Jp3ZBFw7oVlMZfAqePWJP5UJ+Rdj3m7T/MsPpmFUBf5TzQCS1HeeL2Yg4XLqA5nsWJjUsovXk9JE5bi6HpvjH2bVMHrcQUOj3WGHVwFxV//efsev1mSt9yM/3/812oS0CHrKBy21BnwpB9wRidcUwN1lFSJfcMzrXObfPMynXF5onZG9Pz6Wzkkb9+M7/cvIYd117JqXe9Fu76F9j2azi1C9qOQmI/1OyCE4/Cg9+g8YM3UXbVZVSuv4T6wiVUFy3kwMZF7HrdOqjY6/VAeKeScUtfQ7CCyL4cTbmqudVnhcEjP+WxLS+l9to/JBG5nObo5RzOX03ZNS9m4PMfhAd/CPv2wJnT1pB6+iDsfgh+czd9d36Ex9/4au551+utVtarSJfWYKo2fJ8EgX4SKDsf46m859AaXs7JcA4nb7icE29bz8F3Rjh8Wz5Hbsvn2DvjHH9HESduKz4rlb+zmONvjfH4Gwo4/tU7YViCU5J20AarH5F6nFwrjJWuh0F1zWhldy3D/+9TbL/2Uo4ULeV0fhYtkcVUrF/Mnthz+O1NG6j5zhdg71arenZ3mIdEVwN0NkBHgzXrS8zXnoaT+6n6+md4+KaXcyy2is6iVSQiK6mJXkZp/mr23FoCVSdshe/uZNiY0b2Pq3vtO/NSM29YQSe15xQP/VkJh4tyqX5liDPrc0m890ZrkRzoMg9OKqqiBas14qA1xkhpEyd2cP/rX8H2q0Lm269H8pcwcOd7oavW+8iUKqHtuBHn9tR6y3qm/U5JcKC6ERJtkFCc4UHobTcmextATY4DztBmi/assk9+FlOdfwZRq0t2j8bc36DKqJdvv/dN3HvbtfDAd62VVhpVn7SeDtAzcl1nsv7310P1Pka+92/8tvgllMdWU7M+h8qXZ1MavoKWb/4LtEv7kfuZ1BavC9JpXp7QMw9loAn238evr/sD9ocvoSa8igppgQWrOfDB18JB9dtXWQNTV6u1EKsOd7dZy7E+x9JSA3WVJA6X2eXmnmxNGHPY9Ori47+mdMOldIRzqQgvY9/NfwiJvdBZAV3Vtk711FnreV+97U0ZlzdBh3pgGrzmmzhUq1kVzMKbAlp9ilEb9lgL8YPf57GSSzi9ZTHVxYto2LSSoxuWURp9Hs3/8H44vtta1VQP1Teb4jfc28eIlzAF0gjHn+D4X1zDjo1LOB3JpWbDAtqLV/LUVUs4+qG32oIcEbRef5200hH7Bbpx0MqMXrGHB95awLEtl9AYW8jJ/OV0fuxWaKkwXTjDI1JRLbT9Umk8SWug7euE7Q/w4E0v4/jVyzgTT+dQNBe+/Qlo15fijP5tKXMQeR62tnvDu2Fv3ZA8sYb66FHl0ytiRJZU2Rf1plQFVvtLb2lVNpeSIFZ9OFdy1+HPU5T7xVikS3IlZs4v409XO1VbfwutNdbZxag49up0m1I++jzPVAO6+vfV911/ipF7vs7WjatpLb6MRN4SzpQ8jweuz4Nj+6BXXxhUWaqvf9h4t5pD6yLU7zooT7hyHn37OrbHl1BVsIzy9YvZFl9Ly79+AJqOmU+jDPT30Nprm2WjYlovn6FeBvraGexpY2Sgm+HhATo62zwfBdtnLIObVSlkI+qHh39F2cY1dEVyqchbzq7XvsJqEgMJC6FiUY8o1J0YEy/JSSViq4ZefvYRW2cQ95I/G1pVJKPKtcCB3/LQ1S9iX3gRtYULqC5eyMGilTxY9CJG/u9r0F5tvwejwNhGhOtN0G/7wPSwVHCqpOoTM31jA4wM9zKoTmtaoPU4VV+8g91Xr+X4xhB1eSFqwgvZteEK+v7jM9BXScdAvT2G0bik7ngWZlepBW3VIe7/0w0cLFlORUEm+/IW0/+52+0Hmwc7jB1T5nhrHhnb33TRymtqz+945Lo/4WDRAk4WpbMnvhS+/2noq4WRXkb0Jjed77ZoTJ3w/HWsp4parUqS5/LFttO2+0PAWqufzTXtVWvjoJIEcfL9ufv05/ZJuic6WmcsBk/D/1Tn95Yp06NSMj+9oFQXJJ2UhqyPtspeq4xYdvemnTWtnVVERouqofIDN3IospyGklz2rc/m5xsvh/vvBrUlDbS26SL4Tclq/84OaCyn5b8/yRObV1BRspCmzSt5cv1ymv7909BUa6W7bBXG00gGT+/E5nmPOToMjfQzPKx63WuaO6rj1g1SzR6dUe1p6ebQde8PKNt4KYmrFlCxfilH3hqGriNAo3WBNS9xWdd1DPW+jk9Wn3PvAVeaqiNeWQ2RQj1WpdEWLacpv+M1HCq8lNrIEhriSzhaksvDW66EX37XvjHppa+zCXRDxmFCN6qHo/abEY2jHcwjQ4MmEn7fSB8ddNKLwO3//+2dd3zfVfX/A13ZSZM2XUhBRPkhMtpmfz6frC6GQkFEhgoKioITBRS/KF8U8auICE7ExRIFBb8MoXQ3TZrZpGlWk2bvpNl7PH+P173vd/ppmtL6Bf36x/eTxzv3Pe8495xzzz33nHOhv4G2Bz5FQXoUXWuD6fEuoMW3lJwPXgD7X7PqebPY7HBPEY9TRdPB0qzVHeCNq+IoTAujMmUuuckh9P/wVhioZXJKBuHWslTgMYosB0kM0cpcMXcnuzZ+gP1pgVRknEp2aijaF5axZrNYI8Bazn000aqzpRseZohBBhk2BuhSOWkG68YR1ggrripO7h66dlDMzFXUKe4hRucypyMM5qiR122/m1ry+Nf9d8udLT2CW6abTKWc95S4NKnUHxHNAxdXnf7R+wx3MfXb+8j2RVLtnUvThoVsS46B539m18llwOCghMMKbb4D/VC2m50fOpey9DCqPKdSnhFJ/vUJ0HKIqdY2K5qbMqU0c3XAIhtn8JFjiviNIWuVI+WlJCfLlO1/DURjdpSdgI7f/Yri+KV0xwZTtSqEhts2wlClHaQkvU6JiWuUnv2YhpdgYLiaSrcNNCgyORvRiuB6uuDvfyI75Qz61q6gddU8mlKjeT1lEWPP/cCqvU3uylCNHGHKiH7+XPIIFxUOSiEtXqQqW/Y6gQiZsXForGL39RmUJoXQkXQqDZ4FZEr79r0v2Im/5j7iAYYXOsB1EMGow2sOsOXKOPLTwihNm0umL4TDP7oVhmsZox+pocTbRLTa4NkgiMNTjCZw706y11uiLV13KrszQuGP98F4s/H9OYpoJeEanaFDZM5yTp8zvqpDpr2QJmXaJqKVSCSCFaPSoXM/wnXQwqKH8lUnuYeGJAebZ0tNP/j90zv/7N9s9fC/51RX4p0wRKkhUvPfZWaOJCbO6QwUrkWyS9D6zuw2v+VxtmdEUZs6j5rkU8hLXwy/v98u/+gdPyJXNYZ6R2FwgIHvfIGqtStpzoihNCWCl3wRsPWXZqCY0GBjNBxDhoAM2Ayh6K7YrnDT8lZNoyQfWd2EVSyKNQ8Z2WqMCYnzsgYcgdof/5DS+KX0a5PuC4Po+4+PQW8NU+MDVuh0gWEGH3d65JeqDnrHNF61spVymmhmVNb22NTY6WlpwjoPsfumjVSvPZ3mVQtoumgBe1eFUnP/J6GrDAZ7GRcXcvaQEWeaEpIpZ/WSy/KckvyJ1jR20qrsR6RI0IDTNwC7XmO7ZwnVifOpT55LpW8huZeuhj1vonnwxKQr3qqzR2Fc8xnNl/qhqpidl8eyzxdKRcpc9ngC6XvoZug/aL16Jvocu1It28jcUkDW9yN2sT3rTbLT3kt5ejDl6QFkpwXBM9+EkToY77EaZnkLyTNIpnWGW4oYrYxn1VtWHW8VKlKyyPZaHFtEqG/EZfWOxDEdVgd9BK2twsYssWlTrTEZAXTB0GEY1KEd8rqtcku2upobCQ5maUWE4EfcLtGqX91DfSECkYg6OmRN84a1xaXK6DIOEMZcT2aZEkuNdtR+rk+nUcTN7y1T+7bwziVac8cwIt0R7BzFnPOCngsiA5r9T00YfDJ4O94J237B1vXRHPTM52DcHPLXLaX/F3fBRKdFagfJrZDsSHkVJexd+/9oSFrIofhQclIXUfrdj0H/ASYP1xkkHZWtsSFZhzQcPaEUlsYk0WmAoCwWa+UnkbOeTzBk9CRjjKkvJA0OD1Px3XsoiVtMf3IkxRcGMfng7VYxa0Fi4ahzwcIhSLe7zEPTT84jB+66JTC5/XCUw4AB0kgn/PUhtvgiOJQWQUNiMJWx4WzxrYTSraAlIBGMgb0m+yIiZ/RyGjnNKdx66b4zcKjBQ0Y8HrT1FoHrN9xC/bc/ya7YMNq8C2m8KIiq+NPgB98wCoWJKbnO6eUJ6K61I5ZMIWXwUJLF3stWU5EYRpN3AflxAfBfH4emPGithP5mR2vXBMOt1rB/oMciq9afNz9Dju9dxqCiPuUUipPnwB/utN9rnbenyWoQpUXsa7dmnC4iixDEFDSCjkhbXgODB2Gixdoxm4ZLvNacSEAQ4GB4Qt5BMgR3elMdrxG4uxKaMmH/S/D6E/DMw/D49+APD8MLv4DXnoSqPGsOKK3jaIcZ4+WXYrIynagSNOJLq6o+GmOqtwd6+6xtuNYad/8V/vQjePI78PQD8NJPYddfoCjTejf19VojeQdhVGtTU4NwzsWJzk1LnX9610VIdaMOUYPlO+aZqm56WPWVyKmfbJQLn2TnxmgqPVEcTI5hS8py+OuPgS4GZKPs4JkhNDHEoS46f/tjdsRG0eyLpDR2Lns++G6jRWaqm9HRUau0cohUbXOgbxiHYYBGJpR8ppHVOp+a9rttMH7TMta0hjOG2Q63UXHfZ9mXsJDDviiKLgyCH9xh4W673VTVEo9tuJUenYHVAZV/MoOETB8ESCM2ISWSHY9hqInme6+iND2YQ8nz6Ny4lL2rI+l98PMwWM/YRK8Va1UJ9xC0/Y+Znen3TGOC5n9DAo/bS6rKeAfs+hPbMt5NV/pp9K8Jp+mCSOquyzDrclMT/QxrTsEQe390Nzu/eDWFd91C5V230PbVGziw8X3UxQfSnx5KWVwADdecTdPXrqb2m7dQdefHqLrzBsrv/hgHvn4jJXffQvHXP8O+b9xCxV0fp/amdEpTYmjzLaAnfS4t64Jov/F8ar9xHQfu/TQlX7uesjuuo+wrN5D19VunpweGWY5NcPiNF9l116cpufczZH39Y2z70W1WzT/aY5VoQsDJcUM/4m/DE/3GNndEShCN4Fpe62th8MUnKPzGDbzy0Q+w+fIz2ZG2nD0JiylMXGaOvZ5lbE09nc2bYim855M0P/tDaC82XjMaCQxGCNfFSA331+gtJUm/tRHP/DsV3/0Kb26KZee6M9njjaQgJZycpCBzvl2a2Q3nUfKVTzD6wu+go8ZKKNOsxenYmf17stfCQOGMS7Cmrg7uTPP9KabUzyaYwST01MHfHmS7N4QDsRFUpZ/JK+lnQvFrxlNo0niNWSYi8jIKzp5qyu66gZzYMJpTIjjgDafwlhToqmBwYpgRgcdVuTjVsZhleYgB5JTmucPGjk1KRqsldurq1FvzYInSA2qQ7OiHGii+8xr2JUXQlhJJQVwo/OJbxnHEVM1UU4zb8QAyY7Zmt7br/Il15rkLYt0PEOUMaj1Rn0rz27CfnZe+m6aMCFq9wVQnR7A79QzY+zeg1xDc2NSE3XVCEo470DpTEzM9mVGiGYid5xYUcj6Wq57TicK20S4zyuR+LIU6TwyDiZG0rolgR8Jyhjb/Eca6GZNoO9zNruvXku87g0LvSvLiF1GavJDG1HBa4gPoSAqg2RdAtWcOpckR7L1gAcWx8yldPZ/KC0IpuzCC/LhwshIiyEqIIiduIQUXLaAzI4rDcQEcjg+ga90cqtPmUegJZ9eqBRT7QijxyDQyyqwbGiN2jZrq/cFBph5/lNcufBe5SaexOXkZv7/8QjiYacVZwWLSqMAMNxdySPwbldZanS0Typd+Q+VNG8jxnE5+bCQV6YuoSo2gLimUxrgQmuNDaUwK45A3jIqUhZSkLiMn/V28mraMiRd+ZOymRQ/TBKEBrLePka5eGBiC0mJq7rqFN5MXU7Yhhoq0SGpSQ2lJnU9n2ly60ufRlh5IrRQ2aVEUx4eS7VlK7Zc/CsU7QGuVpvZWiWLGXBeLTir1m7MZnYKmUo7oZTQEdp4r8dNaLDvjngiyuYLme64nPyGc6sQI0/ai2y6Dw2UwoWmWRG1LtNJdMNUGNbvYcdk5HIgPpHzVHPLTltP3U0lsvQyOSvQ/8pnLPyQBmv4QDWja5yg8lbU72tl2O2tTplhpO8YZNAqqfrNakXXLBsMkGn3B7PGGwwsP2yAMKtPNyE2V+fTPH0YzJBm94wdnQ7RGW6a7EjVy3mBzfAStvhD6M6I4lLaEnI96oa/OiH+9UwrRMcG4QrU4h5rrf7h1clP/ZyJaqYVM5+iBGqOf5m6tFXT9+C5KE6IZSAqn27OQHO9SGn/7PRjpsPPR3k72XreBUu+Z1K99D03pp9GUEkld3Cn0eOfRmzKP7vVhHIw/lXpfNAcTQ6lPC6Y5JZjDidF0JcVQlxpNVXo0h9KWUpO6jGrvQtrTIxnyzKE/MYC6xABqUgM5EBdEyyUrOJAUYI6y+GC2ppwFRTkgly4zp+6Fxx7kYOIZNMQvpDwXjcu1AAAgAElEQVR1Ca9fsQbK9kB/DyNy+XJiIriqJ9N7xv+2jYqH7uHVNUs4lLyUltiFtKyJoCl1BZXeJeyLiyBnVTDb3n8qu1cHkeeN4kDaUmrTllPpjeGN806x68makwrY06OYLuQW3A2Z29m+KYOitPdQkxhIi2cONSnBVMi+NSWMA75Q8tbMoTBuHvuTFlAl89LYANo9Qez3xpB7rQe2/xkGmoyUYxf5RXBHI9JbXU+Jsx+FsbbjtXatZRahvpQ8VusuglXmijjSDhXZ7L3s/VSlxtCy8TS2xi9k+MnvW6eV4U6mNO1w6mKWX8Zb4O8/IzdjCYcSFhgl1PbUs2Dn32C4nymtamhAlmbULEXJukleRO0w3AwyfJAuwegN7PAvPmNbILj6ydRG5+xYRMmRpvMQOz7qpdIXRa03mF1pi+CNx61OxPaIBYOL9y4M3QaYOb8jcrjPlOrndx0gmc12xBh0t1H/s++RmbiQnrRw+lMjKIiPZPiXD8DhRqaGD0+7Ibl+hLOlqtPsh1V2TwsEgoFe1E9AUpSIzc9R5FnKgDeC3pQwsuOD2SXLlb4Guxbc203WnZ/jjY2xFH/YS9kHL6LlivOo8Syk2xdJf/pi6nyLKU9fycFNq9m57t1kXmWPvA+9n4LLzmfvh95vjrzLzqfw0vMov/I8ytOX0JMSTq9H04IIqja+m8pNqyi+ehVZHzmL7R9eyfYrz+XFa3xQsg96JdbKe6URfnE/RbFRNKWEUuoNZeslWq7Khv5+GBEvP2ICafpAVlijHdR/41PkJa+kzreS+jVRdIlwU88i03Me+278MIfu/xKtv76frmd+SPvvvkfVd75EwSc/yG7vGRSnn8FuzxLGfiabbYnhR4h2SmF0JBJv+2+2b7iI/KQlxrWwKzWa0jWB7EpZQvb1yXQ9fA+jT/6M3scfMucHbt3I1sRwquMCaNW6+dpI8lKXsEVM6FCOkbQkEJpO80Mif4Sa7XxSyi918cgIo8cY4FgNu+awE2PDjEs5aH5jUJlL6WcupTBjMQd8IRzIWEbBdclQlWv9pkf6mDI24BapzTrrSDN93/sU2RcE0OwJoiZ9GXuuSoWqMquLGZbSSJreIeuxU1UImS/Crmdg928g83fQmAPj7VbnISs6LVdqei2xVj9dmCZZBJ4yijsFXigi+yOpVCbHUJu8kMy1K2Hns9BRay24+rqsX65kc+HF8ADDQ70MTw4xrKUkY8ugPC2NmpNZzgOEeBr7DGc73Er1A3eSkxxJpy+Iw94Q8j1L4KWnoL8XRrVGdYQ/unxyZjqTYFUNe6gs58pv6cUqsmQ7Ogj797Av/Qz6fGF0eedSkLSAXTdnQFu5BfrAINRXQ0MllGTD/h3w2uNUXXo29cmhdKYuonhNNPzHLbB/O9TlQmsmtOyG+r1QkwvVOXBwL5RnGRdDXvoxBRtPp94bRPWFARxIWAwPfRX274SaHKjZAvU6MqH5gBlBjQmdRC0pwn5+H3lrImnwBlOaGMKO9R+Agkxrijkk6xeJfZZwjaHJWAf599xozDY7E6NoXBNJc9qZFCSdQf0tV8O2rVBd45j2KRKGzN26rCTU0WCkobZv38bza8+n4WcPWAQUEbmAluhdsofdV8RSkbKcBo9E7TCyzw+lQlLTm09D+0FokKN+PyaAgZSL8mTa8jtKrnovuasCqEqYQ40vgsy4xRTffrVVfhmM0lTKwaaTTfWdO3fSqCRrpTFp9aVRV2QIx6RRnjhyHNm/m+JPXczOpMUUrV1MVtoidnzwfMh6BXrbHE8bEZFfXQSAwRbavnI5B1bNod0bRrlvGQU3XwutrVB7yBJqcyn1v3qAvV/8KH+/fA3bN7yXPetPJ3v9EnZtXMa2D3+AvK9eTcezj1g7Z9XTD7zTRKuRUfoKEaEib5Tks+eDCRyID6d17WL2X3wGww98Gv70E0Ze+CUjf/mFSQee+TkTLz8L+VuhpshOP2T265Sjso5PQ5rTmpAoUpT0GoOJojtuIj8tigbvqTQlzycvY6UVB2Vn5uSk5R07C5nt/zRZTuOQf79O97azXGLmDupMF+na6ym8+BzakxbQlBhASeo8tl2zGmryQYbamkfK+qTnMHR0WBPKqkz2XnMBFWuDaV4Xyr6EGHjoHush0SFf3W67pifFkBQ/owqJo6UBmWo2Q87zbFu3hNqLA2ndGMye1eHwm4egqxUOO8sho8qjx3o9GYWY6Uc7//nFg2SvWUZLYgxVsYvYtfZCKJQWtp+p4VGzJDBmlgRktNLF2BP/yVbNU71BtMXNodkTxc74FQz8+jG7/KWlMEXRMEtMWmZSPTVn6ofBITCa4B7jHtiZm2eIVWzXGc+g7QD77rqGXYmhtK2NpmfdUnLXRFFzx81QUQId0nJrtFc5jhuVJIduaZhboWYP26+LoyguxGhBaxOj2Rx3mjHRo1feUn6E4t+5b3XuEuxwP/Q3Wmu13lroqYWOaijPg+0vw/OPU/eFK9iSuJCyjcsoXhvD64nRvLEpHna8Cm1iYKOW/rVsJIs7l1kp7WvjwLVJ1CSE0+FbSGHCUg5946vQ2GzsAdj6R95Yv5K9KRGUboihJDWCSl8EdSmRxmW0NinU6C/2ZSwiN2MlWy6+gMk//Rq6OxjuVBQJP4oyc18R7RT0D0HOHramn0uJbx7N607lUEYoh9bFUBgbYo59sYEUxAWy48I57I4LJ9f7LvauO4/Wu2+Bl34LLSUw1Gz0B3amY4xfTb+qXNtMhZuZlHCscBg90NNOzi1Xsj8jmvpkze3mkrvxbBt+Q7noK2HH5NFEq6sjhzV+8O8/B72PJOahMtNs3pn0O8u8ioSRf/n5NCTNoy4pgPKMBWy97Bwo3WOUPkbz6OYkpFOkxUMFbLs2ljzPqdSkzqMgMYbBB++E9karUHDfV6qyHT2I6Xm57RW/wpaLl3Nw/TwOpc1Bjsj84VETgmSi3xGJnDwEPM3IJ9RhutA68eMPkRd/Op3JK6hNWEbmxtVWChCxjU8wODLI+OCA8a+lvorc9e+hITmI9rgAmhIXsFfSzBMPQlMTDIihSNnhxJlVGcNjjPQOMD4k4DttcHpxamTSMHpLsFKoNsJrj7F1Qwx1GzSCh3HAE8OhWy+H9lrL8MamjIToNInxsUlraaru0IihNeKsvxoPmJbEKDqSIilJXkHJF2+2zhBa4/bv4BOcT0h8dOrdmp/J5i9cQ+FnNrLv0xvZf8tGcq/1krUpjh0bzmd3ykqKE4Ko8gaSHz+Pwg+9h+HHvg4lmZaJjtkFGdNes9brEK3goZu9rexdfw4tyVG0exZSEL+E5vvvMhLR+O9+xOaLz6PIs4jmDUso9ASy1xtEXmo4hVoaSooy+o3atWHUpslFc6HRr+xMfS+1D9yNYVi9MmV0pQwt40ncnoLeftizjdeSz2R/RiiVvgDKk+ZyKCGITm8EPZ4wM/Xq8QbS5ZtPp3cBhxNDaI2PojppJXu87yHrpnV0PfewXZacHDDzfZcZi1oksYmMA2QgMCbCkYF23UF2X7+BytQo2pNPpT5+DmXXrLJrk+oYVXYG0RpinZKlkT2MkYWLDU5HHdvBykxQVmbS1kkN7QBioIPqW9dxKDWIulQRbRC7Lz4XirNhwAWYRmZHGSLCqC9l+4cTKE+NoMEbRGHiIkYf+ToMtBql+nR1XOSyELB5SOwseJHtl66kzDOfOl8Iu+Nj4KlHzahslnWcqukzaw2l/450oPXeX32forildHgXUZUcxfbLLrBMZmzALI+Z9UMpnjpbaf3m59mfuIgeTyiDSSEUrQmn6r7bHeN2GwxueuQQTHS49Z1uiP/JhFH6j/epD4U8jVR+0UdJ6qk0ehdQ6VvEq2vPhepcmOowdjyaoblZK3UVimOSuhyDGfrr6fvu58ldtZCOlChqk6PI3bjK+IsaKzIXlieRTk1M4hJux87XeC3tDONmJ1e7koQQypLDKE0O40BSKAeSAin3nkLrR06HR26H4tet14/RYMtvdYKxiXHj9GENbPz8lKVkytnG3tQz6PJE0Z4YTlFCFPz6XtjzZzI976IseSVF8e8hM/l97PlYCge/fzNNv7mTyh9/juK7r6HoM2n83beAXE8A9Qnz6EuXMjOEHd7lNDz8LTsdkjunVj+mhpg0or7cD3vhzb/wsu895KadTkFSNLlxUeTFRlMYu4jiuEXsj19MWVwE1bFzOZwWwuC6cA4nBdFyQTBNaxZx0LeCNxKXUfeft0NzOYqpLYMTdb+hIUMvJnLFJGPSosnLoa6SPdetoyolim7PPBoT5lqiVXRB9a50BMchWkWkc49jidQp1O1g84I4gDKUZY8A72jNBtqp+uxaqtJDqM+YQ3l6CLs3fgCKc2BAXE15KSON7tLSD0N9OTuvTDZau0ZPiCXan9xt5jcmbo/baLd8o87XsDJh54oFL7LjkjOoSAqm3hPJrvgl8PSjRjmm4o6lGZuR/hsrpV88QPGaRbR7I6hIDmPLZedB2S4TpnV8YoxBzdkUV6s0h7zLYqlKjKAzMZC2hDAqN622nlKa9U6OMKr11aPm+36wc08dUEnjapSIqshhBSoYgsLtZF+8iEOJAXR5Qtm7ZhFV//V16Kqjf1yGGEI3O8d2lYjyfJo+jPuiOnsYXnuanUmn0eALo9ETTGHyUnjqEdtmF5YnkY5IzHf6oOpvf2THxnM45Is2R1VyJAeTIqhIDOegJ5JKbxgHvHM4eFkMdTcmUXXHtUz+/Slo3g8jDTCm2NWy2pKNu4x8HIavjpIFWs4b7E2V1BNBS3wI5UkR8MitlN2UTIHvNLJjT+fQjdfB9i1G2ytfavrLrUFM/yHoK4eXv0/hjRdywLuQlqRQalcH0LAhitc8y5n402Mw3GZ1QFODTIwPYhRtA72Qt4WCuz9F3T2fpvu+25lQEIbHH2Dy4XumD370NXq/tomKa85jpyeM/IRgmuLDORwfTtPq+RzyLmKn73Ty7/i4ndZpzqzuMEioExMjaoJxrTlKLKo9SOZ16zioMBteS7QVH1kFvYr84BCsUj/x2B1pXYI14SRndqQKdDFfz44hWlXMkY8H2qm5NYPatBAa0+ZSlh7B9ksuhBJZAbkjrTL73yTaaRw8hmgrk8PYetm5ULrTqPrHFAhPv+EOJp55jDcTllOdEkF14lwTcoef3QVy25L3k7HiVtscePnDzSVYpc4gb2c86ki3b8Yof/heXr9wDs0J8+hcE0l2/Eqr8JgcZMBx1hbhCsfdY3RqCvcQG9V9E6mjeDe5l19kJJDG1Lnkrp5D1703wmDHPyQej0ljqyaNT9CUtYP/vv5isq9KYu+VSeRtSqLgQ4nsXb+Knd5z2R63guK0JZSmhRv/7QNpUeyMDSfr0vcz/PNvQUu5VciNDhujoJFJq0Mx+DXeD7mvkJl2Gq3eSJoSgqlNCKbno++n8OJ384Lv3XT99AHrAaQ5aKd8vbVeLqSUXmfYThO7D0H5LvKvzWC/bwW1vjm0pgdQlngK+26IhZYy460mJdrk2ACDimRhflJMNkBvC/S0WIWZbJwVQE6pOW+DroMm/NHknhcp+85nyN14OhXJC2hKmU9TRhj7UxazZd37qJc3UluTHShVRYeGzDrthLRfCocqor1+HZXp0XR659GSMI+qq1fB4VZLtIZghTQiVft3QqJ1Ec9Nj0e0UlRotO1vo/7TqTR4A2lKmUdpehRvXLYaSguszbBRWglR/12I9jD4jbSVyaFsv1Rz8B3GuXt0Un68o8a3t/KeT7ErIYqajDBjKrnvqnPgwOs2pI1Dd07v2w46CmZH6GRaklEvSn5Xvwiu3W3suO0jFHgW0akYRLHRNFyZAIcP2hhcRhEn524p1/yOoU4bgUOp7kuy6m8xyzzVNyRR6ZtPnSeAfatPoeWrV9n1U5V3MoerZFTDxJh7u6G52nhmUXsAag5AW53t3y2vwp9+Q93dN5F3zWp2pUZQ7Aui0RNGoy+GnMQVNH7tRmg9aOyxJyeGGRTDUd6ClUIK5fw3O1OWm2+aEhbQGL+Amvhg3lwVwaGHvm5trIcGGWjvsvWZBrhzYubJI3ZKWFVI5odWUZEaTHfGqXQkB5CTGk33y0+aNV9NKafGBhgaU9g+g9hOJuoX6WochjqzDIFCDEbCrwLn5zzH7ktPp8gTSHXyfOrSoihKWc7mtHMhZwf0Sxo1KG+yDbBX+n4EOlvYcW2GIZQ271xa4+eRm7ISGg4dGWkFn38G0aphMlZoO0TRh95Ha/J8c1SuX8HWa9ONO5VCt1hrFZmBaWYm9wvFHS5j+6YkKrwLaUgOpiAhiuFH7jT2xlIamZ9LACZ1gPo/Fo9tlqabZMzvR7SKrbzzkvfCgW3G6VkjwbBEzcF6cm9KoVwBBdIDyU+ZT+ZNCdBTZghlZErEbY3mrfTvMDExMgcfXBoxpZsL+2x8RG2cNOuam6/xkrcqnNrz51J14VxGPpkEWc/Cjich70+Q9xxkPwPZzx45sp6B6eNZyPkT7Pg9bP4lPddeQGPKAho9cziYFMnBmy+xa6RuZU4mFeGaQ8O4pmKONlxukVpPlkZZsYWlV1EqMbejju5nH2T7R97PPl8EnWuXUB0bzp41i9j3uSuhrtgsifWOyovZ8i6z3UvOa+zwLaVJPuCJc2lKnE91XAg1N6ZDU6XRU8g3dtyYEoqwNDVzDuGDM00x0zYFUXjhJxxYt8IYGvWmhZObsJBcRWWUNl/r4+Pay8n4gRkp1vSdRY+3+C+gqSwtdclqrRny/k7xVbFUeWJo8ETSnLKYkoRltNzxSSsFC2+dGcERopVXSkcTRZ+9ikJfGC3eU2mPn0de8mmQm22HaCfgmwSSkx5pVT+XYNwONjeEaO6c1hEhhaDVxRRuWElX4lyz7FOSupTsz11txQ6JMrKAMVYwDtHKKMMQbeI7RLQRzpz2J8eZ09pGSBFl9OQi2l/aOW2bN9wERN99yXvs+u/YECOTU4zIw+dwObkfvYDa1BAaUk4hJ2UBOXdusgHcx/qNsljIZwZNwUuwcA8V6TewGSr2m/dOmCWYYSjezOYPvp+ShEgO+xbS5AmkNi3ShrdNl4ZyIYUblrA3I5psvyMrPQode9KjyEyPJmv9MrJSFlGZtoRaTzhd6SG0p4RQ71tO3a1XWc8oty9PJnWJVu+ac0d9bzDcZiB4Wt2oRTUzZ+1vgJLXyLtuDQWJ4bQkRdCRvowc32l0PPQ1E1hvaHTUKNvNoCbmlfWmWdttSZhLa2IA9Unz2Z+8GJ55BPq6nFneJDLF1eBjJBXpOHQY9eIk8vk27FPz5/ocirSakRhFpzeakqQYcj5xsVF+mvXkSRPAyAwN6i41761AYvtRuK9DS2fO0dcBrz5FTvrZVMSH0+6JoDE+ksoPJ6IVB0syk0xMTlrbY7m9mXg9HU203ncbud4Q6pMCaI+dS17Ccg4/90dbxqg1XRRneUuitThm/89sgWmSuIzQ049oHauZidzt5KbE0Js4x2jW8hOjKZd2VUszI4eZkubOGJTL9E0maQNQV8r2TQlUeCPNUkphYjSjMxVRLuMw6VuNtCLaGHj6EZO3M4Y5g53BOkOuYlxmNiUTwl9+l6LYaFp9YRxMDmb3JWc5RDtsiHZULnmNuWRfdjotvrm0eQLITJjDwYe/aD2DZAUkkKj/put5LNHaR7YO5kV9o2VWdbzW2XOe59W0JZSlhNKRFkTv+mCqLgygLXkpdXFLqPMsom3DUpoywmnOCJ0+GtMVSiiEhvQQ6tJCqMuIoGV9DM2+aNp8C2mTiJoURE3CUmo+tckSrX8fzzyf2ecu0Zr3XHZnNfC60p+L6jozMDeAUGDxVih+k4JPpNCyYSWDqZq6RbInfSUU7jA5Cn2N0luiSmYme+Ki6YoLoCMhgGpfIFkfugAOFcPAgAGzQT3XAcoxJRY2Cr5Kexmje6qXiQm5LjbS+NVryTk/jOb4xVRLbP3Qe6HoRRvfyXFs0LfqDhdfprvRb8zSPWteJNNW4bHzkT5UDLWBekruvp7dcQrtGm6MQ/YkL4GsN5yIMPpOSz7yDTRauBEzJzr8029TsDaKmoQA2uPnGEOFxh894Cz2jzI6Om6Vm1PijO68Vss9FuEMrI/XiUfdV401tghhZdIl5fY4o5ufIys+mO74ALoTg8lcFU79T+61mrSBNsYVGV6RIKakF9aaZr+ZH22/Mt6E3dT659sn2sXw9I+NIsntBItYQjTLsly2heaBv/oO+2KjaPWFUukJYpcf0Urin5JYX5nJnvUxtHsD6EoMIGv1KXT89n7HzvWIEbvpedPjDtEKsA5Km9su0xOhOkRrNORT3bD7D7yUGMTB9PnUxAbQtyGYBm8IFYkr2J/0brLjF5OdGMWeNYFkrZk/fWSunoeO3Wt0zGdf6mK2fGA+Oy4MY9fqCLKTItkVF8m2NSvI/Njlxp/6qK6c7eIIHZrhxygqHQS2I6q1EFObbAuPZKLRc0LtNuufvWY3ivHnfkZJymkM+SKZTAlh9/tPoelXP4Ae7V7o/NRZufnkeFbQ55lHT0oANesjKPjUxdDZZKaAZnAX2mmp2TA8R4j0I1oZ67ZP9DMyKZwcZPJn97HPcwa1cYupTV3KK6kRsPOXNkC+LLmszGUI9gi+uGzo6NR2mursR7TC/K4Os8bc/uSP2OO14r2sEgvTFjP1ym8tU57oOkK0E5o065Comf0Kr8XOoe/SMNqT51Ch2MXXZtj1KYV2ESvSYda0Ze2pP0u0ptZ6NrMXXKAq1TOLfbZM+Sq6QbUO11B8z8co8gXTER/AcMpC8pOWwt5XYLKHicE2xhWYfHLILI+YeYk2uqotZtumOMo84dQnBb49ovVqpF0ETz9szMqs+aFIVpW26KZWa9FEf9IK86v72Sdj/5QQKjxB7Lj0bDunlbO5EEQGE0XZ7EhfRIs3gN6EAIrWzKX78f+0Sh+ZQ7qSkgsbIa0rbx0FNtVF1OoYFcjVz4y0cg54itdTQ6lPD6DTE0Bd0in03JTI4e9+ieZH76f3yYeo/cnXafnpt2h77MjR8ui9+B+tP/02rY/dR9NPvk37z79D1+MP0PX4g3T+6odU/+7nxpLMnyb9u/dE52+FGuZbvSDMFx4plQHN0CSUlVDxwYtojQ2kJ2kOxQkhbL9RuzhoXimgOb/aKnI3nEtHaiSd8tRKmMuhL19nDTOGxw2aG/A5IrGUqv4jvRn0mKJHpg3KVrGmnvoZOQmnU5UYzaHUaHalRsEL37fWSw7RqnR9qyqfsI3GVVMNPPKb6FYQunHYs50C3wo6E+dz2DOPfF8Y1Q9/CcZbYaLH9H3AkWLMkAC1+8j84FnUpQbSljaf5nXR5KSuNPK2Cfg8JOJ2cGZKiw76Ewo7bnrKxtRF/2c7/G6bZtrAVkZrWbKVbZeeY7bz6EqeR1N8GGVXrYb6fOOGNTF2mElFfpiUA70CxGk7yx6oK2LbpljKPGHUJy14m0Qb7hCtXN60wbQVgy2hiISPeKQYS7KRdnj8PvbFSXkQTLk3iG2XvRdKt9voe4KVTFdL97N34xk0e0+lLzmA0oRAGh/4vDUbHFXURr8prCFcV3lzBJqWVK2AZTifA94ho0zphqK/8eaGGOp9AfR6Ayj5QAB86+PQuB+GOkygMya7zTTDwE2w06EIFv6He1+iv86VuksW2pfXuBr68d4juPf2z9Qm4bPgptQ9r6+j/JpkGuID6fScSlFCMLs/sQk6pQV31oFVekcDpdf7qPGE05o2j2JPIBW3XmHD9w5NWqI16/SSj53DYK8w2Pa2xldj1GCItt8h2ndxyAROj2KXd5GN6z3UZvMwDN1l6ycAgdonCUIM2YzQSlWgQuTIOGQP+3zL6U2eT2fyXPJ8YeT8x/Uwosigg4xMjFjx2BKXM9oOddJ276fMHjgNGcG0rg8nPy6Mhi9fY3c3kw2tlrQ0d1fZjlOVpuOKfKTGCrnUhNkOkYAETOtkIKK3bzPZyfjj97HzglB6fFF0JYYZI/ze738BJtsYnzjMhAnTIvW3jMxtUBA08tYXs/3KWCp8YTQkB7IveRFjj34dhmQR5XBhQwjuKP8Wc1pvOLsSouGZh1Deqp9qbNdEZcwgYVSRDBTPQEyjDR7/NoVxETSnBlHmC7Jml2U7jaJkVJ0jwNTUUPyhC2nyBNOZMo/y1DAO3H45dMnR3Fq+CE+FOoKr+acTc2EJxKKV4GshKyjrVa2xmi1b6rLZcsU5NKQE0pc0h/3/L4Cxb37C2vmqZ7Sti9YMZcVjnMeljXe2INU993CfafNtQzVuyaIgt3ftmQtW1cM9ToC2J36sIlSkQ7jGs6+nibKbU6lKXkCb91QKE4PZftMVdj+lkUGrVDLI30nr1z5MUdxcmtPmUJkWQsnH06FGBhQWnGYK5xKs8dxx26dUuGlbbeKJyXnhmR+Tk7iU+oRI40H2hncZZL1g8MP2jIPDDgzeuoHOPNLFS1OivhddDULBFgpSltCTHEibJ4islGhKH/4yjLeZwOUaHo322PIIB5G1E9xfnuB130qzz0pN0hwaNy5hx/ozYOfzNh7xuAl7ZZBHRKuxVqZ6IiP5AQnNj/+n9zVG6U+ELauWTmgtouDqeBp8y2m/KJj6uIW8lnAabHkWproY1dzCxBEWws0k2iK2X7nGIdoF7yDRdpu2qRut+6JW49RSf6JtNURbIIsWl2gvfb+JBKjo8MPCEOnbWtsp+Ugatd5FtKaHULU+ksKPxkPrAdP5gpuLOqJTY6TiEK2hYQeP3XfUzS6MR8VBh3rNov0b1ybSvGEpvQmB1KwJo/oT6dBzyFo4KSC4pkGOsO8SnJiA/+HeHzeio8swxLYsJFS2Ld8+0/suwSp1f6YN7sVJpiYfM1+XvsIhXLNTYzPVn8+gUkY/yQHkJQfxxs1X2P15xocd80stAXbS/YPPsWPNHBrTFlC/NoKSq1dbh4QBp3amwsvw0V0AAB8oSURBVLOPtLZF1oDF2IfKoeSZ7yOFaGtyFLW+pfzFdwYc2GGmabZZLjROppGqgwtB+75h/ka30wm7n2Nfagw9nhAavRHsSFvB2BtPGnFtUtKQjVxhwGRQYHpe29XE7ls/TF58FDILLPHMY3dGFNm3rIOWYmPBMzIpTZy6USQ/aTfUlZhm1HguOh2bSqSd0BKI6RFVfgSG6mj5/ufJSV5GY2I0HfGKnrCUwi/dYEU6E55UJK5edIOk+Y+0RxPt21JEHTXS/g+I1hvM9kvOhwNZxiNoRKpN0cnAOO33fIGcuMWUxs+hZm04u5IXwYs/NzbSbnePjI4dMQc9AdFaNaAUiY5FW28LBd+8mcKECDriA6mLC2XvurOhaKtltmb+ZQnsKCpzUeA46ZiJ6m5rKPsICQ/udNswGLfyfumkrObMEOl38yROVQXTz9LKaolxRNqiIWguovCa86hJWUBtQgA5vhDe/OJHbfCESbk/OqxDnljbfs/LSRE0rY+mKmEe2d7F8ORD07sY2ra/NdHKt3W0u9lYLjXfdRX7E8PpTllM08Vn8/ePploDD9kbG5hJq+XYQAul3/KnD1y5331REpW236yl4adfNbsH9qREUu2JZsfGc6E824T9mdTeyS7RHhlphWCjdoF796vsTj2LquSFVKaHUH35MjYnRND6wGeciOmS520mRlmjukhWN7P3Y4nVvSOePiHPCBGg5knOAvbrCTHUZrzLEG1d0mL2pJ8NOW9C/2EzyolErYgqChCQNDZpo16Jx/8o0Woo0+Rbo6B1GJi2PX6bRFvuDWHnxguheK8J7DZloh9KpT8Kf32KNxJPo2FDDLXeQMrSFlPz+SushZF6X/a0GrUcO25XRLaIbGlfb7iHDc9iQ/8Y5B7sp/f5x8nyRNEQN4fGxEDyfEs5/PP7obnKiOH9GrXcDN0h9QTpqHZNENTlLug31ZZUbrSx5umRfyLYsbExlP6jP6tmG2RKUyExiyEFE26CnFcouuRMujcsNMq83ckLKH7oDitBmOiYGr9UoX4jte38uIfKjKXUxAdSvX4JDV+5EjpaoV8Di6TK4xOtwTC5cGrD65YCCj/8Aaq0M2RKNHkJi9lz56esX676S87sYjDKz+2Yt2y0hjkH/6ffU7hW7chYwp4bkilLCKM3bTFFsQvZ+sFYaKy0SuIpRT0dk3gsMDm9JiTWSCkFz1Qf9d/4JNmJi6ldu5habxDNqZFmDbX1kTugT/vKynDaWvKoGqbSYiJ+optLrG6q0kxHa/8bmbRtfoG9G86mKn0J9d4YarSZV3wkA/91u7XddEQvidxHhDEDVlugHIcV1+qqWCpTwmn0+GuPW00cd6dCRz43WanjTo5o3fmsmIUVj61wb+e0R4vHFZ4QMjfIG0YODgr2pSgSkm7Gob6M7I+nUZOxhLbEBTSnR7NZzglvvAzdA9aLyQBPkssR6nBpTKSjlru6GStrOKxdZehB/X4KNp1JRVwAjZ4AiuICybwk1mivpYxSqDJLeX7g9AftzHNVY3SM8ZFRhgYUu9fWzRKsdRIx8HX+qd4aYUWw42NjDA5oOw1lenI/4eIEfUy5SyIi2sZ62u/7Mnvfv4BeTxCdvlPIWRtpo0IYhYHVjEgOM5LYYDM1j/0HWUnL6UiLoW19FJkZy+HNF23MLMO4Zida4anCuBoRdqyD5if+k72+xTQnhyDjmUzPEkZefcYGQtBr2gpEtmyiGYHWAe/xWytYqLMMxZjXDBEPNMCzj7J99WIaEsJpS44gd000rf+h7S61pYjKEYN29qe16gwHiacmGNbcR4vaDSXGeyYnYTEtKYvoSgqkdNUp7NnwbuofvA0a8y3hKvqAOuaoSltm4Gpd7egoL50huzg/2gvP/pqsjA9Qm76MzvRoGrxR5GhT5k+mQLUCo/UwMKBA6A7lmiYKSaUQEvrKuKLfEO2OD8eauEcN3gUUJC9k5Cd3Oa55DsII+RwQWfp3Oma0EwpeYvslZxovnwZPmLEPtoqobjMFUFma02pklxJKc3jN6vXfMK5f30e+9jpNDabcE8oujbRFWdaZQB4uUm4K5h31HP7dg+R5YujwhNOREkle7EIyP7wBCvLsArvZkMpP1FJzVVX351TbmN4pnK0j7Uh3ZN7ra6bh65dT6D2VOt+pVCcuYF/i6bTc+RnrfK6RSJKOxHYjbfilxkrBsVTQO1oCVH2GexmrKjXfjYwOGdtzVxowzMWt24x0vK+XrooyY9NOW6M1WTTTpxkvHnWpXtLcW076A9DTwdTvHyVHzuK+GJouOpXyhGByP3IB9FVZScmu2BuMML0sAirby+7151GZsJDW9HDyEoPZ+8lLoGqf1Z5rm1J3hJweEFyWqFGzBwpfZ/Omi6iUkYk3goMpMWRdFQttVTbKiuGiGt31/rD1QusX8bp2x2qL7Tz9t4foQp0lQpfoPwbt1SZw4o5151CVtITDKYspWxPGG94zYOdLlkGYecgY2pfK7uVjgKbCRbiaKY0wpRFMOw3s3EL2B31UelZSE7fA+NjWeCLI98VQ9ukMG5t3rNkJiaJFY4c6TF31Ty2T94SsS2SI3mAm2813XEmBZzktaSsY3rCcDm8o1b4wsi9/HxRttmLv+AjjEwpc7Yw6Jm+rDhFHNGWpYxtK2HZ1LGWy5tG2IN5whh/9mmU8aqwhbynJBoxCy3ABVUtEp9CthS+z9dKzqUiScXoou+Oj4OmHTJ3NDgFm7q7RdRi726xd5tKYYJZSfn0/uQmKERVGmTeULZdJEbXDKthkGK4IGeLucrvrayLn6jjKEiJoSgil0xdDbfpZlH/EC5uftAHUVGcpTTRb6RMntCCcVs13dkJ3M53//WsG9/zNBEbXXFMohzb+2v4029KXU62tVtKjqVkTTs7qJXTde5sTr+iwsYAbF6I5qGS+FjeXLbdgOy6jhmYo3EXZV27i9c9ea4JuD45r/mhhais287+mSFp3HjcBChr//BQvXZwITz0GTQdBG56Z700HMCz7Y7+f5pJTg9qecsASx/M/ZosUQNpczRNIS/pS3kg8m4mnfw19WrtUfhI5bbUNumltt7uVkR/fZaYHDWnR1Psi2ZcYTcVnL4GGvTDZYdvolG1ro/+SMvuNomnXpedS7o2mwxNJ29p38Vr86fD8EzaWmWvFJjTsH2Ky7AD537oDdrxsveJMhFMrBksO0O4JutLRN9XPoJaLhBtth8xOggUfT6bIF0rnuoU0JUayRzvBawvOoSYbVN9YWgr2RxGtYCnC1czAGVHEMQ53w5a/syVjFVlxUdR4wujyhNDuDWW/J4I3kqPI+8w6Bp/6HlTtgo5Kxy2p3Yl90wgdZcbrpeuPj1F6zyfI/tBZ7PeFUZ8QyGD6IpqTIij3LSb38nNg9zOGe06ZMK3a+EgWWBLJVGuNAqqfizaaB/ZDUzFbPrKasrQgs+tdrjeU4Ue/aojWfGd6VGNkP2NG7+/wEnWQVOn7XmbLpWdTnizD+CD2xC2Ep35ol0jMyGBVPhpd7ThrF4EM4xAjMkSrMK4K7BbiuObtgIkuJrS/qDkcziqj+JxX2ZJ2FuVJi+nyLaIpLpjs9wewY+MZHH70LigrtKFf+hT+pdseshjrH4DmBnj9BYq+cgOPrlrE8PMKUdNrus4IXEKWrmoavnc7e9JPozQ+hA5vFG3epZR6z6L8xiuY+Nuz1pZbIUgVpX/qsAk0Z6Sr7gYYbIC8V2m9/zb2XHw+O+OXUfK5TSZkj3UgFJ74UdpRp2I2jn14fzfdz/6GXQlnUep9D/s/+SF6//CIcWww2z4qprECz4txSrehuFW9zdBQC1tfYf+nL2FncqRR2rWvC6XWE0SubwUVX/8KNDTbkdhIXQ7RiuYcAcw4HlTvJfOaeHKSFtK5YTmHLlLMsUheuT6eoa1/gO6DIElL8aqkmZWjfW8tE3/5BTuvXE1JfCi9qQupXb2ArNhFlH7tFmittTGsTNhUF4+Aonye876X11PP4sDdNzP26tM2fMxhOSk0g9bz5UElfBEhauvLvS/T+uAX2JL2LnITQziUcir16UFUrD2DLMX7rsiyjEV6onHhvJ2e+Y20LtMVADSa2ZCWdgf0IcjbZaJa5HhOo3vdYjqTTqUucQ6VngVmV/j8lIVke6OoueYiOj+9kfZPX0LrrRtp/ex6aj6WwL6N72ZvwiLyEyMoTg2mWttmeoKojw8lNz6GfUZ0ybfuVeNDxldSQdQnJqTQEOFqxHWURw7CGNKVGNOSz+aPnk952nyafKdQmBzKyKN3GIsVtcRwX3WmkSTsCGYGajPStkHh39hy2ZmUeufS6J1P7ppI+P0PrLXShHY3s8K4KdbBVzFYk7cxrvg2+fHhNKQFUeYNZs+G82FfllXoSWNrtOVSVgj4sqftofOZX7Jrg4z7w6n3zudgYgAV6xeyMzGcHb5303zb1Qx89zZ44j745b1M/uirdHzpeg5elUxh0jLK1q3kTW1EpXCi3V3TyDol67KRwyYw976vXsWO1CXUpEQbkUu2s/VpZ5Gz9n0U3eCj5sub4Kd3wFP3wy/uZuJ7n2XoGzcYA/n8tBUUxgUacT8nLoj92khqrM3QqoH7cYhWc1ITHldjynAfnX/8LXuSz6Yt5UwTMC8rOYbMy86h5JZ02r/5UXjy2/Dbe8wx9fDtdN91NXXXxLN3dYRZwmvfGEVDwjzK1szn9fPm0X7fp80WmMYzaLQfBSuX3KP+MD8pnMXcBHdJHdue541L3kfFhhX0rFtOs2cheUnh7Fm7wuxoN/ng58ySHb/+T0bvv4Xy65PISl1BcVIkzQmBtCQGURAfRtEnUqEi1xL4pCRKO4M2uCVHhfJCMi85l+q1p1G87gz2bjiL3ZefQ+0dH4Qn7oYn7rHhbn/1TYbuvYnaG7zkpy7lQMpCM1i0rA+nKjmAHatOYctVSVBeYM1F1TBxY0nchib9R1p1gjkEdgHeztkkFI5L1BHCVR+g+du3m13LytNk0hVFdUIwjYlBdKdG0BQrn8MgalbN59CqIKpXBVK9ej71cUG0JoUZH8+GxBDqLl3C/nVR7E+LIX/j+xh86G7rVznUz/jYOBMT44ZQRbBj4+5oa4l2en5rkEYE2Q2tBbx+7SoOaBsTRZBMWsTwT6xxhWaiBrCSMsWJBQQ3FSRGO6DgVbZc+j72e0Oo8YWzJ3YJ/P4RGNImw5I6LNGa7wzx22w0s9a6II9/h9z4aGrTFM0+it3r46FAGxBrPx8V5kz2jbTgIJdMHDc/x9aN7yUrOZji5FOpzAimOi3MiIBlq0PZe9F89vkiyVw9n6wL5prtWbrSl5v5VeP6pWz2LGLiGdnfKia0nZZMaLMy9bKUhI355H3lw7yeFGNiKLd6YmiKDactYymFF5xKRXI4ZUmhFMcuoCQ2kPL4YKoTQmlIiKArYymNaZHkxM7jtYSF7PzCJpjscmSc44+0wh0FDTehVkcHkXj8csLZVHtOp2pNKPWJFsbVaZHokOJu35o55F8YYNKD8YG0rA5iJD2GrjQFXAunKDmKv8fH0CYLslYFKe8zzudj2ox62lRHcHZ+hjnLBXDABsHPep7XL30fuZ5o6tMW07EuhkZfBC1rl1KqoGvnzyf7fQGUXBRI67rlVCQEU22ikESSIyZztfbDVSQS+eBqxaTfmZc6U8GhEcZzd/CK9zRq0hbRumEp9ekLKUmYT+3GGPLj55MXv4D8+ECKBOvz59CSFEZ3ahit3gUcTJpLSWooO9MiyPtMOuzbbqcp0tYfQ7SKXDFNrA7ROmoeWTgZgjXaPEfskBpc84jMVyj86ifZfWkiu1edxqH4ZXTIdSk5iNaEOcbxuFFhNBJCaIwLpiE+hDptHp0YYeYIWxMXGheyQ9/7EuzPhKYa6NY8y5n7CehCD8WdkjjsXLsy2TThqkVyfG4u4cUrEtibeBrVvjN57dxFNN7/NTN/cqzFTOPN1Fg5T7dZ65t9kLeTv6Wcx96Epez3vouXY9/N8BOPmfpMDll/SYMSoj0xWGewNveG+pn4xQ/ZHXcmRWsWsTd2BS/6EiBXXiXOFMnoCezWIFrGGRqbZFLxf2VaWF9A03/ewtaM5WSlh1G5LpTOjAg6kgNNcLvGlEAafAto8izgsDeYrrRIM/q9GruAnbf4IO+vTHU3MDppWIjBWjPSSdEiE8TuBjp+80N2XBnPvpTllF40hxbPAnrTg+n1iUDkwDCHzqQ5xtZc88amxHDKkxez1bucLR/x0PKrh+DgfuP7admXdB8OvsxINQpLQ22UdJrD11WR84WbeDXudMPYFDy+Z91CU1ZL4ikm7fTOpy3pVJT2pUeadfrWxBVUxC/jzbjlZN22ibGtf7bmlIM9Zq9Y+UmPaAnEyEHWUs3GZBacHWKSmK55Y18THNjC7s+u5TWFtMlYQk1iCM3eMDpSFbUxlDZPMB2pEXRdvMwYFe1M0nLLGmp/cK9pgwl0LusoYz4knJDuXjb3dqluvCSPv1+dxM7ECONl1ZAWYsxaFdG0NXke7Z55tHnn0artOn2n0JZmryvi55Obvow3Np1Pk6aY7aWm36bGHDtpDRLCOaPa0DTNBHabAXznucChSqkTREI6zH+JHVL+yAF4fz6jP/8RLZ+/gYpNCeT4Vhj1+PaECLYnLGRXXBS7YhezN/VMdqWcSdHV8TTdeR08+yPYtxUGZDeqiIWOO6O0KUarKUyY/WdwRIzevCKlx6BRrhT+1zfZ99nrqLz1Wkpuv5Gh5582GUxo7dhBLCeZvjb3Zax/sJKD3/kPSm+/ltqv3UTmZ2+EbVuMV8hIb59jRDINGPO9IGNgMjLO1Ksvsv+2j9F9183UfvFG9t17DxxSpHr7jXDIiHAKyD1plRJaZTb70IwehsO1sO05Gh+4mcxrzifvkjMoSIshxxNFvm8Red5o8lMWsW/tMnIvPoP6L18Of30E2vKgv8pxJvMbaRzQGWanEV2eUeXZHP7xnZR/MpWCjaeZPXzzYgMpSQo3xveFiSHkecLITomm7Jo1VN52BVPPPWbib6F1WiNsSUml31sTrWQTKV/MVqbqX22Utuc1Or73BQ7enE7+2nexNyGMrNgQsuNCyUkMN+dK81OWk532PvZ/JJ3B73wVXn0WGkrtXHBynIER7U8h0NpJnDXw0ciuLSu1WKM6qrKCh8tlFbWzBTqLmXjpEQo/tZ6sjeeQu24luxPC2ZsURlZ8CNneRWSvP4O862LpfPgOKNwNXRpMnGabREtFog4ZsipK1yQmCIGmKNV5DPz8Hqq+fBkFV3+A3anLyU5eTJFnMfs9URSbvZMiyEwNZld6BPuveC81n9kAf3zUbIxOt3Zx0Baasv/TLh7OYOkSrdbvMf60fhUyhOAnPardBjOtuGOXb6QMcuR5KYF6WqGzwYYQ2ZfF2Gt/ou+l39D/0hMM//X3DP/lKSb+/jcoyLFG2z2akPdYo4nBYRPIwHaCAbUpzqmGX8XsqUt0qpJ7br6Sc7wUCWZLSM3nGu18YDojh12ZIFlyabOcWF1qmydtraInSKN42BqYSNw0S3kiNy32K1ymA0SDEFKOOaJ2v8ToXrOJllFUSCvbo+0o7ZKcBAVDtI6JpzWK0EMd0ioP2aUVxSNu16iQzdTuVxj+69MM//F3TLzwNLz+FxO0DUXE71Kwbg3jAwyPdhrlmu0bp0HT7RbcTAvtDn6jwwbu2mpDO+RNvPhbJp5/gsGnf2bO2f485L8ObZW2LRqtnZ8sRxV0zlqlHZ9o9bpQS3/mJ46lvVtFvOqjrgao3AeZm5l47QUGX3yG4f/+IwNq63//kZHNL8Kh/WZHC+1QONXRaG2iBSM3T0OP6kNJYxpahJ+yk+5lkl6D8tLzW+YxyaQMhqTBl1+zVkU07688wNSul+l87lEG/vwooy/9Enb+BQ5kQmedlcBMlI1J6D/iUcWgfM9tv2u0F/M11RKYjaQ4CF0t0FoPRQWMvPwSo88/y8Sfn2T8hd8x9NffMLnjT1ChAPqHbBD1boWd0WBoQabtybVN+YTqq0FS9RA+OvR41FaX9pPpbrY4pReNwlqbKRqbE/OaOEz3+BA9ExKGJplQ5Avtb6OwNWbbi147p9A6peZ23QOMKdaNpoFDQwxrsV596axmCA6qs9D4KJxzK+VHqHruHoJVz2CfQU19a3/KWFjmdy1Ii9lo6UXmdc6ysspVHspP69Pj8qGUlYvCkRqRRM+tqt28KHgYI3MpxdwR3y1WBvijjCusqn5aPRCuSIBwoGdHaCGayci8NjwxwfDYlAksaRmDE5JF8Byegh6HCQz0M27iEtvs1V4LN5k+Omu7qrMfEF046Va3G6lWIV6M9lMbgPXbJRoRtBPyZXxSRKDfJGNDMqxw3J3N6obsX9+CaN0ClTo8TX2s8vvHxhlWsHUFihdTU/u0PGMa4ph72s+MnlQyjh+pmidjar/MG3WoCzSFMhioUhQruJ9hs03cqMFaw5gnJ4xRiDIYFJxVnn7SzHcr/lmPtUrTXlaaAqqLhR9jU9ZUWzdMAyagS/hhr117e+kWBSMT/96uMpumTfaJ4NVwpWPWeMZskC57BQHVabvww8E1FWU3QR+wHm3GiUOM3dHNaCf4aY7oRwgOvI9QhunCIx2lBmmUUcfazvX7WJxVCCTENn6DzkKzPpomx+kSponP7WsDsbf7b2YFTeaWM9v5jm2AW6Z5XVzbkJbTIvehUxdHGHba4FDG9Ds6UZ7+h71lpH11ytSUPZwpxxG469tZfk6WhogdDmvy16vOJ7otvaldgHJGAxfMzjuzZWNL86urFI3GEk6YqXmTs6RlltqmzIzF8DlDIK4mf7rnj+CJCpt5KEfRlzNLMc+FI460M/3QLGsIMe2UTG1z+Y9tkiBmGzXlfGtw0BEZXSlQqVt/F2wudF1YGAMtZWoWt2VCKIWhswm41pgn7RKjGIKZYrht0jfuYfBfZVkzUnW92yyVa2pqynAaYiQ3Eak4p/pqchpdZsLM4Ir6w1nitC8eIbgAdbkFh/vfbaJf6lbaTf0qflSBfp/Yaru1VjPcQ/fcjEzTjvrqHbnwz37Wc2eIdJ8J2jqcn878a+k2197TUyG3RXBLrC5GujnY1M3+6LuzXLkvHi+d5ZMjt9Rv6kX9HcGpd+pcVTry05Wbs9+T49Xbve/C1712U2XsnhtR1zI23VIp/hjjlmruOzTvzwz0zTvz8y99Rj8f1Xb3PTtNOopf+/HDmfddULh190M7W303Wxe9XA6g+84RIJ5qCdd2u8vNjgKA3wfmQxeCM+8f85E/6P27wP/Doz56Zy78sz+ZcxeSTun6RDV3P3Wba++5T9Ue54lYvm7P+Lnfz7h97KX74vHSY7846o4lWysL+Nf1nTg/tlluJf2q4N46XurCd+ZzZeHe+x8SrbJWFu/cT7kJcurftyJalWhLNt3/FoTqT7guKE5ItG4VlLowctJporUka2dcbmWmATHjIxdXZ2Y2/b450UfHQxv/DI/+6h258s/+ZM5dSDqFuzV3P/VvhWVq/nfUW7Njjvv9CdvkvjhbesKPbW/NqNFxIf+PvqcqnfA3W73977nw9b/nZuzem4Voj1dXF+GVKut39qcM3ZL9Bxr3ntKjCz0u0QotZhwuKNw2HFN//+LdInXP7zDisUuw7og7s1L+H8x6PivU/EqZ9SP3+awf/2tvzlIV95ZSF3a2u2be+ScS7UlCYZYaHVVn//r/o+fK+4Q/vTTbccIPnRfcb/0uT7aeJ1W/k62HeU85nqj0t1eqfwnH5KQbJzj+j2jVUS6QjtO5/l34Lx1pj1OfmbdVff86vpPnyvuEPxd+M9MTfui84H7nd3mybTip+p1sPcx7yvFEpb+9Uv1LOCYn3TjB8X9Eq45ygXSczvXvwv8j2lmA5MJvZjrLq7Pecr9zHurSH+Zvda5339nfyZT+9kr1L+GYnHTjBIejPbZzWbvkcUw2J8zk+EA7XunH/+J/5cksTfavx8xWWIC4qHT8j93v/POa9dx90T+d9cXZb/p/9s84n71Uv7uzFer3+ISn+t7v52bnD2H33myp36fv0KlKcUufmerZ2/vNbMMxuc18YcZ1wBFCdZ8ck8WxN9xXZ6ZHvamHMxvsXvt/eNRHJ3fh/7n/+cl9fVJv+Wer82N/7hvHPjmpO+7n/ulxPvR/Ref/Fr+ZlXqHKzYz+399m1WDdwhf3+HKG6K1I8c/kPNMiLrXR2Xh32i38W6qZ2/j55Y3M30bWc72qZv9bM/e1j0345npcTLVa+8Q5I5Twj94e2a93et/MJsTvf5PyvZExTrP/+2gPl3v/yPaaVAce/JPQxo345npsVUwd/7t0Gdmvd3r49T/f3r7n5TtSVbn3w7q0/U+yoxx+u6JTlxozkyP+c6/4e/gWDGzXPf6mPLf3o1/UrbH1xHMUl23Dv7pLK/9a2/5V8b//B2uhZv1O5ztP5Dd/34NZqvsrA4Ds7141D23LTPTo15ycfMEL8345qQuZ2bpXs/4+Di3Z7z1v3DpVmxmOqMq/o9nPPrfvfSvmP/5jFq5j2bc/hde/m/X4O2WP/v3/zOiFdjd/PzTGd3hPppx+525dDP3T2fk7D6acfvf49KtnH86o2buoxm3/z0u3cr5pzNq5j6acftfdKnS30Hp7h+u9dst//jf/3/xWKcSxYnP0AAAAABJRU5ErkJggg==;" vertex="1" parent="1">
          <mxGeometry x="569" y="178" width="69.22" height="66" as="geometry" />
        </mxCell>
        <mxCell id="f2BgzFDbXWF-40dfzCkJ-27" style="edgeStyle=orthogonalEdgeStyle;rounded=0;orthogonalLoop=1;jettySize=auto;html=1;exitX=1;exitY=0.5;exitDx=0;exitDy=0;" edge="1" parent="1" source="f2BgzFDbXWF-40dfzCkJ-24" target="f2BgzFDbXWF-40dfzCkJ-22">
          <mxGeometry relative="1" as="geometry" />
        </mxCell>
        <mxCell id="f2BgzFDbXWF-40dfzCkJ-24" value="" style="shape=image;verticalLabelPosition=bottom;labelBackgroundColor=#ffffff;verticalAlign=top;aspect=fixed;imageAspect=0;image=data:image/png,iVBORw0KGgoAAAANSUhEUgAAAaYAAAGzCAYAAABkarMrAAAgAElEQVR4Ae2dd5hcxZX2sQXG5IxJBkywccAY44AD3gXbLGt77bXX68X22t51TuD1ev2Bcs4RSSiggEACkSWBAEkghCQkJKEA0kznnulJPaFnOkf9c77nreGiZhjN9O3pvn3D+8c8PeFOd926b51fnVOnTp1wwnCX8It9QA1QA9QANWAaDZimIQQkJwjUADVADVAD0ADBxFkSNUANUAPUgKk0YKrGcLbE2RI1QA1QA9QAwcSZEjVADVAD1ICpNGCqxnCmxJkSNUANUAPUAMHEmRI1QA1QA9SAqTRgqsZwpsSZEjVADVAD1ADBxJkSNUANUAPUgKk0YKrGcKbEmRI1QA1QA9QAwcSZEjVADVAD1ICpNGCqxnCmxJkSNUANUAPUAMHEmRI1QA1QA9SAqTRgqsZwpsSZEjVADVAD1ADBxJkSNUANUAPUgKk0YKrGcKbEmRI1QA1QA9QAwcSZEjVADVAD1ICpNGCqxnCmxJkSNUANUAPUAMHEmRI1QA1QA9SAqTRgqsZwpsSZEjVADVAD1ADBxJkSNUANUAPUgKk0YKrGcKbEmRI1QA1QA9QAwcSZEjVADVAD1ICpNGCqxnCmxJkSNUANUAPUAMHEmRI1QA1QA9SAqTRgqsZwpsSZEjVADVAD1ADBxJkSNUANUAPUgKk0YKrGcKbEmRI1QA1QA9QAwcSZEjVADVAD1ICpNGCqxnCmxJkSNUANUAPUAMHEmRI1QA1QA9SAqTRgqsZwpsSZEjVADVAD1ADBxJkSNUANUAPUgKk0YKrGcKbEmRI1QA1QA9QAwcSZEjVADVAD1ICpNGCqxnCmxJkSNUANUAPUAMHEmRI1QA1QA9SAqTRgqsZwpsSZEjVADVAD1ADBxJkSNUANUAPUgKk0YKrGcKbEmRI1QA1QA9QAwcSZEjVADVAD1ICpNGCqxnCmxJkSNUANUAPUAMHEmRI1ULoG3j/CJfgahq+RLjlxpFtOGnWcL/zteF99/gfvgy/1vm9/xvtGuOR9NNI00k7UAI1S6UaJfeXMvgIgNBidM8ErH5rsk4um+OTSqT65ZqZfrp8XfPsrINfP0/vV+7+fmBuQq2f65eIpPrlosk8umOSVM8Z55AOj3OqzqT1nas+xz92xN+7EWQjvud/ZN6ADAJw21iPnTvAq4Hx8TkC+trRR/vGBkPzn463yx/Vh+dP6Nln0erc8fCAqqw9E5ZGDUdkRTIq7Myvujsy7vlwdGRnoq+/19e0ZecmXUO+L9161PypTXumSuzaE5ffr2uT7q5vltmUh+fLiRrlqhl8umeITQPK0MR7ladGzIrhsZcttdTM0vP0aXj7jXqMF441QGUJvJ492yylj3HL6WI9cNNmrPJ3/eLRFRm5ql0cPxWSTJyH7m9PyVltGupJ5yeSPSjZfkMLRo3LUoK98oSC5/FFJZgvS1JOTunBG9oRS8syRmALYXze2yw/XNMvl03wKqKeOccspo91y8qjesCCAS2ARWJYc/5ZsNAFEAOnUAMJxMNgIlX1qXlC+uSIk07Z1ydo3YxKIZKUlmpPORF66U3mJpQsKBulcQTK5guQLRxWQjIRSMfwKhaMKUJl8QVLZgsQzBYmme9uKNgNaB1rSsmxfj4zZ3CH/sLRRPjorIOdP8ipPkGOccLKcBizXYJ0GiffnvEEJLwFe0VnjPPLhaT65aWGD/PSxFhn+YofyNBB+C0ayyhNKZAqGe0LF0KnE9wAmAApYtcdz4unMyAvuhCzb2yN/29iuwoCfmhdQniE8RHiNHBfsA1NrwNSNI4RoQErQAECkrRMhnHXWeI9cNzsgf1gXlsffjMnuxpTyiLJ548JwlQDOUN8DwEpkC9IQycqrgaQsfr1bfvJYq1w21acSKxDKBMDRd7QD7ANTacBUjSnBCLG9HEB9NYCU7PMneuXG+UH53TNt8tibUWmL5VRYDmGvVK53raZWobihAmYo/48wINbGEAKMpfPKS/R2ZuSBvT3y7480C5I84Fn27VP+zHFWUw3U9MMJIhqEMjWALLpzJnjkM/OD8l9PtsrSPT0qQ641lpNYpnddaCgG3a7/CzgDVD2p3rWpLd6ETN3WpZIorpsTkLPH92b50S4QTDXVQE0/vEyjxDY7b9AgXIcNqFqo7tP3BeWeF9rl9VBvmA7Za070iCoBUKyzIdy31Z8UZPphfxbCoR8c7VabiDnenDfeav7Ma94AwoleUwkaGDbSrRIZfvRoi6w5GBV/V1Zimbwgcy5XcNbaUSVgVPweWtYfwn3wpN5qS8t9r3WrfVMIkSKjkXaCfWCoBgz9sBIMENvDAaBpAB4SQktfuL9BfvN0mzx6KKoyzpB9hnBUsXHl95WBMyCFDD+kzSMFHWtRv1vXJtfOCqiECe3Z8JXjtKoaqOqbE0ScaerUgJZdh3I8l03zqdASwnXheI4wMmhjbzHksXeqI5FXG47vXNuiSiWhQgay+Wg7CKeqaaBqb6zTILEdFDk0gHUNbID92/Pt8kZzWiUyFG9yLTaa/L4yXtJA/Yh1O2wwRsi0M5mXTd6E/OSxFrlqpp8hPtq46k1OCAQCodYagJeEWfg1swLy9xfa5SVfUu07wpoHExqqD5+BwFT8N6zloTwSKmU8dTgmf1gfVokSmEzUWkP8fJvZMT5Qmz1QC83iACRs8kQl7W892CTP1idU2Agz9GKDyO/N1x/wYuFBrdjXIzcvapCzJ3hUySdu1qU9qQhTKvImFjKGvF/zDBx4Sbcua1RVunvSx+rSEUTmA1HfZ6KF+AAolHdC3UGk8KM4LseYecaYZZ+FZRtOGFrSAGBGjdDPDfcFZd5rEdnXnJJIKs+U7xokNvSFTbk/Y/0JySnbAkn5v+fb1foTnjErmxNQZfOl7H8kGCwJhlo9bxgphO1wxATOFcI6EvbMID25XIPI/zNX3yEE2x7PyzNH4irF/7yJXpW9x31QBJRuu6P7HwgkAqkMDWCD7JcWN8jKN3reSf1mYoO5wFIJ0Kt9UPneBInxL3fKldN9qmIH7QzhpEsDui4uwyDx/Z0tSBRYxcz5L8+1y/ZgUiLJ3rAdoWQ/KGlgw7PF2hPOuFp3JCY/fKRFHWTI0J6zbYEuFui6mGCit1SiBrCWdMZYj6Aw6MjNHSrEg7UIzXjx1b5g0p4tvCek/Ne1Z+RXT7WpklJYe2LmHgE1KHcGvaBEQ8T3odiKNQAD9K+rm2WzN6E2Z3Ityf4g0oDU9xXPHtUjVh/oUYc2ojJ8sVb4PW3HezTwnl8QRBw0ZWoAoZphI11y+TSf8pKOhDPqmHKG7ZwLJQ1S2lEbOxuS8pO1LXLeBC8rl5c5zhxhsx1xkxRA1WGL8Ayy7rCXZcGuiLRGWdtOM8p87QUzJigAlKsjI395NixXzvCrrQO0QfSY3qOB9/yCRrzqRtyOfQ4ofXFRg9rLghNjaYzpJQ2kAZwsvGRPt3xyXoBrTrS577W5djSSvCfjZmDwlJB1h2MpDrWmBYfOsaQQoTQQlPA3HOzYmcirwwm/trRRHQDJpAjjxq3pbaTpG8jZxHtnEybpEyQ4XD3TL3/b2C7ujgyBZOHqDYOBpFp/j6ULakLz08da5OIp3PNEe/w2nNkRnKWUowHMbpEKvnRPj0pwqJbh4vva3/tC1fJwPK/KGeEcLnpOtEknlGOU+D/OFQ4y73BI3Edm+GXZ3p7eDbN5+xtPArJ6z7g3KeKohHqyMmZLp1wx3cekCJNERWpm62v2wU7veAveP6B01niPfH1ZSJ53xdUaAQ129Qy20/pWnZYbz8nDB6KqyC8LwTp3AkyPyYKAqMVkAlDCxshvLA/JnlBK7eh3muHk/VYfwlo5I8AJp+SeOJJVymsx3mv+mTVvAMFg2uQGTRsqfDfSrQ6E29+cVlBi5l31jbRTQQg4dafyssWbVCFjeE6aFvnqEC+KD9ohD7rMCYAWvrt9RUj2NaUlls5zjxKz76quAZQxQsFfLax3CuHkLDgTTATTQBrAiaS3LWuUPU0pSWa5cdapXkwt7luF9fIFWXMwqrYl4OgUnu3kEHs1kFHi3xwign68KXhKiO9/dUmDHGhJC6o5MHzH8J3RgAKccKDkC+7EOyfj0i45wC7xITvgIfcDnoGeO6B05jiP3LEyJLsbUwzfMXRX9dDdQMBDWK/r7bAeajGi/NVA+uXfbGDT+BBt8BB1gmewZ47F5n94oFH2NaUkwfBdTY3yQAbbSX+D54QCsI+9GZNrZr2drTeCY3ewsWzZv1u24RU2xuwHl8BTGjbCJbcua5RDrRl1jhLDdwzfmQWAgFM0nZfnXAm5dhYrk9vaZtn65givkkMeWFRG+O6fH2yS1xpTgurPZjFIbAfhqGkAcOpM5mX1wah8al6AYT272jiCieEAaADhu68saZT9LWmG77imZOpJCeCEKhFPHo6pfU6orQdvn7bMRn3Ah2mjhzmEwfnJuUHZ2ZBi+I5QMjWUij0n7HOasb1Lzh6P03CZEGErW26rmxmCYXZqP8BT+sTcoKzY11uQVRv4fGX4zOwawJlOga6s3Ptih3xosldtb3DqOLbdfdvuhginkkMaJ450yaVTfapKeEeCFR3MbojZvvdOFpCp157Iy183tsvZ4z0M6dnF/hFMzg3l4eTZ/3qyVSU64EwcGj72gdU0gPUmeE6hnpx8Z1UTi74STM416FaHORaLTx7lVsehezuzgg2MVjNIbC+fWbEGsN/u1UBSblnayEw9O8DJ6kaW7dc/QUBBzM8vbFDJDtynRANfbOCt/D0qkqPo6yVTfeowS9oG/bbBNH1mmobYgfIWuAd4S5dP98kr/qQkuFeJnqKNshAxyYKmF+7qVnCibSOYSl5wp1hqK5bLpvlkwa6IWleit0RvycoeUn9th6bbYjn5y3NhOX2sRzARo82xYB/woVnwoZXhmWGAnjrGI3c9G1YDl1CqHpSwGI8NoOlc/1/4G/ofC/f9GVf+bmj9gjXTvU2pd9abuPnWgjaOYLLgQysDTKjIfMfKJlXZgVAamuEbCBzo29ZoTurCGXmrLf3O15tF39eF0+ooBz6H6j0HnB2GcPXl03z0msqwFzXnQs0bYMVOs1ibTxrploun+GSjK6GKYA5kWPm3/o0lvBycC4QwUWN3Tp1RtfZQVFbtj8qYLZ3yu2faVJbjr59uU/UGb1nSKF9Z0qDKPKHUU+8Xfm5QM/kfrGmWXz/dKr99pk3979ydEVX/bX1dXOraM9LUk5PORF4dzkiA9f9MBtIq+iyWLsisHRG5cJKX4TyL2awTCCb7e0znT/TKqC2dal2JqeEDGzm1L6ZwVAEBJW+aozkJRLLqBN+5r0XkTxvC6vDET84NqM3J6FsUv0X6PQ5WxFcpoSOEVoeNdAkmDSeNcqvNoRdN8an3vHF+UL6+rFGGb+qQ9XUxcXdkJBjJSmssp+CYyvLQxoGgpP0NIVX0208ea1XPh6ffWsjWEUwWelhlzHpgAH/2eIu0RHPCTbQDQwkGDX2EKhgIA8GL+Y+1LXLdnIACB6CDmmwACvoVXzB2pYBosHGG99HeE6/4DHzeB0a5Vbmdmxc1yM+faFVVOl4PpZhRWeL6HDyn51xx+egsP1PIy7Afg+m2an+v2htbqRNs2lbM4m+4LyjPu+NqIZ6L7e8FEzxIpBg39WRloyuuwnLferBJrp8XlIsme1VmF+AAWNRirAB6gNTJo93KM7tsqk9uXBCUHz3arMJUuxpTEo7nlIeneQp8ffdzRv9M24Zirx41kajFc+Rn6hw/7DCdHWYRiMGQnjPBI9Ne7VIeAI3VMWMFrwiL4+3xnFrPeepwXP5tTbM6QgFhOfRdJbygao4tTDrOneCVj88JqHWqTZ6EeDszgk2myAZkyPbY81b19OJ5uW1ZSE00qvlc+N4VsqfsyAp1pMmAhRk2FuAbuhnC6wvlrmRedgaTMuHlTvnsgqAK8VgBRn3HKuCpQokjXHLWeI8yvItf75ZDrWl6yH1CfYD1tkBSPrugoSaeb99nx58HsbvsoEE6yGTAKfV5XTc7IJs9CeUZMITXW+gzksqrzMQfPdIin5gbkAsmedUBiXZYFEe4D1sCLpnik5sWBOVvz7eLq6PXg+oLZif+jLUmeJNTt3XJuRNxfpM9x32p9sH015m+gRYFQ636FTP/08a6ZcSmDoFn4ORUYwAZad4I2eFkXhwq97HZATltrMfWs2YkTZwxzqMAtXB3t9S3Z9Q2AYS0nAil4ntGKv43VoTUhKRWY5SfW8KkgJ1UQidZCI5YqMeMeas/4XgjhLUkpHtP2NopNy1EyM78a0eVHo9Y8P/68pCs2t8j7fG846tNYG/TI4diKpGk0n3N96ugLWVnVrAzawwwrDlg8X7xnh7lLRXPFJ30PTwDpMevfKNHvry4UW2wxEm9dgjZ6R2vCFmdOsat9kchwWOLN6H2QmGPj5M0od1rNt9bSw+p91iX09ufvN4ge8mONqijDYAW1hiw3wUbMTEAtcHolFdkomEdaV9zSv5nY1iumN57/IETgdTfuEZRU2TxoRqCqz2j0uSdmL2HDcrbg0m1JcDs2Zf9PUdH/M4RN2kAFMzQj1dO9ysvwYnHWWAtDSngj78ZVSV/ENI0wzMxWxuwBon1px+vbZH9zSlHppZriRB/3hCWE0c6L7xrNk32255+f+kQQ26Xe8esD2VtfvNMm6rl5rQwDVKBw/G8SvjAWVPwHGGA7fJ8K3kf0Mqwt+H00dl+Wb4v2rv25KBTjLWyUy96Eio7E2Onkn3M96rA2GMnVqATawxyZGFdMd0vj78Vc1QWHsJQsXRedodS8rt1bWrDKfqCmi5N09ik+9HZAZm4tVPVAwTgnZTFidJTSB+HB8mJTGmaMWxsGfZBNTbedr5PeAj/+XirKljplPUkGFCsFTzvTsh3HmoquXiqnXVQ7r2hEO2vnmpVFdPRp07Z9wYNBSI5uWF+UNUkLLf/+H9VgBo7tQqdaiCEkXWF0jQ7GlKSyDpnnwr2aOHICXiKp43xmL6EkJnHGbxMZHN+aVGjbA+mFPCdACfcI44ymbMzojZbm/kZOa5tjrthA6FhRN/CoPzsiVZ1do8TwjDYm9TQnZVFu7vlU/OC3ChZIT0jlIUyVv+0skmed8WlI5FTm5Pt7oEjfHmgJS3/+ECIk5sKaakidq8ib2KmG3JYW1DOf11d3BHHIGB/EipF41A+pIJTu5X39pEIgLOm7t8dURUz7D7ZUeuUmbz8cX2bCucxfbzymiprnJb1Tw4z/mbtI8xycUQDqkrbvdwMDAgO7MOJr+dN9PJsnSqNQez5gud08RSvOvsJp+jaPawH+G6oj8tVM/1qrdKs491R7XLUzVZpMNeiDwElLFrP3hGx/V4UGA5fV0YVJsU9M/Ou+rNa6OuamX5ZsKvbEWG91mhOTXpOQYUQG9mJWtiminxmRd6ED9LwsBJCLrcsbZTDbRlbV3iAJ9ieyKmsMXhK1Gv1oaT1MeCEfWELd0fUmV52rhKhrTVdOtXHyuNmsOeaCPlq3ICvRF8jRXzsS522r4mHNaURm9pVvTt6SsZrFGG9a2YFVI29VM6+WZ+ALqrQf+/hZh4mSDAZP9AqAYVav8dJI93ykRk+OdiaUWE8u2ZOYX1j+b4etQkUm0Fr3e9O/HysOWFC8M3lIdnsTSi92TUhIprOq3W1D09jYk3NtV7zBpiBzhZrA4px/uiRZpUibkcowfBlcgVV9++6OQECyQT6RHX2ry5plF2NKVWT0I66QzgP9QNx8jPCmLSNNewDdn4NO79Mg3P1TL88fSQm8Yw9QyvYKLyvOS03cke+aYwjPCfsmbtzbYt4u7K2LF2EcB4mRP/vhXZVb5FJEDW0jQRTDTu/DDDBQNy2LCRHwhk1iOw2c8WJszhx9bsPNfEwtzL0Uc3xjJDeORO88teN7epoFbtpT7ufx96MyUVTvPSaaqm/agqZ711Z6GEGh8Xo369rk1jGfgU3sV8GC9DDN3Wy9l0tjcIgn33xFJ/cv7tblS6y43oTJn1fWdzAbQmD6KCq9r2qb17LG7PhZyPufdFkn6zY1yN2S90FlOAtzdjepTbQMoxS2UlNJcc5PKfr5wXlBXfCluHkSDIvE7Z2sdxVLW1oJQXL96quMYFBuPWBRnF12G/vEtbLXvYl5bMLWOnZCuMIR0V8f3Wz+LuytquphySIQ60ZuXK6Tx0kaIXnYbs22u6Gakn5Kn82Uqbn7OwWzOi0eLgdXnGwYTCSlR+saeG6UpU1VKnxDu/91DEetZcOaf120GHxPbTFcvKPSxtUEkSl+ozvo2Pizs7S0Vk1NBpaVtQrgaTt9i7h6AFUC0dKMtN0raFH2A08q0um+uSpwzHbgQnHqoza3KHKftFG1kCT7PQadHoZgIPR/sL9DcqzsNuC8xZvQm64L0golaGLWo9fVCBBSM/dYa/N3ggto7Drx7mPrjZbFmotbH5+aWA8e7xH/ue5sHQmcraZnSKEh+zCnz7WwpCJBaGkjd0PTfbK9Fe7VIjZLpXIUaMR4WVUvKAXX5qN0vRQkdeKvImFB5VV7v8jM/zy8IEeQdmU4li4lb+PpfOy9s2YKjnELLwaDP4KjVuUyMKREUizxkGOVtak1nYANp07KndtCKsQM/VpsD6tYpid3s7PL2yQ3aHeY6+1wWPlV4Qjm6M5+daDITltrKc24YIKGWanaxPrnwg13/NCu7TH7TNxApwWvd7du32BJYqMHaNOH1RWuH+EEnAgYEssJwh/WRlIWtsRwttQn5DTxjLhwQoaHKyNw0a45MoZftkWSNpqj90r/qRcNcPPcJ7Rk7jBBMe/G+zC9hEAQgiYjd69IaxKENklhu/qyMpty0PcXd/neVt1vEGnqEry5w1hVeTVLhvAfZ0Z+ecHQzyjyWidWnUgOKXdCJOcP8krS/f22OKIa4AV6xDzXusNkXBhubYTn0qOIzzLzy1skO1B+1QgR9r4uJd7S2RVsq/4XoPonh00SAcZPVPo83kY7NfM6g2RaGEwK7+i7BCynb6zqoneUp9nbYexiCKvwzd1qCNZ7OA1pbIFWV+fkFPHuAWTRDs8I0vcgyUaacMBXGq/DxvZu76E0i9WBpLWdmQVPrC3Ry6f7ucgt6Guh410yxXT/XKoNS1ZG6yHAq6Hwxm5agbLE5VqsypyXUXexIYDzCz9gvp4E1+xzxHqHfGc/HBNC4+vtumYgVcB72LKti5BGEybkFj5FR7+lxazPJGhNtHQD7PpYKxWH2KQnzLarUq+JLPWPxQQh7ChAO2lUzH75FHp1dJNrd/3pFFuuWVJg3g77eHlo27eH9eH5azx3NZgmLYM+yBCSXfo6sSRLvnwNJ/sbUrbIk0cM+jZOyIqy5C6s+96BVLHL5nikzUHo7Y46bY7lZeFu7vlsqk+3WOYOi9T5+y4MjvOANBi5nnNTL+aedohTRzeErK2cF/UnXl1N9Rno6WO/8EmB1piXRSQvWI6wTRUbZT8/yVfaIAhZlvebaxQIPObK0LS2G39kAgWkTG4cfopZtR81vbvg9uWheSttrTaf2flNSaE0V8NJNXhiNStQbplRxvU0WWAHTHt360LC2LcVh7Y8PZw+BqK0H5glFtYd8y8mqukPUB23qOHYpY/5RbZhf5IVr6ypJETqjLsWFmaKuufjGqcwz/nwkleWxzEhkrNno6M3LGyiXtBHKRpVMT//bo2yx9sibqOqAGIvXcoWEubacDEip1sQCeXaYyunO6X1QeigoP0rOwxIRSy1Z+UG+cHOajL1IIVxylKFN2ytFFaYzlLVy3RqpX8eX1YlV2y4rOwXJst12AHDWwcdbH2UFRwPISVwYT2r9jXo9aXqDfzToQq/Wyw3eG8iV61RcAOxYf/uL5N7dGqdD/x/foZE+yUfjrFJPDDURfYQY/1GSuDKZLMy6+fauM+EJPoysgxjyNNluzptsU5Yg8d6BGE143sP8d+lmNv3AJGAoutgUhWUF/OqmBCGKQlmpMvL25kGMQCmqu0PcAGcWxOhQasqmGt3c+64nLJVB+Td4zQcaWFyPerjAeGMAjAhBp5SB7QBofVXlFJHHBFcU/cE/XhrD5AFuaXF9ujCsRTh2OqagmzSg3QMA2FAZ1cxgwDC8e/erpNUrmCpQ9ei2cKstEVZ228MjRgh7GJ0lPXzQnItkDCspMrbTK4uzEpn10QpMdkhJbtIH473gM21979bNjygxnrSyjoicKednxOvKeBJ3aojo/aiKsPRi2v5YburPzLQ9zyYIjmDfkQIwhrs88AmO7a0Gb5wYxU4b9ubBfcD7U2sBG3Y//gPLHzJ3rl/t3dlq+b19STk+8+FGJI2ghba8fBYId7wqLxn9a1Wh5MrvaMOjIAoUk7PBfegz64Yj0GZzTB+0d2qZVrPoa6s/LtBwkmQ8aAIR9iBGFt9hnnTPDItG1dlgeTuyMjX7y/QZUiotb0GXW79BfghHJUVl8vxVlid20I02MywtbaRfx2ug8MZKSlPlsftzyYXg+l5Ib7gqwobsRgNvFn/PeTrergQJT30ZIJrPaKRB5sFGd2qQETLDsZdLvciwamZ47ELDuINaOzan9ULX4jnGOX58P70G+Y/vGBkDqi3Mp78gAmbBYmmPQ/f91jRvc/mHhWZpd7sROYkI2FQ+OQnWWX58P70P8s7XAEBsGk/7mXPVbK/kcCqmqGlmAycABQx1XTcbFtIZio6WI9DPr9oBdw4BoycIufg13AhAwsVEfn4YA0SgDTQYvXfaTHZKCOiw0ivzew4wcAvh3ABChhPWHU5g45dYyHcfkBnrcTxt01s/yyoS4mOAJFW3+02ivBZKB9dMKgsNo92gVMqWyhN73W4UbZavqrRnvhNa8+0GPp02wJJoLJ8PBZNQZjue9pGzDlCmpjJe6n3L7g/9mj7wCmNQejBBPHQmm2gAPffAPfLmDCTn/s+CeYzKcxo8c9wUQN6NKcrjITqsMAACAASURBVItJ+9JoP8R+Ipg4iO02LgkmalqXpnVdPESDy88qTZwEU2n9RD1Zp58IJus8K1OMK1M0gsB7lydGMHEQ221cEkzUtC5N67qYAHkXQKrVdwQTB3G1tFWr9yWYqGld2tN1McFEMB0trQgn9jEx+YHGSLMvBBO1oGmhpNeSLiKQDAGS9izoMXEQa1qwyyvBRE3r0rKuiwkoQwBFMHEQ221cEkzUtC5N67qYYCKYGMozRAN2G5cEE8GkS9O6LiaYDDFK9Jg4iO02LgkmalqXpnVdTDARTPSYDNGA3cYlwUQw6dK0rosJJkOMEj0mDmK7jUuCiZrWpWldFxNMBBM9JkM0YLdxSTARTLo0retigskQo0SPiYPYbuOSYKKmdWla18UEE8FEj8kQDdhtXBJMBJMuTeu6mGAyxCjRY+Igttu4JJioaV2a1nUxwUQw0WMyRAN2G5cEE8GkS9O6LiaYDDFK9Jg4iO02LgkmalqXpnVdTDARTPSYDNGA3cYlwUQw6dK0rosJJkOMEj0mDmK7jUuCiZrWpWldFxNMBBM9JkM0YLdxSTARTLo0retigskQo0SPiYPYbuOSYKKmdWla18UEE8FEj8kQDdhtXBJMBJMuTeu6mGAyxCjRY+Igttu4JJioaV2a1nUxwUQw0WMyRAN2G5cEE8GkS9O6LiaYDDFK9Jg4iO02LgkmalqXpnVdTDARTPSYDNGA3cYlwUQw6dK0rosJJkOMEj0mDmK7jUuCiZrWpWldFxNMBBM9JkM0YLdxSTARTLo0retigskQo0SPiYPYbuOSYKKmdWla18UEE8FEj8kQDdhtXBJMBJMuTeu6mGAyxCjRY+Igttu4JJioaV2a1nUxwUQw0WMyRAN2G5cEE8GkS9O6LiaYDDFK9Jg4iO02LgkmalqXpnVdTDARTPSYDNGA3cYlwUQw6dK0rosJJkOMEj0mDmK7jUuCiZrWpWldFxNMBBM9JkM0YLdxSTARTLo0retigskQo0SPiYPYbuOSYKKmdWla18UEE8FEj8kQDdhtXBJMBJMuTeu6mGAyxCjRY+Igttu4JJioaV2a1nUxwUQw0WMyRAN2G5cEE8GkS9O6LiaYDDFK9Jg4iO02LgkmalqXpnVdTDARTPSYDNGA3cYlwUQw6dK0rosJJkOMEj0mDmK7jUuCiZrWpWldFxNMBBM9JkM0YLdxSTARTLo0retigskQo0SPiYPYbuOSYKKmdWla18UEE8FEj8kQDdhtXBJMBJMuTeu6mGAyxCjZxWNK5Qpy14aw4H6oM2f3AcC0+mBU4pmCHC1xcmO269D2JXu65X0jnP0sDRnLhnyIQw0TBPz+ES4ZNtIlJ450y0n4GjX41wdGueWK6X5ZXxe37CAuHD0qANNfng2XdM+l9AuvGVw7Zu2jy6b65JGDMUlYHEzL9vbIyaN1PIeRbjX2YQNgCwi1EqFOMJXYUTrgCg8BIDp7vEcun+6Trz3QKL9bF5YRmzrkZX9StpbwtasxJeF43rJgwmw3Xzgq7o5sSfdbSp/wmtK0Y8Z+eq0xJc3RnOTyRy2rabQd91BK/77sS8oWX1Jm7YjI79e1ybceDMmV0/1y7gSvmqDS7g5id9lBg3RQiUDCbOiDo91y8RSvfG5hUO58tEWmbuuS7cGUuDoy0hrLSSSZl3SuIJl8QTJ4HeArm+817GYLZ+htT65wdMD7HKgP+LeBNWKl/rGLnjHZKrXfU9mC9KTy0hbLSTCSlVf8SZm/q1v+/ZEWuWlBUM6f6FXRBHpR/dhggqmfTikRRlrfwU0/dYxbvrSoQWZt75LXGpLSkyooj0GvIef11p1R89nx2Q2mgULhqJqg7ggmZfimDvnYbL+a0GJiq9kTvrrkBHZC+YJAyA7rRh+Z4Vcue1NPTrpTecFMCTOrwUTKv7OPqAHnaQC2IZktSGciL66OrPzq6Ta5cJJXrUXTHr9tj9kR5YEJa0hnjvPI91c3yxNvxaQ9bu34OQ2k8wwkn3ltnzkShBDiRJhvzs6IfHVJo7Ip9J7oMZXlPgNKWMT8xROt4uvKKnFxkNd2kLP/2f9W1gCiLFiD+uGaZsIJSyn0mPR5TMNG9qZyz9weUYuaWAjFzMfKg4Jt5/OjBmqrAS28h6y/u54Ny1njPSq93LH22bE3rjPBAf2ErLtrZgVk4a5uCcdzgoVMDmj2ATVADVRKA8jaRQbv3za2y6VTfc6FE8FUmseEuC82vS7Y1a1SQCslRL4PjRo1QA0UayCbL6hoDPY/nTbW48xNuQTT4GDCPoPTx3rkV0+1KcFgwbJYSPye/UENUAOV0gCWBrCZ90BLWm5e1ODMDbkE0+BgQrLDLUsaZX9zWqWBc02JRqhSRojvQy0dTwPRdF5eDSTlpgUNcsoYd1mJWpa175ZteBlrROXcK6CEhcjdjSlL1/k6nvj5expGasC8GkDliMWvd8vl03zOKoZcjrF20v+cN9Er977YofYpcdOseQcwjSufjR01gGWDtnhevvdwsyAj2DG21zE3WoaHhYSHLy5qkD2hlKrmYEfh855o0KkB82oAywaYEC/f1yMfmux1TiIEwdT/GhPKDSEj5u5nw6roKlPDzTt4aVj5bOyugYZIVu5Y2eScskUEU/9ggrd0zSy/7A6luIGWG4iZhUkN1FQDONtsszep9lI64uBNgql/MKFi+J1rW6QlmqupIO0+E+T90duhBgbXAMJ5ns6sfPq+oDqo0PZ22/Y3WMbaEvYt4ZTKRw9FJWbhEzc54Acf8Owj9pFVNICKEH9Y31uuyPZ22/Y3WAaYcDz1tbP84unIsOwQQzj0mKkBU2gA+5rWHIyqCjS2t9u2v8EywITNbN9YHpKG7qwpBGmVGR3bSe+DGqieBnCG07ZAUj41L2j/tHGC6b1rTDhnCXWq4DpzoFVvoLFv2bfUQOkayOQLEohk5cuLGwgmJ4ILm2qnbuuSrmSeYGIYhxqgBkyhAVVDr3BU/mlliGByKpgmv9JJMNEgmcIg0aso3auwc18BTJn8Ubl9BcFkfzL3swYFj4lgojGws5HjvVlP371gKhBMTvSWcM8A06StndKVYCiPBsx6BozPzJ7PTIEpRzA50lsimOw5qGms+VytrgGCqZ/wlpO8J3pMNGJWN2Jsv/00TDARTAzlMfGBiQ/UgKk0QDARTAQTjZKpjBI9IPt5QHqfKcFEMBFMBJNtwASDlssX1AnMkWReWqJZ8Xak5VBrSt5oSsqeUFJeb0zKvqakHGxJSX17WkLdWelM5CSWyUs2X2BpLhOMB4KJYCKYTDAQ9c4oef27vQoYMpwjBrAAMi974zJne6f88ZkW+f5DjfKVRX65YZ5PrpvllY/O9Mr1c73yxYV++dbKBvnlE00y8eV2WXckKg2RjKRzBXVgHd6T/VybPiCYCCaCiQbI0gY4lz8qHfGcvNaQlHueb5Ob7vPJldPccuEEl5w1tk5OG10nHxx5RE4ecUQ+MOKInPT2K3536qg6OXNMnZw/vl4+PMUtn5ztlV8+0Swb6mLK20plC5buG6uClWAimAgmgslyxheGC9Bo6snKZk9c/vZcm3xyjlfOHlsnJw4/Iifcc7isr/fdc1hOH10nV0x1y0/XNskTb/aItzMjKCqaK9TGe7AqXIbSboKJYCKYCCZLgQkhu0yuIK72tPz9+Ta5arpnSDAaCGIXTHDJTx4NyTZ/QmLpvArxDcXg8n9LgzvBRDARTASTZcAEg4U1JHgyCLudPa5ehebed295HtJAUMLf4H2dMaZOrpzqVmtWzT1ZQRsImOr2AcFEMBFMNDSmN7QwVFhLauzOyoxtHXLdLI9aNxoMLJX6+/vvPSwfmuiS3z/TIgdaUirrj4CqHpwIJoKJYCKYTA8mZNu1xXLyp3WtcvEkV1nrR5WAFJIp/mVVg9SF0yqcSM+pOnAimAgmgolgMjWYYKSCkYzyVs4b3xu6qwRkynmPYcOPqCy/m+/3y/7mFPc8VWnsEEwEE8FUpcHF2fTQZ9MwUDhdedyWdrlwoktOGkLGXTkg6u9/sJ6FdacfrQnJ4ba02vfEZz30Z13chwQTwUQwEUym9JiQfYfNrgt3dan07f4gUcvfnT+hXu7e0Kr2UOWZSl5RDRFMBBPBRDBV1KgUz3yH8n08k5dX/Qn56EyP2hhbSwj199nI2DtnXL2s3t8tKH80lHvl/77b4yKYCCaCiWAynVGFB4KNrT9dG1KVGfoDgxl+Bzh9Zp5PAZRe07vhMhTYEkwEE8FEMJkOTKi0sPpAj6rkMGx4dfYoVQJsWG86ZVSd/Gldi/KaCKfKwIlgIpgIJoLJdGDydWbkjhUNgv1DKBNUCYhU6z3QRhSI3eKJq9JFQ/EU+L+9YCOYCCaCiWAyFZiQ9HD/ri6VhVctmFT6fc8eWy93rW+VSDJnqr60KugIJoKJYCKYTGNMEQqLpvNy2wNBVWqo0gCp1vthrenyqW7xd2XU0RtWBYJZ2k0wEUwEE8FkGjAlMgV5yZuQa2d6TB/CK4acVpUcnl53ihl6QwUcwUQwEUwEk2nAhAKtU7Z2yAUT6k29rlQMJe17nO/03VWNqp7fUA2z0/+fYCKYCCaCyTRgQumhOx8JqTORNINvlVccQIgzoXYEEqbpT6sCjmAimAgmgsk0hvTN1pTaF3TyyPIP+6sVyIbde1gumuSSVW90m6Y/CSaXnGB2G2/6BtagA8+b6CWYCCZTGFLMkl9vTAoKtaJYaq0AU+7nYk8TjnGfsrWdZzYNcUzRY6oBDMwESIKpMhsCrTozNVO7cXT5i+6YJfYuHQ9e2NP0v8+1qsw8GFcz9a+V2kIwEUz0mGhATGFAU9mCPLS/23KeUl9I/ebJZulJ8Rj2oYCQYCKYCCaCyRRgimcKsmh3l+XB9PPHmlhxfIhjimAimAimIQ6iocwM+b/Hwl2xdF7m7Oi0PJh+/GhI2mJZQWiSz7e8PiCYCCaCiWAyhQEFmObttL7H9LO1TdIezwkLupYHJcCcYCKYCCaCyRRgwhrTg/silveYfsU1piHriWAimAgmgmnIhmQoISsYIXgXOGzv0YM9lgYTsvL+sqFVnbyL+xpKvzj5fwkmgolgogGpqQHVoPTEm1H50ZqQZcGEenkoSzTxpfaa9qcdgEYwEUwEE8FkuCEFjNK5goS6s+po8u+uapCrZ3jkjDF1lgUTKj9cOKFelu2JGN6fdoBR8T0QTAQTwUQwGWJIYWxy+YLa4+PpSMu6w1H5t4cb5eJJLjlp+BFB5YS+e4Ks9DPu4bpZHtnqixvSn8WG3G7fE0wEE8FEMBliSHP5o9IWy8nyvRH53qoG5R1ZHUbF4ER9v9uXB9WZTHYDhdH3QzARTAQTwVQ1MCFkl8zmBUelz9/ZJbcsDshlU1yqphwSBYoNu9W/P3VUncx8tUO6kzyPaaggI5gIJoKJYKoomHA0eiZXEJytdKglJaveiMgdy4Ny4QSX4KRXJAlYHUJ924/7unSyW46E0+reh2qYnf7/BBPBRDARTBUDkwYlHDE+e3un3Lo0IKeMqrMljIrhhKSNXzzeLF30liqiJYKJYCKYCKYhGxOE7FC5AR7DhJc65Ia5XpWhhvCW3UJ2xUDSvkfSw/OumOBoeKd7O5W4f4KJYCKYCKayjCm8I1RrCMdysrsxKfft7JSvLQmo85QQ2tKMtp1fkbwB+KLaQ0s0q467qIRhdvp7EEwEE8FEMOkCE4CEDLtktiBvtaZkzOawfH6BX6x46uxQoQkAXzPDIy+4mCJeSZgSTAQTwUQwlQwmhOy6U3nZ35yS/32uTa6c5pZzxtWrigdOCNkVgwwbarG2NHdHJ9eWKjyGCCaCiWCq8KCq5MzRDO8FI5HIFqS5Jysve+MyfktYPrfAJ2ePrVdZdsXG2infI7Pw3HH1KuGhNZZjCK/CY4hgIpgIpgoPKjPApBJtgHeUyRfUgv5rDUm5e0OrfGK2Vz4wwtj1I3hiCJmdNMIc1SEAJfTBHcsb5GBLSpVWqkR/8z2OFb0lmAgmgolgek8oD4YBZwrtCCbkvx5vkksmu+TMMXXKIBtZrQFQumBCvVrD+voDQTljdO1Tz1F66MZ5PtU3qPcHgBMqle0DgolgIpgIpncMK1K+g5GsrDsSlb882yqfnO1V6yhGZtnBIzl9dJ1av/r+w42y4LVO5ZkcaE6p0NlFE101SUEHJM8eWyffXBZU9fB6UqzwUC0gE0wEE8HkcDAhww5p3zC0z9fHBCewXjHNbXjIbtjwIyqz76yxdaqW3iMHe6SxO/tOJQV4JoFIVka8GJbzx9cbFtoDKIcN74Xl9x5qlNdDSZWRWC2jzPflCbZyAsFEMDkYTEj9burJqnRnGN2LJvXWsYOHZFTIDoYf3ghq6H1nZYNsrI9KazQr8XReJRWgjZqxRqkj7Jta+npEPjrTI6eOqv56F9aT0C9/39imQJli+O6d56E9l0q/0mMimAimKoAJs3sYMJzKimy2w21peTWQkI31MXnmcFQeO9QjT7zZIxvqoioshJpyAERXIqe8l2quW8DQR1N58XZm5OH93fLfjzfJVdM9qnQQvBajMusAI6xbATBYx3rojYgEujLKG8kVwaiv0cu+fXTGZk9Mfvlks1w9HYCqE6RvV6rtaBuA9KGJLvneqkZZua9bWqM5JjpUYaz0fb74mWAimAimCg02wASL4Vin0RIHZmzrkDsfCamKCDfM8ykjjL0/l012y+VT3XL1dLdcP8crX10UkB+ubpSJL7erlOxwPKfeB+83kJHub1Af73cw6IlMb9vWHuyRf3mwUbBeg2y3Shn0wd4H3hGSBwASGP1fPNakSvngftG+47W9v99r3t4Tb0XljhUNquIE3hdAKQdSgBH64pRRR+TscfXyufk+uX9Xl9SH00xwqNAY6e859vc7golgIpgqNOjg7exrSsrUrR3ypfv9cu74epU4AGOJI7dhMGH4ECaDZ4JXfOH3+Duuw4ZNbFj97H0+GbslrEr9dMRzugx234GOQY51JBw9AU/tGw8E1RoNDDDWTgwL2b1t+FEp4T/XNikPsiORUx4SoI529m37YD/3wrYgeB/UqvvvJ5oEE4ALJrhUHw8GSu3v6AfACDXvfvAQPKSI8mAxyUD4cLB28O/6n91AfUYwEUwEUxkGURtUMFpdyZxs8cbl/za2yRcW+NXMHaCBd6AZPj2v+D+U98EGzhvv88n/bGhVRhfHSMCD0j57sFcYe5wNdLgtJQte61KnxV462aUgWI5HoecetGtxL/gsbMb99Fyv/GVDqwplIryJhItKhSzhPcUzeRVuQ4r7sr0RGf5Cm/zssSa5fXmDfG6+Xz4+y6vCfgj9fXy2V8EfKeh3rgnJ/z7XKgt3dckmd0waIhmVCFK8tjVYX/PvBFPZ+Qpl/6ON4XXeRC/BVAaYYLRQKy4YycjUVzqUoTttdF1ZINKM+PFe4UlhHWbM5vZ31mCOZ9C1mWY0nVczfiQJ4HA+QA7e2fE+o9K/hxcGTxAe4IenuOXP61tkZzCh1tzgvVXbkOP5YI0P60Ku9ozsa0qpz9/mjwu+0Ja9oaSqho61PUCNIKr+cyn1uWs6vn1FyP4JagST6z0PmWAqbzBitv+KP668ECzgI0SHNYpKG3i8n1r7GH5ETh9TJ/+8okHN6vs7XgGDGR4VEi0W7e6SLy70C1Kv4X3hPcr14PTeE6AEj/H6uV5VLeKNpqSqr6dls6GdpRqooVyHz8H6HMJ96Bc8s+Iv/A6VLXL5AqFk0DMp9XkSTDb2hkoBMcGkz0hiVo105RV7u9U6EqBkmMG/p7do6BcW+GTJ6xFBjTa0B4YV61vYXzPp5Q65fXlQJTVoQNILlnKuRx/AI8O6GtbXRm8Oq/BmayyroEBvRJ/OSjXgdr2OYCKYGMorcbaI8BnSv5e83iVXz/AYms1WDAsA4Iqpbpnxaofa74PTYqe90qHWTABKo9aP0CZ4YgAgPLOrprvVERio0ICkgeOFG+1qTHlflYMvwUQwEUwlgAkDBesQWLPBnh/AwShPqRhK+F7zTlC/7sePNqn1J6xvVTOc2LcNqh33HhZ8LkKG415qF3dHWvUREkLoIVXOSDsReAQTwUQwlQAmeEqr3uhWEMD6SX+G2ujfYT/QKaPqeiFZpfWtvvcEKCKp4cIJLlUzbs6OTtnVkFD7thSQSuhLJxpa3rM+UBNMBBPBNIAxxQDBIvlWX1w+v8CnFvX7Gmsn/Ix9Ptj3hOw+7PWZs71T3B0ZdSQGvSN9RpeQGry/CCaCiWAaAExYJ0E68c8fb65p+K6W8IOXhDUkbMydv7NTlVhCdpvKZhug72iABzfA7KP++4hgIpgIpuMYV3gC2Ks0e3unXDzJZYrwnZGAQsgS61g4euLBfd3q6AlsJtZbOojGt3/jy345fr8QTAQTwXQcMGHfDfYEobYdEguMhEKtPgtJHUhoQB07pH0v3xuRxu7ewqo0pMc3pOybyvYNwUQwEUzHAVNbLKfO/kE5nVqBwujPvXCiS77/UKOqOq4VVkU4E4aCxpd9YJQGCCaCiWDqx+hiYLzWkJCb5vvUPh2jAWHk56HkEcoG/fyxJnnqrai42tOqVhxDdgSRUSDq+zkEE8FEMPUBEwYF1pawZwmZaNUqNWQkfPp+FkKTqGOHoze+82CDPPlmj6okgaSGvkaCPxNQRmuAYCKYCKY+YELoCuV+frq2ybYhPHhIv3i8SZ6ti6nq6AzXET5Gw2egzyOYCCaCqQ+YUPjzYEtKrpvltRWYTh9dp0oZ3bW+VTa549IQ6a2qjbTvgYwE/0ZoGa0BgolgIpj6gAlrK0t2d6nqBn1DYFb7GVUakLzxsVketYb0kjeuqjRg07DRxoafR8CVqgGCiWAimPqACUch/PcTzSpt2mogKm4v1sY+NtOjDufb5k8Izmgq1TDwOkKklhogmAgmgqkPmOBN3LzQryo9FBt6K32PxIYRL7apzMLWaFYlcyBEWUtjw89m/5eqAYKJYCKYisCEJAAcYY5jLWpVPbwSADxvfL34OjPqYLxSjQGvIzjMogGCiWAimIrAhPUlT2dGVXuoBCBq9R7nj6+XQ60pdUKrWYwN20HwlaoBgolgIpiKwIQwHjLysL+nVlCpxOfCY9oeSAjKKpVqDHgdwWEWDRBMBBPB1AdM+5rsAaZXfHGG8oqerVmMLtsx+ASAYCKYCKYi44XD7g7ZxGPaEUwQTEXPlkAYHAhm6SOCiWAimIqMF9aYvHZYY5pQryqjs96ddYyxWaBghnYQTAQTwVQEJpWVl8yrI9TfZ9Bx5ZVYU+r7HlhjOhJOSzyTZ2XwoudrBqPLNgw+WSCYCCaCqY/hQgLEVxcF5KTh1j2D6cwxdXL3+hbZ1ZBUcEKIEtClUWQfWEEDBBPBRDD1ARMqP/z2qWZVfbuvJ2KVn4cNP6zaj2Ktv3mqRXY3JtT+LMKJYCKYXHKCmey+qRpjko45b6KXYOoDJqzLPLgvok5xtQqIjtdOnEgL7+nTc73yt42t8mxdVBq7s5JAiI8eFD3IPto3C7ToMZkEELWCJsH03hk0Sve81ZqST82xV3Xxk0cckWtmeORXTzbLK/64OgwQYUuWKnqvBsxioJ3aDoKJYKLH1GfWCE+iPZ6TXz/ZbOlNtn29KCRz4IBAHH9x0SSXOm9qsycu4ViOcOqjAacCwSz3TTARTARTH6OEQYGTXFfui8hZY+tlmIWz8/rCSft52PDeE2w/Mdsrf3imRR5/s0f8XRmVKMF1KHpQtQYUwUQwEUx9wKQNyr1NSfny/QH54EjrZudpIBroFV7UFVPd8uNHQ7LJE5euRK63Gnm+wFTz42hD0whfqwNxgolgIpiOY3xQZXzS1nY5Z1y9rUJ6fSGFEB+SJE4dVSfY//T9h0PyzOGoNPdkhafbVsfwEmgD9yvBRDARTMcBEwqg1oXTctN8v+29Jg1WOFwQa1DXzsCJtyFZua9b3B1piaXz3Ad1HJ0QMgNDppz+IZgIJoJpAIODrLWH93fLxZNcYuVKEBp49LxiHeqSyS757qoGWXc4KuF4Tq1BIZ0ehqMcg8P/Yb+VogGCiWAimAYwskgEQIbeH59pkZNHHnEUnHBQIuCENbazx9bLt1Y2yJoD3dIQyfKcpwE0U4rh5TUDA5pgIpgIpgGMjDZAUNrn68uCcuooeydCHM+jQojvtNF16gDFf1sdkoW7ulSYEyE+rkMNbGQJIf39o42721eEzFWloRq8qNUmVjN/LjfYljZooum8vOSNy1XT3aZZb0I2HRIWPjDiiKEp7e+/94hcOMElty4NyiMHulWSBPoHpZxYTaI0PRFWA/cTwVQNAlroPQmmgQeIZkAQ0ktkCvL0Wz3ymXm1rwiBMBuqOPzssSb57H0+OWtsnaGZg9jbBSCeMaZObnsgIA/siYi3Iy1Yk9P6jK+laYv99N5+IpgsBJFqeF4E03sHxfEMBeDUlczJowe75XML/HLKqDoBII4X/qrG75GAgbUulEtatjciga6MvNaQkFmvdshtDwRVujf+Xo3P7u890R54bZdNccu3VgRlxrYOdQ4UPCieBVW6to6nOaf+nmAimLjGNMAaU3+GoTuVl62+hHzmPr8qkIo9QEYACp8DD+XTc33q8yPJ/DveCdZ6AKlZr3bKDfN8au/VKSOPqOSF/oBSjd9hHerccfVy03yfLN/TJcFIRtBXPHKDgOpvHA30O4KJYCKYdIIJ6ygIWdWH0+pIiQsmuKq+xgPP5Jyx9fLzx5rkQHNKVWYoLh2ENuXyve3ydGRkzvZO+YclAcM3BwNO2mbdrywKyLwdnerAwmSWIb6BDDH/9m54E0wEE8GkE0wwIgAB6un5OjNqn9M3l/WG0SrtPeH94IUAMsv39m52xecWQ6mvUQM04U0BYEtfj8i3VzYK4GlkaSV4kAh1XjTRpdo+dnNYDrWkVEVzI0J8eD74HIQUke7fsPWSrQAAEpRJREFU1JNVHhy8SnwFI1n1OxSwhVeHPsP/9O1L/lybPiGYCCaCqQwwaQYLAwjegKs9LZNebhcURb1wokuF3JAcoHdTLgw6/g/VFy6YUK8SHIa/GJa32t4+Jl2n8cTR6jh/adHuiNy80K+y6bAmBOBVI5zX33vins4eW6fWxe7b2ak8TdTjAwwGAqzWx6W84jng/aKpvLTGsqogLVL879/VJXevb5V/fahRvrLILzfO88ln5vnkq4sD8u2VDfK7p1vU+hyqrHs7MyrDEFAH/PGepXw2r6l8PxFMBBPBNEQDhEEEAwvDGOzKyOLdXepIiU/O9sopo0qHEww4UsA/NssrP1oTkvk7uwRhOc2Al2MotbbBewCg4EHdsaJBzh1vbP0/AFrL5PvcfJ+qQXiwJSWJCoX4EMbE5AAV4X/5RLOCIPoe/QkIY6MwTvU99tX7O/wNX0gYuXKaR37wcKPM29mlTvxFv9OLqjx0SgE5wUQwEUxDBJM20GDEsJcHoSGVLRdMyFNv9cjkl9vV4Xy3L28QGOXrZnnUfqirZ3hUosKtDwRV2ve4LWFZe6hHdgQTavaOmTsSB8oBktam4le8F9p2JJxW+49+uDqkzmUyMsQHjwqfd/6EevnCAr/838Y22dOUkm7ca17fOhT6BfeDkOWIF8Nyy+KA4Ch5nNir11sFOAEobCLGWVV4Tr95qlle9sZVKJCAMhZQBBPBRDBVCEzFEMD3GFz5QkEVQMVaBkr5IFyEmf3htrQKacEjQvYawk89qbzkCpUDUd/2FP+MPVmh7qw6Qh77kC6b4lLhQxjn/sJx1fod9l99fLZXJm/tkDeakurQwsHW0OCdInyKfluxNyJfWHgsO7JS7UQSBwB61XSPjNoU7k2Bx/PRCc/iPuf3pcONYCKYCKYqganYEGGgvfNV6E2ewCxcfb39t+LrjfhetadwVBVnRQ28f3u4Ue2DQkixUga+lPeBtwIQYG/WPS+0yZ5QUm1mPl4fAKrYu/Ufj4RU1qHedbxS2qRdg77AmtwXF/qVN4vJw/Haxd+XDp7B+opgIpgIJgPANNhArOXfVfZaKq+8uQ11MfnZ2pDyoOAxGAkprPNg7ev6uV75/TMt8mogIV2J3nAm+gcQxxlZqPaOvVLY02WEh6d5T1dP9yhwIqMP60+1fGZ2/2yCiWAimBwOpmIjhxAZUqtR3eI7KxtUKAtrNkYAQPNS8IrPxFoc1o52BhPS0J1VGXNI3gAgUK/PSGiiTQDUhya65H+fa1UQ596synlIxRrE9wQTwUQwEUz9zv4jqbw8fTgq/7m2SaWuwzAXw8OI7wEf1AT85ZPNKlECJ+waDaS+9wnP7tdPNqu1wr4GlT9XBlYEE8FEMBFM/YIJKdgoddQQycj2QEJ++1SzXDG1t7q6kXDQisVio/FJBidn9IUSfgagzxlXL79/ukUlkCDbkUCqDJC0fiSYCCaCiWAa1LBiTaUlmpVn3upRe6yQSYfDAwEKIyHVHyhq8TvcM073nbatQ6175XRufNYMMF/7BxrBRDARTATToGDSDCgSEGLpgrzgiqkEhUsnu9Um1lqE+WoBpOLPxKZdpNk/VxeVZIZek6aRSrwSTAQTwUQwlQwmGB14Byh1BA/qjaaU3L2hVSVJoJq5kwCFNHWsN31+gU8OtaZ19WEljLed34NgIpgIJoKpLKOqGY+2WE5edMXk10+2yI33+VTKN0oBVXN/UbHnUsvvAeKzx9WrTbjY41Sp2n92hk4p96Zpi0erOxRQPCiw/xh3KYOH1xzrO4T4sPF1mz8hf9/Y9s4R9KhN54Q1KBTIfb0xKSkmQpQ1yek7lggmhwJJOw2XYDpmXPsODv6sr2+0UkEdiZzUhdNy7wthQT1AHH9h9xAfMgbHbA6r2n3UjT7d9NdfBBPBxFAeQ3kVmeVqBgZGBdUkcA7SK/6E/PXZNnXkBvYg2TXEh7Wm6+f6VP0+3LvWF3wtD1IEE8FEMBFMVTOkCPGhQsLuxqSM3xKW62Z75dTRvZUk7LYGhcrkqJiBxBACqTwgaf1GMBFMBBPBVFVDCjihYjiO8UA19QkvtcvHZ3vUERM4o6mWyQuV/GzUFkRhWWQragaWr+UBimAimAgmgskQQwpjg2oSWIOCBzV6c1huXRpQ5Y4Q4rP6OhTu4dNzvbI3lDSkP+0MPYKJYCKYCCbDDSm8KFSTwCF/s7d3qgMTUbgVxr2SXoyR74UMxEsnu9QhjHaGhhH3RjARTAQTwWQ4mGDcYHwAJ+z/wVESABT2QRkJk0p+FtbMTh9dJzO2ddSkP40AhlGfQTARTAQTwVRTQwojhFRzZPGtPtBt2Y252K+F40Gwjyub7wWvUYbcbp9DMBFMBBPBVFMwaUYV3tMjB3os6zFp3tdvn2qRaDqvDjbU7o2v+pIgCCaCiWAimEwBJqRZL3ity/Jg+sXjTariOMsT6YNRMbwJJoKJYCKYTAEmnP00Z0en5cH0k0dDgvqBBBPBpFXYGfB1wD86FFAsSVT+4Cme4fH7ofejXTwmnPgbjhNMQxkT9JgcCiQN0gTT0A3qUAYg//dY/6NCxIp93Zb3mH75RJN0JwmmoWibYCKYGMpjKM8UoTzUmFt/JGrZrDwkPyBl/K71rarSBYzrUIyzk/+XYCKYCCYaEFMYUBijncGEKlVkxSoQSBdHMdexW9rVHi0ng2Wo904wEUwEE8FkCjDBmKESxLUzPJasAAGYooL64t1dpunPoQKiVv9PMBFMBBPBZBpD6u3MyLdXNiivSdsXZJVXbK69ZoZHXnDFTNOftQLLUD+XYCKYCCaCyTSGFNls97zQJueMq7dcEgTCeF9ZFBBfZ8Y0/TlUQNTq/wkmgolgIphMY0ixl+mJN3vkiqluy4EJJ/WO3hRWm2trZdDt8rkEE8FEMBFMpgETMvNCPVn5wkK/qjtnlTAeKotfMKFeHXmBs6fsAoha3QfBRDARTASTqQwpKib8v+fb5KyxdZbxmnB67b882EhvqUJjiWAimAimCg2mWs0u7fi5+5qS8tn51jkC46rpbnmEx6pXbIJDMBFMBBPBVDGDUilI4hj26ds65IOjzH2yLfYufWDEEfnRmpA0RDKCUGSl+sDJ70MwEUwEE8FkOmOKcN6BlpR8bXFAThll3lNthw0/IpdPdcujB7slVyhwY22FxhLBRDARTBUaTE6e4Vbj3nGy7UP7u+WSyS7TrjUhRfyeF8ISjuVMB/dqPBOj3pNgIpgIJoLJlEYVYbGORE7uXt+iKiqYLUPvjDF18t1VDWrfEg45NMpoO+FzCCaCiWAimExrVAuFo+LvzMgPV4fk9NF1MuzewzX3nrCu9MGRR+TmhX7Z7IlLIkMoVRqWBBPBRDARTKYFEwwe4LQnlJSvPxAUbGKttecEOF6NLLwDvetKlTbKfL+jaq0ukyvI7StCoh3RY9tX297YEODK85h4NIEVDCEqQuxrSsktiwNy5pjawenUUXXyidleed4Vk64k15WqpR16TEMw6nYAHcFEMFXLuFTyfTVDdbAlJf++OiQXTnQZWoEc5yxhw+/XlgTkybeigsQMtKmS98j3Otaf2vOmx+RQQBFMxwYDDYP5+wIGy92RkeEvhlUJIJQCwppPtcJ7eG8cZ3HKyCPys8eaZHsgIUhlp1aq2wcEk0OBpHl7BFN1BxgNWOX7FxlwqEK+yR2TW5cGVWgP+4mqASeUGkLo7v5dXWoDLRMdKv88+xsjBBPBxOQHhmQs5wEgISKeycuh1pSMfDGs1p4unuQSrAEN5fRbLeMOB/7deJ9PfvNUi2z1xVXojlUdjIESQEUwEUwEE8FkOTAVz7KRvYW1p7k7OuWOFQ3qLKeTRxxRa1A4vA9ZdIAVvrBWhC/tZ/wN3tZJw4+o0kIA2833+2X05rC8GkhINJ23dN8U95OVvieYCCaCiWCytPGF95TKFaQ7lZfWWFYOKUh1yL8+1CgfnemRD09xyYUT6hWwzhxbp0J/Z4+tl/Mn1KuqEkj9vnVpQMZsbpdtvoQ09WSlK5mXZLYgOa4n1UQbBBPBRDARTDUxPtWYwSuDlu+FVHNPVt5sTcmL7pis2heR+a91yYxXO1Vx2Hk7O2XZnoisPxJVZyihAGtnIidYv2Jyg3Ehu+NpgGAimHrBlGTI4niDhL+vvaHiM3DWMyCYCCaZ/EqnCl1w8Dtr8PN583mbVQMEE8FEMDGUZ5tQnlkNLdulbxLQG5I9ypJE2r4ep72eO8ErU7d10WMinAgnasA0GgCYsnmCyf6FAo/jGZ45ziO/XxeWVp4nY5pBydm1vtk1+8t+/ZXJFyQQycqXFzfa3zY7zRsq5X5PHeOW21c2SUN3loaZM2ZqgBowhQaQqr89mJTr5wUJplIMud2uOWmUW66e6Ze69ow6XoCzT/vNPvlM+UytpgFsbH54f1SumO4jmOwGnVLu530jXPLB0W7ZEUwJdtBbTcBsL40uNWA/DXQm8jLupU7BGngpdszS11i68cdZI6rEPZ040iV/f6Fd2uPcy0QjZz8jx2dqrWeKDc5YX/rG8pBgqaESNs7U72HqxlURPIPd9/tHuOS6OQF5rTFFj4lrDNQANVBTDaSyBXnenZAzxnkEtmkw+2X5v1v+BqoEr/cNd8lZ4z0qbZyzS2vNLvm8+LzspoG2eE7+sC4sJ450gLcEm04wHX/2gSSIb69qEm9nVtULs5vYeT804NSA+TWAMN4mT0KuneV3hrdEMB0fShqwL57ikzk7IxJJ8thoGjHzGzE+I3s9I5x3hQMgf7K2Ra0tIZKj2SZbv9r65irwEOE1XTs7IPUdGZb75zpDTdcZCB17QaeU54kU8VX7o/KRGX5BtrBj7LVjbrRMSEEMJ492y51rW8TdkaFhIpyoAWrAEA1gQ+3B1rTcvKjBGZl4xTaaYBp8FoIsGOwdwB4CHLyWyztv5lbK7I7XUBfUwNA1oNXEC/Xk5M61rYKojePstONuuJjKOr4HnFANYv6ubh4tzRmzITNmGvmhG3kr9iEKtbZEc3LXs2E5fazHWSE8zSYTTIN7TFofoRoE4DR3Z0TC3HhL40xAUwMV1gAqzaB49J83hOWSKT4Z5pT0cA1I2qtmdPlaGqAglA9P88t9u7qlM5kXVPyF623FmRnbzOdGDZhDA4XCUbUlpbE7J3c/1y444cCxUAKcCKTSgFTcTwjrXTPLr9LIm3qyzNYjmDkxoQaGpAGkhde3Z+RPG8JyxliHVHfQvKP+XosNLr8vHVII610+zS8/WNMs+5rTat0JG+E4A2UfUAPUQCkaQKQlVzgqHYm8vBJIyi1LG+WCSV4Z5qS08P6gRI+pdBD1B214TlicvHlRoyzd2yP+rqwCFLL2GN6jcSrFOPEa5+kEYbtUrqA27R9qTcvYlzrl2lkBZ2bfEUxDg1B/YNJ+h93YqPj747Ut8sRbMYmk8jzHiaEdes/UwHs0gAlrOlcQAGnR7m7lJZ0yxiOOqehwPBD1/b1mXPk6NHDB/UblX+zQvnVZo9z7Yoe86EmoOnsoKRLPFARxZIT7+MU+oAacoQFACHsfW6M5cXVk5JFDUfntM23ymflBQbkzLAkwdNeP7SWQ+umUvvTW+TPOcjpzvEeunO6XL9zfIH95tl1m7YjIc664bOQX+4AacIQGnnfH5fG3YjJ6S6f8YX1YbpwflEun+uTUMci4q7zdsZUtt9XN6AQI752DgxqgBqgBE2qAD8WED4WAdV4JFj5zPnNq4JgGCCaCiRqgBqgBasBUGjBVYzhjODZjYF+wL6gBasCpGiCYOFOiBqgBaoAaMJUGTNUYp84OeN+cGVMD1AA1cEwDBBNnStQANUANUAOm0oCpGsMZw7EZA/uCfUENUANO1QDBxJkSNUANUAPUgKk0YKrGOHV2wPvmzJgaoAaogWMaIJg4U6IGqAFqgBowlQZM1RjOGI7NGNgX7AtqgBpwqgYIJs6UqAFqgBqgBkylAVM1xqmzA943Z8bUADVADRzTAMHEmRI1QA1QA9SAqTRgqsZwxnBsxsC+YF9QA9SAUzVAMHGmRA1QA9QANWAqDZiqMU6dHfC+OTOmBqgBauCYBggmzpSoAWqAGqAGTKUBUzWGM4ZjMwb2BfuCGqAGnKoBgokzJWqAGqAGqAFTacBUjXHq7ID3zZkxNUANUAPHNEAwcaZEDVAD1AA1YCoNmKoxnDEcmzGwL9gX1AA14FQNEEycKVED1AA1QA2YSgOmaoxTZwe8b86MqQFqgBo4pgGCiTMlaoAaoAaoAVNpwFSN4Yzh2IyBfcG+oAaoAadqgGDiTIkaoAaoAWrAVBowVWOcOjvgfXNmTA1QA9TAMQ0QTJwpUQPUADVADZhJA/8fe+16UQ1uuC0AAAAASUVORK5CYII=;" vertex="1" parent="1">
          <mxGeometry x="499" y="118.5" width="52.39" height="54" as="geometry" />
        </mxCell>
        <mxCell id="f2BgzFDbXWF-40dfzCkJ-25" value="&lt;b&gt;&lt;font color=&quot;#0066cc&quot;&gt;Azure Right Management (RMS)&lt;/font&gt;&lt;/b&gt;" style="text;html=1;strokeColor=none;fillColor=none;align=center;verticalAlign=middle;whiteSpace=wrap;rounded=0;" vertex="1" parent="1">
          <mxGeometry x="510" y="83" width="96" height="33" as="geometry" />
        </mxCell>
        <mxCell id="f2BgzFDbXWF-40dfzCkJ-29" value="" style="endArrow=classic;html=1;strokeColor=#007FFF;" edge="1" parent="1">
          <mxGeometry width="50" height="50" relative="1" as="geometry">
            <mxPoint x="484" y="221" as="sourcePoint" />
            <mxPoint x="534" y="171" as="targetPoint" />
          </mxGeometry>
        </mxCell>
        <mxCell id="f2BgzFDbXWF-40dfzCkJ-30" value="" style="endArrow=classic;html=1;strokeColor=#007FFF;" edge="1" parent="1" source="f2BgzFDbXWF-40dfzCkJ-3">
          <mxGeometry width="50" height="50" relative="1" as="geometry">
            <mxPoint x="383" y="236" as="sourcePoint" />
            <mxPoint x="433" y="186" as="targetPoint" />
          </mxGeometry>
        </mxCell>
        <mxCell id="f2BgzFDbXWF-40dfzCkJ-31" value="" style="endArrow=classic;html=1;entryX=1;entryY=1;entryDx=0;entryDy=0;entryPerimeter=0;strokeColor=#0066CC;" edge="1" parent="1" source="f2BgzFDbXWF-40dfzCkJ-3" target="f2BgzFDbXWF-40dfzCkJ-15">
          <mxGeometry width="50" height="50" relative="1" as="geometry">
            <mxPoint x="329" y="236" as="sourcePoint" />
            <mxPoint x="379" y="186" as="targetPoint" />
          </mxGeometry>
        </mxCell>
        <mxCell id="f2BgzFDbXWF-40dfzCkJ-32" value="" style="endArrow=none;dashed=1;html=1;strokeColor=#007FFF;" edge="1" parent="1">
          <mxGeometry width="50" height="50" relative="1" as="geometry">
            <mxPoint x="85" y="301" as="sourcePoint" />
            <mxPoint x="786" y="301" as="targetPoint" />
          </mxGeometry>
        </mxCell>
        <mxCell id="f2BgzFDbXWF-40dfzCkJ-33" value="&lt;font size=&quot;1&quot; color=&quot;#000066&quot;&gt;&lt;b style=&quot;font-size: 16px&quot;&gt;Azure Public Cloud&lt;/b&gt;&lt;/font&gt;" style="text;html=1;strokeColor=none;fillColor=none;align=center;verticalAlign=middle;whiteSpace=wrap;rounded=0;" vertex="1" parent="1">
          <mxGeometry x="101" y="175" width="151" height="48" as="geometry" />
        </mxCell>
        <mxCell id="f2BgzFDbXWF-40dfzCkJ-34" value="&lt;font size=&quot;1&quot; color=&quot;#000066&quot;&gt;&lt;b style=&quot;font-size: 16px&quot;&gt;Customer Data Center&lt;/b&gt;&lt;/font&gt;" style="text;html=1;strokeColor=none;fillColor=none;align=center;verticalAlign=middle;whiteSpace=wrap;rounded=0;" vertex="1" parent="1">
          <mxGeometry x="96" y="313" width="178" height="48" as="geometry" />
        </mxCell>
      </root>
    </mxGraphModel>
  </diagram>
</mxfile>
